<?xml version="1.0" encoding="UTF-8" ?>
<!DOCTYPE svg PUBLIC "-//W3C//DTD SVG 1.1//EN" "http://www.w3.org/Graphics/SVG/1.1/DTD/svg11.dtd">
<svg width="1200pt" height="561pt" viewBox="0 0 1200 561" version="1.1" xmlns="http://www.w3.org/2000/svg">
<g id="#181918ff">
<path fill="#181918" opacity="1.00" d=" M 59.09 1.02 C 426.04 0.98 793.00 1.00 1159.96 1.01 C 1159.97 7.58 1159.98 14.14 1160.04 20.71 C 808.36 21.43 456.68 20.72 105.00 21.07 C 89.56 21.12 74.06 22.29 58.69 20.38 C 58.79 13.93 58.98 7.48 59.09 1.02 Z" />
<path fill="#181918" opacity="1.00" d=" M 39.08 21.03 C 45.61 21.04 52.15 21.05 58.68 21.06 C 58.76 27.68 58.88 34.30 58.99 40.92 C 52.67 40.99 46.34 41.08 40.02 41.14 C 39.99 161.05 39.98 280.95 40.03 400.85 C 46.63 400.95 53.24 401.05 59.85 401.15 C 59.95 407.75 60.05 414.36 60.15 420.97 C 160.09 421.06 260.04 420.94 359.98 421.02 C 360.03 440.96 360.03 460.91 359.97 480.86 C 353.31 480.95 346.66 481.04 340.01 481.14 C 340.00 494.40 339.99 507.65 340.00 520.91 C 353.32 520.97 366.65 521.14 379.98 521.36 C 379.97 527.89 379.97 534.43 379.97 540.97 C 373.30 540.97 366.66 541.02 360.00 541.03 C 346.76 541.04 333.53 541.03 320.29 540.79 C 319.84 521.01 319.83 501.22 320.21 481.44 C 326.71 481.17 333.22 480.96 339.73 480.68 C 339.99 467.46 340.02 454.23 340.02 441.01 C 246.75 440.95 153.48 441.05 60.22 440.97 C 60.07 434.43 59.96 427.92 59.73 421.39 C 53.20 421.20 46.68 421.02 40.15 420.88 C 40.03 414.37 39.94 407.88 39.74 401.39 C 33.17 401.19 26.59 401.03 20.01 400.88 C 19.97 287.58 20.02 174.29 19.99 61.00 C 20.00 54.36 20.02 47.72 20.03 41.08 C 26.31 41.02 32.59 40.91 38.87 40.85 C 38.94 34.24 39.01 27.63 39.08 21.03 Z" />
<path fill="#181918" opacity="1.00" d=" M 1161.01 20.72 C 1167.32 20.83 1173.61 20.98 1179.96 21.08 C 1179.97 27.62 1179.97 34.16 1180.03 40.70 C 1173.28 40.77 1166.55 40.89 1159.84 40.98 C 1160.16 34.22 1160.51 27.46 1161.01 20.72 Z" />
<path fill="#181918" opacity="1.00" d=" M 1180.96 40.71 C 1187.29 40.81 1193.62 40.95 1200.00 41.06 L 1200.00 400.95 C 1193.57 401.04 1187.19 401.19 1180.80 401.30 C 1179.52 383.23 1180.05 365.10 1179.97 347.00 C 1180.01 255.33 1180.03 163.67 1179.95 72.00 C 1179.96 61.56 1180.23 51.12 1180.96 40.71 Z" />
<path fill="#181918" opacity="1.00" d=" M 127.12 72.71 C 138.41 73.04 149.72 73.02 161.02 73.09 C 160.98 75.66 160.91 80.80 160.88 83.37 C 157.24 83.88 153.61 84.44 150.00 85.05 C 149.60 103.76 150.26 122.47 149.88 141.18 C 153.56 141.56 157.24 141.95 160.93 142.33 C 160.95 144.97 160.99 150.27 161.01 152.92 C 149.73 152.98 138.45 152.96 127.17 153.28 C 127.13 149.43 127.09 145.60 127.13 141.76 C 131.08 141.83 135.03 141.90 138.98 141.96 C 139.04 122.62 139.03 103.29 138.98 83.95 C 135.06 84.05 131.14 84.17 127.23 84.31 C 127.16 80.44 127.09 76.58 127.12 72.71 Z" />
<path fill="#181918" opacity="1.00" d=" M 196.15 72.64 C 211.43 73.07 226.71 73.03 242.00 73.04 C 242.00 75.76 242.00 81.22 242.00 83.94 C 230.33 83.98 218.68 84.01 207.02 84.04 C 206.96 103.34 206.97 122.64 207.02 141.94 C 218.68 141.97 230.34 142.01 242.00 142.05 C 242.00 144.77 242.00 150.22 242.00 152.94 C 226.74 152.96 211.47 152.90 196.22 153.47 C 195.85 126.53 195.88 99.58 196.15 72.64 Z" />
<path fill="#181918" opacity="1.00" d=" M 277.00 73.00 C 288.33 73.00 299.66 73.00 311.00 73.00 C 311.00 75.75 311.00 81.25 311.00 84.00 C 299.66 84.00 288.33 84.00 277.00 84.00 C 277.00 81.25 277.00 75.75 277.00 73.00 Z" />
<path fill="#181918" opacity="1.00" d=" M 334.16 72.59 C 336.79 72.76 342.03 73.09 344.65 73.25 C 345.05 76.88 345.45 80.51 345.87 84.14 C 348.61 84.14 354.08 84.15 356.81 84.15 C 356.87 86.87 356.98 92.30 357.04 95.02 L 357.81 95.12 C 360.33 95.46 365.35 96.13 367.86 96.46 C 367.90 99.04 367.97 104.20 368.00 106.78 C 365.33 106.95 359.99 107.27 357.31 107.43 C 357.18 104.46 356.92 98.53 356.79 95.56 C 354.11 95.72 348.74 96.03 346.06 96.18 L 345.17 96.29 C 344.70 115.12 345.07 133.96 344.98 152.80 C 342.29 152.99 336.92 153.35 334.24 153.54 C 333.84 126.56 333.87 99.57 334.16 72.59 Z" />
<path fill="#181918" opacity="1.00" d=" M 380.16 72.66 C 384.02 72.61 387.89 72.55 391.78 72.47 C 392.15 99.43 392.12 126.39 391.85 153.34 C 387.97 153.38 384.09 153.45 380.23 153.53 C 380.01 142.06 379.96 130.59 379.97 119.12 C 377.16 119.02 371.56 118.83 368.75 118.73 C 368.84 114.83 368.91 110.94 368.98 107.05 C 371.73 107.00 377.21 106.90 379.95 106.86 C 379.98 95.45 379.94 84.05 380.16 72.66 Z" />
<path fill="#181918" opacity="1.00" d=" M 415.05 73.31 C 417.73 73.10 423.08 72.67 425.75 72.46 C 425.93 80.31 426.00 88.15 426.03 96.00 C 423.27 96.00 417.75 96.00 415.00 96.00 C 415.00 88.44 415.02 80.87 415.05 73.31 Z" />
<path fill="#181918" opacity="1.00" d=" M 438.21 72.69 C 457.40 73.18 476.61 73.27 495.81 72.51 C 495.83 76.44 495.92 80.38 495.88 84.32 C 487.91 84.13 479.96 84.05 472.00 83.97 C 472.01 106.91 472.00 129.85 471.98 152.80 C 469.29 152.98 463.92 153.35 461.24 153.54 C 460.58 130.73 461.46 107.91 460.89 85.10 L 460.79 84.16 C 453.08 84.00 445.39 84.08 437.70 84.35 C 437.84 80.46 438.02 76.58 438.21 72.69 Z" />
<path fill="#181918" opacity="1.00" d=" M 530.15 72.64 C 545.42 73.07 560.71 73.03 576.00 73.04 C 576.00 75.76 576.00 81.22 576.00 83.94 C 564.33 83.98 552.67 84.01 541.02 84.04 C 540.96 103.34 540.97 122.64 541.02 141.94 C 552.68 141.97 564.33 142.01 576.00 142.05 C 576.00 144.77 576.00 150.22 576.00 152.94 C 560.73 152.96 545.47 152.90 530.22 153.47 C 529.85 126.53 529.88 99.58 530.15 72.64 Z" />
<path fill="#181918" opacity="1.00" d=" M 599.15 72.69 C 618.36 73.18 637.59 73.26 656.81 72.51 C 656.82 76.45 656.92 80.40 656.88 84.34 C 641.25 83.90 625.62 83.98 610.00 84.00 C 609.99 87.98 609.99 91.95 610.00 95.93 C 617.66 95.96 625.33 96.03 633.00 96.06 C 633.00 98.77 633.00 104.20 633.00 106.92 C 625.32 106.96 617.66 107.02 610.00 107.06 C 609.98 118.71 609.98 130.36 610.01 142.01 C 625.60 142.00 641.19 142.16 656.78 141.63 C 656.81 145.52 656.91 149.44 656.89 153.34 C 637.67 152.83 618.44 152.72 599.24 153.44 C 598.82 126.53 598.89 99.61 599.15 72.69 Z" />
<path fill="#181918" opacity="1.00" d=" M 669.15 72.64 C 684.42 73.07 699.71 73.03 715.00 73.04 C 715.00 75.76 715.00 81.22 715.00 83.94 C 703.33 83.98 691.66 84.01 680.00 84.04 C 679.99 88.01 679.99 91.97 680.00 95.94 C 691.66 95.97 703.32 96.01 715.00 96.05 C 715.00 98.77 715.00 104.22 715.00 106.94 C 703.34 106.98 691.68 107.01 680.03 107.05 C 680.02 122.26 679.96 137.47 679.95 152.69 C 677.27 152.90 671.92 153.33 669.24 153.54 C 668.83 126.58 668.88 99.61 669.15 72.64 Z" />
<path fill="#181918" opacity="1.00" d=" M 738.16 72.60 C 740.86 72.74 746.28 73.01 748.99 73.15 C 748.99 96.10 749.01 119.05 749.01 142.00 C 764.60 142.03 780.20 142.13 795.79 141.59 C 795.81 145.50 795.92 149.43 795.88 153.34 C 776.67 152.83 757.44 152.72 738.24 153.44 C 737.82 126.50 737.89 99.54 738.16 72.60 Z" />
<path fill="#181918" opacity="1.00" d=" M 819.00 73.00 C 830.32 73.00 841.66 73.00 853.00 73.00 C 853.00 75.75 853.00 81.25 853.00 84.00 C 841.66 84.00 830.33 84.00 819.00 84.00 C 819.00 81.25 819.00 75.75 819.00 73.00 Z" />
<path fill="#181918" opacity="1.00" d=" M 876.12 72.60 C 878.84 72.74 884.28 73.04 887.00 73.18 C 886.99 75.81 886.98 81.08 886.97 83.71 C 884.29 83.90 878.91 84.26 876.23 84.44 C 876.12 80.49 876.11 76.55 876.12 72.60 Z" />
<path fill="#181918" opacity="1.00" d=" M 922.34 72.67 C 926.13 72.62 929.95 72.55 933.79 72.47 C 933.79 76.39 933.91 80.31 933.87 84.23 C 929.89 84.16 925.92 84.10 921.98 84.05 C 922.05 87.95 922.16 91.84 922.31 95.74 C 918.48 95.84 914.77 95.95 910.98 96.04 C 910.86 92.13 910.75 88.22 910.65 84.31 C 914.09 84.16 917.67 84.04 921.16 83.92 C 921.54 80.17 921.97 76.42 922.34 72.67 Z" />
<path fill="#181918" opacity="1.00" d=" M 980.00 73.00 C 991.32 73.00 1002.66 73.00 1014.00 73.00 C 1014.00 75.75 1014.00 81.25 1014.00 84.00 C 1002.66 84.00 991.33 84.00 980.00 84.00 C 980.00 81.25 980.00 75.75 980.00 73.00 Z" />
<path fill="#181918" opacity="1.00" d=" M 1038.16 72.59 C 1040.79 72.76 1046.03 73.09 1048.65 73.25 C 1049.03 76.88 1049.43 80.51 1049.87 84.14 C 1052.61 84.14 1058.08 84.15 1060.81 84.15 C 1060.87 86.87 1060.98 92.30 1061.04 95.02 L 1061.81 95.12 C 1064.33 95.46 1069.35 96.13 1071.86 96.46 C 1071.90 99.04 1071.97 104.20 1072.00 106.78 C 1069.33 106.95 1063.99 107.27 1061.31 107.43 C 1061.18 104.46 1060.92 98.53 1060.79 95.56 C 1058.11 95.72 1052.74 96.03 1050.06 96.18 L 1049.17 96.29 C 1048.69 115.12 1049.07 133.96 1048.98 152.80 C 1046.29 152.99 1040.92 153.35 1038.24 153.54 C 1037.84 126.56 1037.86 99.57 1038.16 72.59 Z" />
<path fill="#181918" opacity="1.00" d=" M 1084.16 72.66 C 1088.00 72.61 1091.88 72.55 1095.78 72.47 C 1096.15 99.43 1096.11 126.39 1095.85 153.34 C 1091.95 153.38 1088.08 153.45 1084.23 153.53 C 1084.00 142.06 1083.96 130.59 1083.97 119.12 C 1081.16 119.02 1075.56 118.83 1072.75 118.73 C 1072.82 114.83 1072.90 110.94 1072.98 107.05 C 1075.73 107.00 1081.21 106.90 1083.95 106.86 C 1083.97 95.45 1083.94 84.05 1084.16 72.66 Z" />
<path fill="#181918" opacity="1.00" d=" M 242.53 83.72 C 246.35 83.95 250.22 84.15 254.04 84.54 C 254.02 103.72 254.01 122.90 253.98 142.09 C 251.31 141.91 245.98 141.57 243.31 141.40 C 242.95 141.38 242.24 141.33 241.88 141.31 C 242.14 122.62 241.56 103.90 242.42 85.22 C 242.45 84.85 242.50 84.10 242.53 83.72 Z" />
<path fill="#181918" opacity="1.00" d=" M 265.01 84.00 C 267.76 84.00 273.25 84.00 276.00 84.00 C 276.00 103.33 275.99 122.67 276.00 142.00 C 273.25 142.00 267.76 142.00 265.02 142.00 C 264.97 122.66 264.97 103.33 265.01 84.00 Z" />
<path fill="#181918" opacity="1.00" d=" M 311.53 83.72 C 315.35 83.95 319.22 84.15 323.04 84.54 C 323.02 103.72 323.01 122.90 322.98 142.09 C 320.31 141.91 314.98 141.57 312.31 141.40 C 311.95 141.38 311.24 141.33 310.88 141.31 C 311.13 122.62 310.57 103.90 311.42 85.22 C 311.45 84.85 311.50 84.10 311.53 83.72 Z" />
<path fill="#181918" opacity="1.00" d=" M 576.53 83.72 C 580.34 83.95 584.22 84.15 588.04 84.54 C 588.02 103.72 588.01 122.90 587.98 142.09 C 585.31 141.91 579.98 141.57 577.31 141.40 C 576.95 141.38 576.24 141.33 575.88 141.31 C 576.13 122.62 575.56 103.90 576.42 85.22 C 576.45 84.85 576.50 84.10 576.53 83.72 Z" />
<path fill="#181918" opacity="1.00" d=" M 715.57 83.73 C 719.36 83.96 723.25 84.16 727.06 84.54 C 727.04 87.43 727.01 93.21 726.99 96.11 C 724.31 95.93 718.95 95.58 716.27 95.40 C 715.90 95.38 715.15 95.33 714.77 95.31 C 714.94 91.93 715.21 88.57 715.46 85.19 C 715.49 84.83 715.54 84.09 715.57 83.73 Z" />
<path fill="#181918" opacity="1.00" d=" M 807.01 84.00 C 809.76 84.00 815.25 84.00 818.00 84.00 C 817.99 103.33 817.99 122.67 818.00 142.00 C 815.25 142.00 809.76 142.00 807.02 142.00 C 806.97 122.66 806.97 103.33 807.01 84.00 Z" />
<path fill="#181918" opacity="1.00" d=" M 853.53 83.72 C 857.32 83.95 861.22 84.15 865.04 84.54 C 865.02 103.72 865.01 122.90 864.98 142.09 C 862.31 141.91 856.98 141.57 854.31 141.40 C 853.95 141.38 853.24 141.33 852.88 141.31 C 853.13 122.62 852.56 103.90 853.42 85.22 C 853.45 84.85 853.50 84.10 853.53 83.72 Z" />
<path fill="#181918" opacity="1.00" d=" M 887.99 84.00 C 890.67 84.01 896.04 84.04 898.72 84.05 C 898.94 87.83 899.20 91.61 899.48 95.39 C 902.09 95.64 907.32 96.13 909.93 96.37 C 910.03 115.18 910.03 133.99 909.98 152.80 C 907.29 152.99 901.92 153.35 899.24 153.54 C 898.87 134.40 899.00 115.27 898.99 96.13 C 896.18 96.03 890.56 95.83 887.75 95.73 C 887.82 91.82 887.91 87.91 887.99 84.00 Z" />
<path fill="#181918" opacity="1.00" d=" M 968.01 84.00 C 970.76 84.00 976.25 84.00 979.00 84.00 C 978.99 103.33 978.99 122.67 979.00 142.00 C 976.25 142.00 970.76 142.00 968.02 142.00 C 967.97 122.66 967.97 103.33 968.01 84.00 Z" />
<path fill="#181918" opacity="1.00" d=" M 1014.53 83.72 C 1018.31 83.95 1022.23 84.15 1026.04 84.54 C 1026.02 103.72 1026.01 122.90 1025.98 142.09 C 1023.31 141.91 1017.98 141.57 1015.31 141.40 C 1014.95 141.38 1014.24 141.33 1013.88 141.31 C 1014.13 122.62 1013.56 103.90 1014.42 85.22 C 1014.45 84.85 1014.50 84.10 1014.53 83.72 Z" />
<path fill="#181918" opacity="1.00" d=" M 403.12 95.66 C 405.84 95.79 411.28 96.04 414.00 96.16 C 413.99 98.79 413.97 104.05 413.96 106.68 C 411.28 106.89 405.91 107.32 403.23 107.54 C 403.14 103.58 403.10 99.62 403.12 95.66 Z" />
<path fill="#181918" opacity="1.00" d=" M 277.00 142.00 C 288.33 142.00 299.66 142.00 311.00 142.00 C 311.00 144.75 311.00 150.25 311.00 153.00 C 299.66 153.00 288.33 153.00 277.00 153.00 C 277.00 150.25 277.00 144.75 277.00 142.00 Z" />
<path fill="#181918" opacity="1.00" d=" M 819.00 142.00 C 830.32 142.00 841.66 142.00 853.00 142.00 C 853.00 144.75 853.00 150.25 853.00 153.00 C 841.66 153.00 830.33 153.00 819.00 153.00 C 819.00 150.25 819.00 144.75 819.00 142.00 Z" />
<path fill="#181918" opacity="1.00" d=" M 980.00 142.00 C 991.32 142.00 1002.66 142.00 1014.00 142.00 C 1014.00 144.75 1014.00 150.25 1014.00 153.00 C 1002.66 153.00 991.33 153.00 980.00 153.00 C 980.00 150.25 980.00 144.75 980.00 142.00 Z" />
<path fill="#181918" opacity="1.00" d=" M 128.63 195.75 C 168.91 196.07 209.21 196.31 249.48 195.66 C 249.69 204.58 249.93 213.52 249.63 222.45 C 219.76 221.64 189.87 222.04 160.00 222.00 C 158.52 222.10 155.57 222.29 154.09 222.39 C 153.91 229.51 153.84 236.63 154.07 243.76 C 155.55 243.83 158.51 243.97 159.99 244.04 C 173.82 244.10 187.66 244.26 201.48 243.66 C 201.70 252.58 201.93 261.53 201.63 270.46 C 187.76 270.03 173.87 269.64 159.99 270.02 C 158.55 270.12 155.67 270.33 154.23 270.44 C 153.38 302.43 154.75 334.45 153.44 366.44 C 145.12 366.16 136.81 366.05 128.50 366.00 C 127.72 309.27 127.53 252.48 128.63 195.75 Z" />
<path fill="#181918" opacity="1.00" d=" M 277.63 195.75 C 309.86 196.05 342.10 196.32 374.32 195.68 C 374.69 203.71 374.76 211.76 375.27 219.79 C 376.71 219.85 379.59 219.97 381.03 220.03 C 386.84 220.07 392.66 219.83 398.48 219.62 C 398.70 228.56 398.94 237.51 398.63 246.45 C 392.75 246.24 386.87 246.09 381.00 246.01 C 379.46 245.99 376.38 245.95 374.84 245.93 C 374.91 253.22 374.88 260.52 375.16 267.81 C 376.62 267.87 379.53 267.98 380.99 268.03 C 386.80 268.07 392.61 267.83 398.43 267.62 C 399.33 300.44 399.38 333.30 398.44 366.12 C 390.17 366.06 381.90 366.03 373.64 366.03 C 372.36 334.04 373.27 302.02 372.98 270.01 C 369.63 269.99 366.34 270.01 363.01 270.00 C 345.00 270.11 326.99 269.73 308.99 270.01 C 307.55 270.10 304.67 270.30 303.23 270.40 C 302.39 302.40 303.74 334.44 302.44 366.44 C 294.12 366.16 285.81 366.05 277.50 366.00 C 276.72 309.27 276.52 252.48 277.63 195.75 M 303.00 222.00 C 303.00 229.33 302.99 236.66 302.99 244.00 C 304.50 244.00 307.50 243.99 309.00 243.99 C 327.00 244.02 345.00 244.03 363.00 243.99 C 366.34 244.00 369.64 243.98 373.00 244.00 C 372.99 236.67 373.00 229.33 373.01 222.00 C 369.68 222.01 366.31 221.99 363.00 222.01 C 345.00 221.97 327.00 221.97 309.00 222.01 C 307.50 222.01 304.50 222.00 303.00 222.00 Z" />
<path fill="#181918" opacity="1.00" d=" M 426.58 195.86 C 450.88 195.96 475.18 196.34 499.48 195.58 C 499.69 204.53 499.94 213.49 499.63 222.45 C 493.74 222.24 487.87 222.09 481.99 222.01 C 480.50 221.99 477.51 221.95 476.02 221.94 C 476.15 261.23 475.67 300.52 476.16 339.81 C 477.62 339.86 480.53 339.97 481.99 340.03 C 487.81 340.06 493.64 339.83 499.48 339.62 C 499.69 348.55 499.94 357.50 499.63 366.45 C 475.29 365.61 450.94 366.12 426.60 366.05 C 426.33 357.32 426.08 348.59 426.41 339.87 C 430.93 339.90 435.47 339.95 440.01 339.98 C 443.31 339.96 446.67 340.00 449.99 340.00 C 450.01 300.67 450.03 261.34 449.98 222.00 C 446.62 221.99 443.35 222.01 440.01 222.01 C 435.46 222.00 430.95 222.02 426.42 222.03 C 426.08 213.31 426.32 204.58 426.58 195.86 Z" />
<path fill="#181918" opacity="1.00" d=" M 527.63 195.75 C 559.85 196.05 592.10 196.32 624.32 195.68 C 624.68 203.71 624.76 211.76 625.27 219.79 C 626.71 219.85 629.59 219.97 631.03 220.03 C 636.82 220.07 642.62 219.83 648.44 219.63 C 649.36 260.52 649.36 301.47 648.44 342.37 C 642.61 342.16 636.81 341.92 631.00 342.00 C 629.61 342.07 626.82 342.21 625.42 342.27 C 624.96 350.21 624.84 358.16 624.42 366.11 C 592.11 365.91 559.80 366.01 527.50 366.04 C 526.72 309.29 526.52 252.49 527.63 195.75 M 553.01 222.00 C 552.99 261.33 552.98 300.67 553.02 340.00 C 554.51 340.00 557.51 339.99 559.00 339.99 C 577.00 340.02 595.00 340.03 613.00 339.99 C 616.35 340.01 619.61 339.98 622.99 340.00 C 623.01 300.67 623.01 261.33 622.99 222.00 C 619.67 222.01 616.29 221.99 613.00 222.01 C 595.00 221.97 577.00 221.97 559.00 222.01 C 557.50 222.01 554.51 222.00 553.01 222.00 Z" />
<path fill="#181918" opacity="1.00" d=" M 700.70 195.86 C 724.90 195.97 749.12 196.34 773.32 195.59 C 773.68 203.65 773.76 211.73 774.27 219.79 C 775.71 219.85 778.59 219.97 780.03 220.03 C 785.82 220.07 791.62 219.83 797.43 219.63 C 798.40 268.55 798.27 317.52 797.57 366.45 C 789.25 366.16 780.94 366.04 772.64 366.00 C 771.36 334.02 772.27 302.01 771.98 270.01 C 768.59 269.99 765.35 270.01 762.01 270.00 C 744.00 270.11 725.99 269.73 707.99 270.01 C 706.55 270.10 703.67 270.30 702.23 270.40 C 701.39 302.40 702.74 334.44 701.44 366.44 C 693.16 366.16 684.90 366.05 676.64 366.00 C 675.53 317.31 675.71 268.56 676.48 219.87 C 680.96 219.90 685.49 219.96 690.00 219.99 C 693.31 220.01 696.52 219.99 699.86 220.01 C 700.05 211.95 700.29 203.90 700.70 195.86 M 702.00 222.00 C 701.99 229.33 701.99 236.66 701.99 244.00 C 703.50 244.00 706.50 243.99 708.00 243.99 C 726.00 244.02 744.00 244.03 762.00 243.99 C 765.36 244.00 768.61 243.98 772.00 244.00 C 771.99 236.67 771.99 229.33 772.01 222.00 C 768.69 222.01 765.28 221.99 762.00 222.01 C 744.00 221.97 726.00 221.97 708.00 222.01 C 706.50 222.01 703.50 222.00 702.00 222.00 Z" />
<path fill="#181918" opacity="1.00" d=" M 825.58 195.88 C 833.81 195.92 842.07 195.95 850.32 195.68 C 850.68 203.71 850.75 211.76 851.27 219.79 C 852.71 219.85 855.59 219.97 857.03 220.03 C 862.78 220.07 868.54 219.83 874.32 219.63 C 874.68 227.64 874.76 235.67 875.28 243.68 C 876.71 243.76 879.59 243.92 881.03 244.01 C 883.01 244.09 885.00 244.09 887.00 244.08 C 890.22 244.03 893.58 244.02 896.85 243.99 C 897.01 235.94 897.11 227.90 897.53 219.87 C 901.99 219.90 906.50 219.96 911.01 219.98 C 914.22 219.97 917.58 219.99 920.85 220.00 C 921.01 211.95 921.11 203.91 921.53 195.88 C 929.83 195.91 938.16 195.95 946.48 195.66 C 946.68 204.57 946.93 213.49 946.63 222.40 C 940.74 222.17 934.87 221.94 929.00 222.00 C 927.61 222.07 924.82 222.20 923.42 222.26 C 922.95 230.20 922.84 238.16 922.43 246.10 C 916.60 246.06 910.79 246.03 904.99 246.02 C 903.50 246.02 900.51 246.01 899.02 246.01 C 898.68 286.15 899.59 326.31 898.57 366.44 C 890.25 366.15 881.94 366.04 873.64 366.01 C 872.24 326.02 873.37 286.00 872.98 246.01 C 869.59 245.99 866.36 246.01 863.01 246.01 C 858.54 246.00 854.13 246.02 849.71 246.03 C 849.29 238.02 849.05 230.02 848.85 222.01 C 845.51 221.99 842.31 222.01 839.00 222.01 C 834.45 222.01 829.94 222.02 825.42 222.03 C 825.08 213.32 825.32 204.59 825.58 195.88 Z" />
<path fill="#181918" opacity="1.00" d=" M 998.70 195.86 C 1030.95 195.91 1063.23 196.41 1095.48 195.66 C 1095.68 204.58 1095.93 213.52 1095.63 222.45 C 1065.76 221.64 1035.87 222.04 1006.00 222.00 C 1004.52 222.10 1001.57 222.29 1000.09 222.39 C 999.90 229.51 999.83 236.64 1000.07 243.77 C 1001.55 243.83 1004.51 243.97 1005.99 244.04 C 1027.76 244.02 1049.55 244.25 1071.32 243.68 C 1071.67 251.71 1071.75 259.76 1072.27 267.79 C 1073.71 267.85 1076.59 267.97 1078.03 268.03 C 1083.81 268.07 1089.61 267.83 1095.43 267.63 C 1096.29 292.42 1096.35 317.25 1095.49 342.05 C 1089.64 341.98 1083.81 341.89 1078.00 342.02 C 1076.61 342.10 1073.82 342.25 1072.42 342.33 C 1071.95 350.24 1071.84 358.18 1071.42 366.11 C 1047.18 365.95 1022.94 365.99 998.71 366.05 C 998.30 358.03 998.05 350.02 997.85 342.01 C 994.50 341.98 991.31 342.02 988.00 342.01 C 983.50 342.00 979.05 342.02 974.59 342.03 C 974.32 333.31 974.07 324.59 974.41 315.88 C 982.70 315.91 991.01 315.94 999.32 315.68 C 999.67 323.69 999.75 331.72 1000.27 339.74 C 1001.71 339.81 1004.59 339.95 1006.03 340.02 C 1024.02 340.19 1042.01 339.94 1060.01 340.00 C 1063.26 339.97 1066.68 339.99 1069.99 339.98 C 1070.04 316.66 1070.03 293.34 1069.97 270.02 C 1066.56 269.99 1063.36 270.01 1060.01 270.00 C 1039.57 269.99 1019.14 269.99 998.71 270.04 C 998.30 262.03 998.05 254.02 997.85 246.01 C 994.50 245.99 991.31 246.01 988.00 246.01 C 983.50 246.00 979.05 246.02 974.59 246.03 C 974.32 237.31 974.07 228.58 974.41 219.87 C 978.90 219.90 983.46 219.96 988.00 219.99 C 991.32 220.01 994.50 219.99 997.86 220.01 C 998.05 211.95 998.29 203.90 998.70 195.86 Z" />
<path fill="#181918" opacity="1.00" d=" M 1159.70 401.03 C 1166.44 401.11 1173.20 401.23 1179.98 401.30 C 1179.95 407.84 1179.96 414.38 1179.97 420.93 C 1173.56 421.02 1167.20 421.18 1160.83 421.29 C 1160.15 414.56 1160.01 407.77 1159.70 401.03 Z" />
<path fill="#181918" opacity="1.00" d=" M 420.03 421.02 C 666.68 421.17 913.34 420.62 1159.99 421.30 C 1159.97 427.86 1159.94 434.41 1159.97 440.98 C 1153.31 440.99 1146.64 440.99 1140.02 441.01 C 906.69 441.00 673.36 440.98 440.02 441.02 C 440.00 447.67 440.01 454.34 440.00 461.00 C 439.99 467.64 439.97 474.28 439.97 480.94 C 433.57 481.07 427.16 481.22 420.77 481.36 C 419.33 461.28 420.13 441.13 420.03 421.02 Z" />
<path fill="#181918" opacity="1.00" d=" M 399.71 481.03 C 406.46 481.13 413.22 481.26 419.98 481.36 C 419.97 487.89 419.96 494.40 419.97 500.94 C 413.58 501.07 407.19 501.22 400.81 501.36 C 400.15 494.60 400.03 487.79 399.71 481.03 Z" />
<path fill="#181918" opacity="1.00" d=" M 379.71 501.03 C 386.46 501.13 393.22 501.26 399.98 501.36 C 399.97 507.88 399.96 514.40 399.97 520.94 C 393.58 521.07 387.18 521.22 380.80 521.36 C 380.14 514.60 380.03 507.79 379.71 501.03 Z" />
<path fill="#181918" opacity="1.00" d=" M 300.00 540.98 C 306.65 541.00 313.30 541.00 319.96 541.03 C 320.00 547.69 320.02 554.33 320.06 561.00 L 300.00 561.00 C 300.00 554.32 299.99 547.64 300.00 540.98 Z" />
</g>
<g id="#ffffffff">
<path fill="#ffffff" opacity="1.00" d=" M 58.68 21.06 C 58.68 20.89 58.69 20.55 58.69 20.38 C 74.06 22.29 89.56 21.12 105.00 21.07 C 456.68 20.72 808.36 21.43 1160.04 20.71 C 1160.28 20.71 1160.77 20.72 1161.01 20.72 C 1160.51 27.46 1160.16 34.22 1159.84 40.98 C 1166.55 40.89 1173.28 40.77 1180.03 40.70 C 1180.26 40.70 1180.73 40.71 1180.96 40.71 C 1180.23 51.12 1179.96 61.56 1179.95 72.00 C 1180.03 163.67 1180.01 255.33 1179.97 347.00 C 1180.05 365.10 1179.52 383.23 1180.80 401.30 C 1180.59 401.30 1180.18 401.30 1179.98 401.30 C 1173.20 401.23 1166.44 401.11 1159.70 401.03 C 1160.01 407.77 1160.15 414.56 1160.83 421.29 C 1160.62 421.30 1160.20 421.30 1159.99 421.30 C 913.34 420.62 666.68 421.17 420.03 421.02 C 420.13 441.13 419.33 461.28 420.77 481.36 C 420.57 481.36 420.18 481.36 419.98 481.36 C 413.22 481.26 406.46 481.13 399.71 481.03 C 400.03 487.79 400.15 494.60 400.81 501.36 C 400.60 501.36 400.19 501.36 399.98 501.36 C 393.22 501.26 386.46 501.13 379.71 501.03 C 380.03 507.79 380.14 514.60 380.80 521.36 C 380.60 521.36 380.19 521.36 379.98 521.36 C 366.65 521.14 353.32 520.97 340.00 520.91 C 339.99 507.65 340.00 494.40 340.01 481.14 C 346.66 481.04 353.31 480.95 359.97 480.86 C 360.03 460.91 360.03 440.96 359.98 421.02 C 260.04 420.94 160.09 421.06 60.15 420.97 C 60.05 414.36 59.95 407.75 59.85 401.15 C 53.24 401.05 46.63 400.95 40.03 400.85 C 39.98 280.95 39.99 161.05 40.02 41.14 C 46.34 41.08 52.67 40.99 58.99 40.92 C 58.88 34.30 58.76 27.68 58.68 21.06 M 126.45 72.69 L 127.12 72.71 C 127.09 76.58 127.16 80.44 127.23 84.31 L 126.62 84.33 C 129.46 84.55 135.14 84.98 137.98 85.20 C 138.02 103.74 138.02 122.28 137.99 140.82 C 135.12 141.05 129.38 141.52 126.50 141.75 L 127.13 141.76 C 127.09 145.60 127.13 149.43 127.17 153.28 L 126.49 153.30 C 138.31 154.04 150.16 154.07 162.00 154.07 C 162.00 149.70 161.99 145.33 162.00 140.98 C 157.96 141.03 153.92 141.10 149.88 141.18 C 150.26 122.47 149.60 103.76 150.00 85.05 C 153.99 85.03 157.99 85.01 162.00 84.99 C 162.00 80.64 161.99 76.28 162.00 71.93 C 150.15 71.94 138.28 71.97 126.45 72.69 M 195.50 72.63 L 196.15 72.64 C 195.88 99.58 195.85 126.53 196.22 153.47 L 195.60 153.50 C 211.37 154.28 227.17 154.02 242.95 153.99 C 243.06 149.79 243.18 145.59 243.31 141.40 C 245.98 141.57 251.31 141.91 253.98 142.09 C 254.01 122.90 254.02 103.72 254.04 84.54 C 250.22 84.15 246.35 83.95 242.53 83.72 C 242.76 79.82 242.97 75.92 243.15 72.01 C 227.26 71.95 211.36 71.74 195.50 72.63 M 276.00 72.00 C 276.00 76.00 275.99 80.00 276.00 84.00 C 273.25 84.00 267.76 84.00 265.01 84.00 C 264.97 103.33 264.97 122.66 265.02 142.00 C 267.76 142.00 273.25 142.00 276.00 142.00 C 275.99 146.00 276.00 150.00 276.00 154.00 C 287.99 154.00 299.97 154.00 311.95 154.01 C 312.06 149.80 312.18 145.60 312.31 141.40 C 314.98 141.57 320.31 141.91 322.98 142.09 C 323.01 122.90 323.02 103.72 323.04 84.54 C 319.22 84.15 315.35 83.95 311.53 83.72 C 311.76 79.82 311.98 75.91 312.16 72.01 C 300.10 72.00 288.05 72.00 276.00 72.00 M 333.51 72.55 L 334.16 72.59 C 333.87 99.57 333.84 126.56 334.24 153.54 L 333.60 153.58 C 337.72 153.77 341.85 153.95 345.99 154.10 C 346.03 134.79 345.98 115.49 346.06 96.18 C 348.74 96.03 354.11 95.72 356.79 95.56 C 356.92 98.53 357.18 104.46 357.31 107.43 L 356.68 107.47 C 359.47 107.64 365.04 107.99 367.82 108.16 C 368.05 110.96 368.51 116.57 368.74 119.38 L 368.75 118.73 C 371.56 118.83 377.16 119.02 379.97 119.12 C 379.96 130.59 380.01 142.06 380.23 153.53 L 379.62 153.54 C 383.90 153.52 388.19 153.45 392.48 153.34 L 391.85 153.34 C 392.12 126.39 392.15 99.43 391.78 72.47 L 392.39 72.46 C 388.09 72.48 383.80 72.55 379.53 72.66 L 380.16 72.66 C 379.94 84.05 379.98 95.45 379.95 106.86 C 377.21 106.90 371.73 107.00 368.98 107.05 C 369.02 103.04 369.04 99.02 369.05 95.01 C 366.24 95.04 360.62 95.10 357.81 95.12 L 357.04 95.02 C 356.98 92.30 356.87 86.87 356.81 84.15 C 354.08 84.15 348.61 84.14 345.87 84.14 C 345.94 80.07 345.99 76.00 346.05 71.93 C 341.86 72.12 337.68 72.33 333.51 72.55 M 414.03 71.90 C 414.00 79.55 413.98 87.19 413.97 94.84 C 411.10 95.04 405.35 95.43 402.47 95.63 L 403.12 95.66 C 403.10 99.62 403.14 103.58 403.23 107.54 L 402.58 107.60 C 406.71 107.78 410.84 107.95 414.98 108.10 C 414.97 104.06 414.98 100.03 415.00 96.00 C 417.75 96.00 423.27 96.00 426.03 96.00 C 426.00 88.15 425.93 80.31 425.75 72.46 L 426.40 72.41 C 422.27 72.22 418.15 72.05 414.03 71.90 M 437.54 72.67 L 438.21 72.69 C 438.02 76.58 437.84 80.46 437.70 84.35 C 445.42 84.85 453.15 84.96 460.89 85.10 C 461.46 107.91 460.58 130.73 461.24 153.54 L 460.60 153.58 C 464.72 153.78 468.85 153.95 473.00 154.10 C 473.01 131.11 472.99 108.11 473.00 85.11 C 480.84 84.95 488.68 84.73 496.52 84.33 L 495.88 84.32 C 495.92 80.38 495.83 76.44 495.81 72.51 L 496.45 72.48 C 476.83 71.62 457.15 71.66 437.54 72.67 M 529.50 72.63 L 530.15 72.64 C 529.88 99.58 529.85 126.53 530.22 153.47 L 529.60 153.50 C 545.37 154.28 561.16 154.02 576.95 153.99 C 577.05 149.79 577.17 145.59 577.31 141.40 C 579.98 141.57 585.31 141.91 587.98 142.09 C 588.01 122.90 588.02 103.72 588.04 84.54 C 584.22 84.15 580.34 83.95 576.53 83.72 C 576.76 79.82 576.96 75.92 577.15 72.01 C 561.26 71.95 545.36 71.74 529.50 72.63 M 598.50 72.67 L 599.15 72.69 C 598.89 99.61 598.82 126.53 599.24 153.44 L 598.53 153.48 C 618.17 154.43 637.88 154.30 657.53 153.37 L 656.89 153.34 C 656.91 149.44 656.81 145.52 656.78 141.63 L 657.41 141.60 C 641.95 140.75 626.47 140.97 611.00 140.99 C 610.99 130.00 610.99 119.01 610.99 108.03 C 618.65 108.01 626.32 107.98 634.00 107.96 C 634.00 103.65 633.97 99.34 634.00 95.03 C 626.33 95.00 618.66 94.97 611.00 94.94 C 611.00 92.46 611.00 87.50 611.00 85.02 C 626.51 85.03 642.03 85.22 657.53 84.36 L 656.88 84.34 C 656.92 80.40 656.82 76.45 656.81 72.51 L 657.45 72.48 C 637.81 71.62 618.12 71.66 598.50 72.67 M 668.50 72.63 L 669.15 72.64 C 668.88 99.61 668.83 126.58 669.24 153.54 L 668.60 153.59 C 672.71 153.78 676.84 153.94 680.98 154.09 C 681.00 138.74 680.99 123.38 681.02 108.03 C 692.66 108.01 704.31 107.99 715.96 107.98 C 716.04 103.78 716.15 99.59 716.27 95.40 C 718.95 95.58 724.31 95.93 726.99 96.11 C 727.01 93.21 727.04 87.43 727.06 84.54 C 723.25 84.16 719.36 83.96 715.57 83.73 C 715.80 79.82 716.01 75.92 716.20 72.02 C 700.29 71.95 684.38 71.74 668.50 72.63 M 737.50 72.56 L 738.16 72.60 C 737.89 99.54 737.82 126.50 738.24 153.44 L 737.53 153.48 C 757.17 154.43 776.88 154.30 796.53 153.37 L 795.88 153.34 C 795.92 149.43 795.81 145.50 795.79 141.59 L 796.41 141.56 C 780.95 140.77 765.47 140.98 750.01 140.98 C 749.99 117.96 750.00 94.95 750.00 71.93 C 745.82 72.13 741.65 72.34 737.50 72.56 M 818.00 72.00 C 817.98 76.00 817.98 80.00 818.00 84.00 C 815.25 84.00 809.76 84.00 807.01 84.00 C 806.97 103.33 806.97 122.66 807.02 142.00 C 809.76 142.00 815.25 142.00 818.00 142.00 C 817.98 146.00 817.99 150.00 818.00 154.00 C 829.98 154.00 841.96 154.00 853.95 154.01 C 854.05 149.80 854.17 145.60 854.31 141.40 C 856.98 141.57 862.31 141.91 864.98 142.09 C 865.01 122.90 865.02 103.72 865.04 84.54 C 861.22 84.15 857.32 83.95 853.53 83.72 C 853.75 79.82 853.96 75.91 854.16 72.01 C 842.10 72.00 830.05 72.00 818.00 72.00 M 875.47 72.56 L 876.12 72.60 C 876.11 76.55 876.12 80.49 876.23 84.44 L 875.60 84.48 C 878.41 84.65 884.02 84.99 886.83 85.16 C 887.05 87.97 887.51 93.58 887.73 96.38 L 887.75 95.73 C 890.56 95.83 896.18 96.03 898.99 96.13 C 899.00 115.27 898.87 134.40 899.24 153.54 L 898.60 153.58 C 902.71 153.77 906.84 153.95 910.99 154.10 C 910.95 134.75 911.13 115.39 910.98 96.04 C 914.77 95.95 918.48 95.84 922.31 95.74 L 922.33 96.35 C 922.54 93.55 922.98 87.97 923.20 85.18 C 926.02 84.95 931.67 84.48 934.49 84.24 L 933.87 84.23 C 933.91 80.31 933.79 76.39 933.79 72.47 L 934.39 72.45 C 930.14 72.48 925.90 72.55 921.68 72.67 L 922.34 72.67 C 921.97 76.42 921.54 80.17 921.16 83.92 C 917.67 84.04 914.09 84.16 910.65 84.31 L 910.63 83.69 C 910.43 86.49 910.03 92.08 909.82 94.88 C 906.39 95.04 902.86 95.20 899.48 95.39 C 899.20 91.61 898.94 87.83 898.72 84.05 C 896.04 84.04 890.67 84.01 887.99 84.00 C 888.01 79.97 888.03 75.95 888.05 71.93 C 883.84 72.12 879.65 72.34 875.47 72.56 M 979.00 72.00 C 978.98 76.00 978.98 80.00 979.00 84.00 C 976.25 84.00 970.76 84.00 968.01 84.00 C 967.97 103.33 967.97 122.66 968.02 142.00 C 970.76 142.00 976.25 142.00 979.00 142.00 C 978.98 146.00 978.98 150.00 979.00 154.00 C 990.98 154.00 1002.96 154.00 1014.95 154.01 C 1015.04 149.80 1015.16 145.60 1015.31 141.40 C 1017.98 141.57 1023.31 141.91 1025.98 142.09 C 1026.01 122.90 1026.02 103.72 1026.04 84.54 C 1022.23 84.15 1018.31 83.95 1014.53 83.72 C 1014.75 79.82 1014.96 75.91 1015.16 72.01 C 1003.10 72.00 991.05 72.00 979.00 72.00 M 1037.51 72.55 L 1038.16 72.59 C 1037.86 99.57 1037.84 126.56 1038.24 153.54 L 1037.60 153.58 C 1041.71 153.77 1045.84 153.95 1049.99 154.10 C 1050.02 134.79 1049.98 115.49 1050.06 96.18 C 1052.74 96.03 1058.11 95.72 1060.79 95.56 C 1060.92 98.53 1061.18 104.46 1061.31 107.43 L 1060.68 107.47 C 1063.47 107.64 1069.04 107.99 1071.82 108.16 C 1072.05 110.96 1072.51 116.57 1072.74 119.38 L 1072.75 118.73 C 1075.56 118.83 1081.16 119.02 1083.97 119.12 C 1083.96 130.59 1084.00 142.06 1084.23 153.53 L 1083.62 153.54 C 1087.89 153.52 1092.18 153.45 1096.48 153.34 L 1095.85 153.34 C 1096.11 126.39 1096.15 99.43 1095.78 72.47 L 1096.39 72.46 C 1092.08 72.48 1087.79 72.55 1083.53 72.66 L 1084.16 72.66 C 1083.94 84.05 1083.97 95.45 1083.95 106.86 C 1081.21 106.90 1075.73 107.00 1072.98 107.05 C 1073.00 103.04 1073.02 99.02 1073.05 95.01 C 1070.24 95.04 1064.62 95.10 1061.81 95.12 L 1061.04 95.02 C 1060.98 92.30 1060.87 86.87 1060.81 84.15 C 1058.08 84.15 1052.61 84.14 1049.87 84.14 C 1049.92 80.07 1049.98 76.00 1050.05 71.93 C 1045.85 72.12 1041.67 72.33 1037.51 72.55 M 117.98 199.94 C 117.96 255.29 118.00 310.64 118.03 365.99 C 120.65 366.00 125.88 366.00 128.50 366.00 C 136.81 366.05 145.12 366.16 153.44 366.44 C 156.09 365.52 160.75 365.94 160.02 362.06 C 160.18 331.38 159.89 300.70 159.99 270.02 C 173.87 269.64 187.76 270.03 201.63 270.46 C 203.70 269.96 205.72 269.35 207.72 268.62 C 208.87 260.94 208.13 253.08 207.84 245.36 C 205.74 244.68 203.62 244.11 201.48 243.66 C 187.66 244.26 173.82 244.10 159.99 244.04 C 160.00 236.69 160.00 229.34 160.00 222.00 C 189.87 222.04 219.76 221.64 249.63 222.45 C 251.69 221.96 253.72 221.35 255.72 220.62 C 256.87 212.94 256.12 205.08 255.84 197.36 C 253.74 196.69 251.62 196.13 249.48 195.66 C 209.21 196.31 168.91 196.07 128.63 195.75 C 124.99 196.60 117.41 194.26 117.98 199.94 M 266.98 199.94 C 266.96 255.29 267.00 310.64 267.03 365.99 C 269.65 366.00 274.88 366.00 277.50 366.00 C 285.81 366.05 294.12 366.16 302.44 366.44 C 305.08 365.52 309.75 365.94 309.02 362.06 C 309.18 331.38 308.89 300.69 308.99 270.01 C 326.99 269.73 345.00 270.11 363.01 270.00 C 362.99 302.00 362.97 333.99 363.02 365.99 C 365.68 366.00 370.98 366.02 373.64 366.03 C 381.90 366.03 390.17 366.06 398.44 366.12 C 400.62 365.78 402.81 365.45 405.02 365.13 C 404.88 334.75 405.19 304.36 404.99 273.98 C 407.90 267.83 401.37 269.00 398.43 267.62 C 392.61 267.83 386.80 268.07 380.99 268.03 C 381.00 260.69 381.00 253.35 381.00 246.01 C 386.87 246.09 392.75 246.24 398.63 246.45 C 400.69 245.96 402.72 245.35 404.72 244.62 C 405.87 236.94 405.12 229.08 404.83 221.37 C 402.73 220.67 400.62 220.08 398.48 219.62 C 392.66 219.83 386.84 220.07 381.03 220.03 C 381.09 212.46 381.23 204.89 380.80 197.34 C 378.66 196.67 376.50 196.11 374.32 195.68 C 342.10 196.32 309.86 196.05 277.63 195.75 C 273.99 196.60 266.41 194.26 266.98 199.94 M 415.93 196.73 C 415.97 205.15 416.00 213.57 416.02 221.99 C 418.62 222.00 423.82 222.02 426.42 222.03 C 430.95 222.02 435.46 222.00 440.01 222.01 C 439.99 261.33 439.99 300.65 440.01 339.98 C 435.47 339.95 430.93 339.90 426.41 339.87 C 422.92 340.12 419.41 340.41 415.94 340.73 C 415.98 349.15 416.00 357.56 416.01 365.98 C 418.66 366.00 423.95 366.03 426.60 366.05 C 450.94 366.12 475.29 365.61 499.63 366.45 C 501.68 365.95 503.71 365.34 505.72 364.62 C 506.87 356.94 506.12 349.08 505.83 341.37 C 503.73 340.66 501.61 340.08 499.48 339.62 C 493.64 339.83 487.81 340.06 481.99 340.03 C 482.02 300.69 482.00 261.35 481.99 222.01 C 487.87 222.09 493.74 222.24 499.63 222.45 C 501.68 221.96 503.71 221.35 505.72 220.62 C 506.87 212.94 506.12 205.08 505.83 197.38 C 503.73 196.65 501.61 196.06 499.48 195.58 C 475.18 196.34 450.88 195.96 426.58 195.86 C 423.03 196.12 419.47 196.40 415.93 196.73 M 516.98 199.94 C 516.96 255.29 517.00 310.64 517.03 365.99 C 519.65 366.00 524.88 366.02 527.50 366.04 C 559.80 366.01 592.11 365.91 624.42 366.11 C 626.60 365.77 628.80 365.45 631.02 365.14 C 631.01 357.42 631.00 349.71 631.00 342.00 C 636.81 341.92 642.61 342.16 648.44 342.37 C 651.37 340.98 657.90 342.17 654.99 336.02 C 655.05 299.34 655.05 262.66 654.99 225.98 C 657.89 219.83 651.37 221.01 648.44 219.63 C 642.62 219.83 636.82 220.07 631.03 220.03 C 631.09 212.46 631.23 204.89 630.80 197.34 C 628.65 196.67 626.49 196.11 624.32 195.68 C 592.10 196.32 559.85 196.05 527.63 195.75 C 523.98 196.60 516.41 194.26 516.98 199.94 M 689.97 196.76 C 689.97 204.50 689.98 212.24 690.00 219.99 C 685.49 219.96 680.96 219.90 676.48 219.87 C 672.97 220.12 669.44 220.41 665.96 220.73 C 666.05 269.15 665.95 317.57 666.02 365.99 C 668.68 366.00 673.99 366.00 676.64 366.00 C 684.90 366.05 693.16 366.16 701.44 366.44 C 704.05 365.52 708.76 365.95 708.02 362.06 C 708.18 331.38 707.89 300.69 707.99 270.01 C 725.99 269.73 744.00 270.11 762.01 270.00 C 761.99 302.00 761.97 334.00 762.02 365.99 C 764.68 366.00 769.98 366.00 772.64 366.00 C 780.94 366.04 789.25 366.16 797.57 366.45 C 800.16 365.56 804.75 365.88 804.02 362.05 C 804.02 316.70 804.04 271.33 803.99 225.98 C 806.89 219.83 800.36 221.01 797.43 219.63 C 791.62 219.83 785.82 220.07 780.03 220.03 C 780.09 212.46 780.22 204.90 779.80 197.35 C 777.65 196.65 775.49 196.07 773.32 195.59 C 749.12 196.34 724.90 195.97 700.70 195.86 C 697.12 196.11 693.52 196.42 689.97 196.76 M 814.93 196.73 C 814.97 205.15 814.99 213.56 815.02 221.99 C 817.62 222.00 822.82 222.02 825.42 222.03 C 829.94 222.02 834.45 222.01 839.00 222.01 C 838.98 230.00 838.98 237.99 839.01 245.99 C 841.68 246.00 847.03 246.02 849.71 246.03 C 854.13 246.02 858.54 246.00 863.01 246.01 C 862.99 286.00 862.97 326.00 863.02 365.99 C 865.68 366.00 870.99 366.00 873.64 366.01 C 881.94 366.04 890.25 366.15 898.57 366.44 C 900.51 365.29 905.21 366.19 904.94 363.01 C 905.22 324.02 904.88 285.02 904.99 246.02 C 910.79 246.03 916.60 246.06 922.43 246.10 C 924.60 245.77 926.79 245.45 929.02 245.14 C 929.00 237.43 929.00 229.71 929.00 222.00 C 934.87 221.94 940.74 222.17 946.63 222.40 C 948.67 221.93 950.70 221.33 952.72 220.62 C 953.86 212.94 953.11 205.08 952.84 197.36 C 950.72 196.69 948.60 196.13 946.48 195.66 C 938.16 195.95 929.83 195.91 921.53 195.88 C 918.01 196.12 914.45 196.43 910.97 196.76 C 910.97 204.49 910.97 212.23 911.01 219.98 C 906.50 219.96 901.99 219.90 897.53 219.87 C 894.01 220.13 890.45 220.43 886.97 220.76 C 886.97 228.53 886.97 236.30 887.00 244.08 C 885.00 244.09 883.01 244.09 881.03 244.01 C 881.09 236.45 881.22 228.89 880.81 221.35 C 878.65 220.65 876.49 220.08 874.32 219.63 C 868.54 219.83 862.78 220.07 857.03 220.03 C 857.09 212.46 857.22 204.89 856.80 197.34 C 854.64 196.67 852.48 196.12 850.32 195.68 C 842.07 195.95 833.81 195.92 825.58 195.88 C 822.03 196.12 818.45 196.40 814.93 196.73 M 987.97 196.76 C 987.97 204.50 987.98 212.24 988.00 219.99 C 983.46 219.96 978.90 219.90 974.41 219.87 C 970.92 220.12 967.39 220.42 963.94 220.74 C 963.97 229.15 963.99 237.57 964.01 245.99 C 966.66 246.00 971.95 246.02 974.59 246.03 C 979.05 246.02 983.50 246.00 988.00 246.01 C 987.98 254.00 987.98 261.99 988.01 269.99 C 990.68 270.00 996.03 270.02 998.71 270.04 C 1019.14 269.99 1039.57 269.99 1060.01 270.00 C 1059.97 293.33 1059.98 316.66 1060.01 340.00 C 1042.01 339.94 1024.02 340.19 1006.03 340.02 C 1006.09 332.46 1006.22 324.89 1005.80 317.34 C 1003.64 316.67 1001.48 316.11 999.32 315.68 C 991.01 315.94 982.70 315.91 974.41 315.88 C 970.92 316.12 967.39 316.41 963.94 316.73 C 963.97 325.15 963.99 333.57 964.02 341.99 C 966.66 342.00 971.95 342.02 974.59 342.03 C 979.05 342.02 983.50 342.00 988.00 342.01 C 987.98 350.00 987.98 357.99 988.01 365.99 C 990.69 366.00 996.03 366.03 998.71 366.05 C 1022.94 365.99 1047.18 365.95 1071.42 366.11 C 1073.59 365.77 1075.79 365.45 1078.02 365.14 C 1078.00 357.43 1078.00 349.72 1078.00 342.02 C 1083.81 341.89 1089.64 341.98 1095.49 342.05 C 1097.63 341.73 1099.80 341.44 1102.01 341.15 C 1101.74 317.22 1102.53 293.27 1101.78 269.35 C 1099.65 268.67 1097.54 268.10 1095.43 267.63 C 1089.61 267.83 1083.81 268.07 1078.03 268.03 C 1078.08 260.46 1078.22 252.89 1077.80 245.34 C 1075.64 244.67 1073.48 244.11 1071.32 243.68 C 1049.55 244.25 1027.76 244.02 1005.99 244.04 C 1005.99 236.69 1005.99 229.34 1006.00 222.00 C 1035.87 222.04 1065.76 221.64 1095.63 222.45 C 1097.67 221.96 1099.69 221.35 1101.72 220.62 C 1102.86 212.94 1102.11 205.08 1101.84 197.36 C 1099.71 196.69 1097.60 196.12 1095.48 195.66 C 1063.23 196.41 1030.95 195.91 998.70 195.86 C 995.12 196.11 991.51 196.42 987.97 196.76 Z" />
<path fill="#ffffff" opacity="1.00" d=" M 208.01 84.99 C 219.48 84.99 230.95 85.04 242.42 85.22 C 241.56 103.90 242.14 122.62 241.88 141.31 C 230.60 140.85 219.30 141.00 208.02 140.93 C 207.97 122.28 207.97 103.64 208.01 84.99 Z" />
<path fill="#ffffff" opacity="1.00" d=" M 277.01 84.99 C 288.48 84.99 299.95 85.04 311.42 85.22 C 310.57 103.90 311.13 122.62 310.88 141.31 C 299.60 140.85 288.30 141.00 277.02 140.93 C 276.97 122.28 276.97 103.64 277.01 84.99 Z" />
<path fill="#ffffff" opacity="1.00" d=" M 542.01 84.99 C 553.47 84.99 564.95 85.04 576.42 85.22 C 575.56 103.90 576.13 122.62 575.88 141.31 C 564.60 140.85 553.30 141.00 542.02 140.93 C 541.97 122.28 541.97 103.64 542.01 84.99 Z" />
<path fill="#ffffff" opacity="1.00" d=" M 681.77 85.40 C 692.94 84.26 704.24 85.10 715.46 85.19 C 715.21 88.57 714.94 91.93 714.77 95.31 C 703.13 94.85 691.48 94.99 679.84 94.79 C 680.32 92.45 681.29 87.75 681.77 85.40 Z" />
<path fill="#ffffff" opacity="1.00" d=" M 819.01 84.99 C 830.47 84.99 841.94 85.04 853.42 85.22 C 852.56 103.90 853.13 122.62 852.88 141.31 C 841.60 140.85 830.30 141.00 819.02 140.93 C 818.97 122.28 818.96 103.64 819.01 84.99 Z" />
<path fill="#ffffff" opacity="1.00" d=" M 980.01 84.99 C 991.47 84.99 1002.94 85.04 1014.42 85.22 C 1013.56 103.90 1014.13 122.62 1013.88 141.31 C 1002.59 140.85 991.30 141.00 980.02 140.93 C 979.96 122.28 979.96 103.64 980.01 84.99 Z" />
<path fill="#ffffff" opacity="1.00" d=" M 309.00 222.01 C 327.00 221.97 345.00 221.97 363.00 222.01 C 363.00 229.33 363.00 236.66 363.00 243.99 C 345.00 244.03 327.00 244.02 309.00 243.99 C 309.00 236.66 309.00 229.33 309.00 222.01 Z" />
<path fill="#ffffff" opacity="1.00" d=" M 559.00 222.01 C 577.00 221.97 595.00 221.97 613.00 222.01 C 613.00 261.34 613.00 300.66 613.00 339.99 C 595.00 340.03 577.00 340.02 559.00 339.99 C 559.00 300.66 559.00 261.34 559.00 222.01 Z" />
<path fill="#ffffff" opacity="1.00" d=" M 708.00 222.01 C 726.00 221.97 744.00 221.97 762.00 222.01 C 761.99 229.33 761.99 236.66 762.00 243.99 C 744.00 244.03 726.00 244.02 708.00 243.99 C 707.99 236.66 707.99 229.33 708.00 222.01 Z" />
</g>
<g id="#c1c1c1ff">
<path fill="#c1c1c1" opacity="1.00" d=" M 0.00 61.00 C 6.66 61.00 13.33 61.00 19.99 61.00 C 20.02 174.29 19.97 287.58 20.01 400.88 C 26.59 401.03 33.17 401.19 39.74 401.39 C 39.94 407.88 40.03 414.37 40.15 420.88 C 46.68 421.02 53.20 421.20 59.73 421.39 C 59.96 427.92 60.07 434.43 60.22 440.97 C 153.48 441.05 246.75 440.95 340.02 441.01 C 340.02 454.23 339.99 467.46 339.73 480.68 C 333.22 480.96 326.71 481.17 320.21 481.44 C 319.83 501.22 319.84 521.01 320.29 540.79 C 333.53 541.03 346.76 541.04 360.00 541.03 C 359.99 547.67 360.00 554.34 360.00 561.00 L 320.06 561.00 C 320.02 554.33 320.00 547.69 319.96 541.03 C 313.30 541.00 306.65 541.00 300.00 540.98 C 299.99 521.01 299.98 501.05 300.02 481.08 C 306.67 481.01 313.33 480.94 319.99 480.87 C 319.99 474.25 319.99 467.63 320.00 461.02 C 226.72 460.94 133.43 461.07 40.15 460.97 C 40.05 454.36 39.94 447.76 39.84 441.16 C 33.28 441.05 26.72 440.94 20.16 440.84 C 20.05 434.25 19.95 427.66 19.85 421.08 C 13.23 421.03 6.62 421.00 0.00 420.96 L 0.00 61.00 Z" />
<path fill="#c1c1c1" opacity="1.00" d=" M 126.45 72.69 C 138.28 71.97 150.15 71.94 162.00 71.93 C 161.99 76.28 162.00 80.64 162.00 84.99 C 157.99 85.01 153.99 85.03 150.00 85.05 C 153.61 84.44 157.24 83.88 160.88 83.37 C 160.91 80.80 160.98 75.66 161.02 73.09 C 149.72 73.02 138.41 73.04 127.12 72.71 L 126.45 72.69 Z" />
<path fill="#c1c1c1" opacity="1.00" d=" M 195.50 72.63 C 211.36 71.74 227.26 71.95 243.15 72.01 C 242.97 75.92 242.76 79.82 242.53 83.72 C 242.50 84.10 242.45 84.85 242.42 85.22 C 230.95 85.04 219.48 84.99 208.01 84.99 C 207.97 103.64 207.97 122.28 208.02 140.93 C 219.30 141.00 230.60 140.85 241.88 141.31 C 242.24 141.33 242.95 141.38 243.31 141.40 C 243.18 145.59 243.06 149.79 242.95 153.99 C 227.17 154.02 211.37 154.28 195.60 153.50 L 196.22 153.47 C 211.47 152.90 226.74 152.96 242.00 152.94 C 242.00 150.22 242.00 144.77 242.00 142.05 C 230.34 142.01 218.68 141.97 207.02 141.94 C 206.97 122.64 206.96 103.34 207.02 84.04 C 218.68 84.01 230.33 83.98 242.00 83.94 C 242.00 81.22 242.00 75.76 242.00 73.04 C 226.71 73.03 211.43 73.07 196.15 72.64 L 195.50 72.63 Z" />
<path fill="#c1c1c1" opacity="1.00" d=" M 276.00 72.00 C 288.05 72.00 300.10 72.00 312.16 72.01 C 311.98 75.91 311.76 79.82 311.53 83.72 C 311.50 84.10 311.45 84.85 311.42 85.22 C 299.95 85.04 288.48 84.99 277.01 84.99 C 276.97 103.64 276.97 122.28 277.02 140.93 C 288.30 141.00 299.60 140.85 310.88 141.31 C 311.24 141.33 311.95 141.38 312.31 141.40 C 312.18 145.60 312.06 149.80 311.95 154.01 C 299.97 154.00 287.99 154.00 276.00 154.00 C 276.00 150.00 275.99 146.00 276.00 142.00 C 275.99 122.67 276.00 103.33 276.00 84.00 C 275.99 80.00 276.00 76.00 276.00 72.00 M 277.00 73.00 C 277.00 75.75 277.00 81.25 277.00 84.00 C 288.33 84.00 299.66 84.00 311.00 84.00 C 311.00 81.25 311.00 75.75 311.00 73.00 C 299.66 73.00 288.33 73.00 277.00 73.00 M 277.00 142.00 C 277.00 144.75 277.00 150.25 277.00 153.00 C 288.33 153.00 299.66 153.00 311.00 153.00 C 311.00 150.25 311.00 144.75 311.00 142.00 C 299.66 142.00 288.33 142.00 277.00 142.00 Z" />
<path fill="#c1c1c1" opacity="1.00" d=" M 333.51 72.55 C 337.68 72.33 341.86 72.12 346.05 71.93 C 345.99 76.00 345.94 80.07 345.87 84.14 C 345.45 80.51 345.05 76.88 344.65 73.25 C 342.03 73.09 336.79 72.76 334.16 72.59 L 333.51 72.55 Z" />
<path fill="#c1c1c1" opacity="1.00" d=" M 379.53 72.66 C 383.80 72.55 388.09 72.48 392.39 72.46 L 391.78 72.47 C 387.89 72.55 384.02 72.61 380.16 72.66 L 379.53 72.66 Z" />
<path fill="#c1c1c1" opacity="1.00" d=" M 414.03 71.90 C 418.15 72.05 422.27 72.22 426.40 72.41 L 425.75 72.46 C 423.08 72.67 417.73 73.10 415.05 73.31 C 415.02 80.87 415.00 88.44 415.00 96.00 C 414.98 100.03 414.97 104.06 414.98 108.10 C 410.84 107.95 406.71 107.78 402.58 107.60 L 403.23 107.54 C 405.91 107.32 411.28 106.89 413.96 106.68 C 413.97 104.05 413.99 98.79 414.00 96.16 C 411.28 96.04 405.84 95.79 403.12 95.66 L 402.47 95.63 C 405.35 95.43 411.10 95.04 413.97 94.84 C 413.98 87.19 414.00 79.55 414.03 71.90 Z" />
<path fill="#c1c1c1" opacity="1.00" d=" M 437.54 72.67 C 457.15 71.66 476.83 71.62 496.45 72.48 L 495.81 72.51 C 476.61 73.27 457.40 73.18 438.21 72.69 L 437.54 72.67 Z" />
<path fill="#c1c1c1" opacity="1.00" d=" M 529.50 72.63 C 545.36 71.74 561.26 71.95 577.15 72.01 C 576.96 75.92 576.76 79.82 576.53 83.72 C 576.50 84.10 576.45 84.85 576.42 85.22 C 564.95 85.04 553.47 84.99 542.01 84.99 C 541.97 103.64 541.97 122.28 542.02 140.93 C 553.30 141.00 564.60 140.85 575.88 141.31 C 576.24 141.33 576.95 141.38 577.31 141.40 C 577.17 145.59 577.05 149.79 576.95 153.99 C 561.16 154.02 545.37 154.28 529.60 153.50 L 530.22 153.47 C 545.47 152.90 560.73 152.96 576.00 152.94 C 576.00 150.22 576.00 144.77 576.00 142.05 C 564.33 142.01 552.68 141.97 541.02 141.94 C 540.97 122.64 540.96 103.34 541.02 84.04 C 552.67 84.01 564.33 83.98 576.00 83.94 C 576.00 81.22 576.00 75.76 576.00 73.04 C 560.71 73.03 545.42 73.07 530.15 72.64 L 529.50 72.63 Z" />
<path fill="#c1c1c1" opacity="1.00" d=" M 598.50 72.67 C 618.12 71.66 637.81 71.62 657.45 72.48 L 656.81 72.51 C 637.59 73.26 618.36 73.18 599.15 72.69 L 598.50 72.67 Z" />
<path fill="#c1c1c1" opacity="1.00" d=" M 668.50 72.63 C 684.38 71.74 700.29 71.95 716.20 72.02 C 716.01 75.92 715.80 79.82 715.57 83.73 C 715.54 84.09 715.49 84.83 715.46 85.19 C 704.24 85.10 692.94 84.26 681.77 85.40 C 681.29 87.75 680.32 92.45 679.84 94.79 C 691.48 94.99 703.13 94.85 714.77 95.31 C 715.15 95.33 715.90 95.38 716.27 95.40 C 716.15 99.59 716.04 103.78 715.96 107.98 C 704.31 107.99 692.66 108.01 681.02 108.03 C 680.99 123.38 681.00 138.74 680.98 154.09 C 676.84 153.94 672.71 153.78 668.60 153.59 L 669.24 153.54 C 671.92 153.33 677.27 152.90 679.95 152.69 C 679.96 137.47 680.02 122.26 680.03 107.05 C 691.68 107.01 703.34 106.98 715.00 106.94 C 715.00 104.22 715.00 98.77 715.00 96.05 C 703.32 96.01 691.66 95.97 680.00 95.94 C 679.99 91.97 679.99 88.01 680.00 84.04 C 691.66 84.01 703.33 83.98 715.00 83.94 C 715.00 81.22 715.00 75.76 715.00 73.04 C 699.71 73.03 684.42 73.07 669.15 72.64 L 668.50 72.63 Z" />
<path fill="#c1c1c1" opacity="1.00" d=" M 737.50 72.56 C 741.65 72.34 745.82 72.13 750.00 71.93 C 750.00 94.95 749.99 117.96 750.01 140.98 C 765.47 140.98 780.95 140.77 796.41 141.56 L 795.79 141.59 C 780.20 142.13 764.60 142.03 749.01 142.00 C 749.01 119.05 748.99 96.10 748.99 73.15 C 746.28 73.01 740.86 72.74 738.16 72.60 L 737.50 72.56 Z" />
<path fill="#c1c1c1" opacity="1.00" d=" M 818.00 72.00 C 830.05 72.00 842.10 72.00 854.16 72.01 C 853.96 75.91 853.75 79.82 853.53 83.72 C 853.50 84.10 853.45 84.85 853.42 85.22 C 841.94 85.04 830.47 84.99 819.01 84.99 C 818.96 103.64 818.97 122.28 819.02 140.93 C 830.30 141.00 841.60 140.85 852.88 141.31 C 853.24 141.33 853.95 141.38 854.31 141.40 C 854.17 145.60 854.05 149.80 853.95 154.01 C 841.96 154.00 829.98 154.00 818.00 154.00 C 817.99 150.00 817.98 146.00 818.00 142.00 C 817.99 122.67 817.99 103.33 818.00 84.00 C 817.98 80.00 817.98 76.00 818.00 72.00 M 819.00 73.00 C 819.00 75.75 819.00 81.25 819.00 84.00 C 830.33 84.00 841.66 84.00 853.00 84.00 C 853.00 81.25 853.00 75.75 853.00 73.00 C 841.66 73.00 830.32 73.00 819.00 73.00 M 819.00 142.00 C 819.00 144.75 819.00 150.25 819.00 153.00 C 830.33 153.00 841.66 153.00 853.00 153.00 C 853.00 150.25 853.00 144.75 853.00 142.00 C 841.66 142.00 830.32 142.00 819.00 142.00 Z" />
<path fill="#c1c1c1" opacity="1.00" d=" M 875.47 72.56 C 879.65 72.34 883.84 72.12 888.05 71.93 C 888.03 75.95 888.01 79.97 887.99 84.00 C 887.91 87.91 887.82 91.82 887.75 95.73 L 887.73 96.38 C 887.51 93.58 887.05 87.97 886.83 85.16 C 884.02 84.99 878.41 84.65 875.60 84.48 L 876.23 84.44 C 878.91 84.26 884.29 83.90 886.97 83.71 C 886.98 81.08 886.99 75.81 887.00 73.18 C 884.28 73.04 878.84 72.74 876.12 72.60 L 875.47 72.56 Z" />
<path fill="#c1c1c1" opacity="1.00" d=" M 921.68 72.67 C 925.90 72.55 930.14 72.48 934.39 72.45 L 933.79 72.47 C 929.95 72.55 926.13 72.62 922.34 72.67 L 921.68 72.67 Z" />
<path fill="#c1c1c1" opacity="1.00" d=" M 979.00 72.00 C 991.05 72.00 1003.10 72.00 1015.16 72.01 C 1014.96 75.91 1014.75 79.82 1014.53 83.72 C 1014.50 84.10 1014.45 84.85 1014.42 85.22 C 1002.94 85.04 991.47 84.99 980.01 84.99 C 979.96 103.64 979.96 122.28 980.02 140.93 C 991.30 141.00 1002.59 140.85 1013.88 141.31 C 1014.24 141.33 1014.95 141.38 1015.31 141.40 C 1015.16 145.60 1015.04 149.80 1014.95 154.01 C 1002.96 154.00 990.98 154.00 979.00 154.00 C 978.98 150.00 978.98 146.00 979.00 142.00 C 978.99 122.67 978.99 103.33 979.00 84.00 C 978.98 80.00 978.98 76.00 979.00 72.00 M 980.00 73.00 C 980.00 75.75 980.00 81.25 980.00 84.00 C 991.33 84.00 1002.66 84.00 1014.00 84.00 C 1014.00 81.25 1014.00 75.75 1014.00 73.00 C 1002.66 73.00 991.32 73.00 980.00 73.00 M 980.00 142.00 C 980.00 144.75 980.00 150.25 980.00 153.00 C 991.33 153.00 1002.66 153.00 1014.00 153.00 C 1014.00 150.25 1014.00 144.75 1014.00 142.00 C 1002.66 142.00 991.32 142.00 980.00 142.00 Z" />
<path fill="#c1c1c1" opacity="1.00" d=" M 1037.51 72.55 C 1041.67 72.33 1045.85 72.12 1050.05 71.93 C 1049.98 76.00 1049.92 80.07 1049.87 84.14 C 1049.43 80.51 1049.03 76.88 1048.65 73.25 C 1046.03 73.09 1040.79 72.76 1038.16 72.59 L 1037.51 72.55 Z" />
<path fill="#c1c1c1" opacity="1.00" d=" M 1083.53 72.66 C 1087.79 72.55 1092.08 72.48 1096.39 72.46 L 1095.78 72.47 C 1091.88 72.55 1088.00 72.61 1084.16 72.66 L 1083.53 72.66 Z" />
<path fill="#c1c1c1" opacity="1.00" d=" M 127.23 84.31 C 131.14 84.17 135.06 84.05 138.98 83.95 C 139.03 103.29 139.04 122.62 138.98 141.96 C 135.03 141.90 131.08 141.83 127.13 141.76 L 126.50 141.75 C 129.38 141.52 135.12 141.05 137.99 140.82 C 138.02 122.28 138.02 103.74 137.98 85.20 C 135.14 84.98 129.46 84.55 126.62 84.33 L 127.23 84.31 Z" />
<path fill="#c1c1c1" opacity="1.00" d=" M 437.70 84.35 C 445.39 84.08 453.08 84.00 460.79 84.16 L 460.89 85.10 C 453.15 84.96 445.42 84.85 437.70 84.35 Z" />
<path fill="#c1c1c1" opacity="1.00" d=" M 472.00 83.97 C 479.96 84.05 487.91 84.13 495.88 84.32 L 496.52 84.33 C 488.68 84.73 480.84 84.95 473.00 85.11 C 472.99 108.11 473.01 131.11 473.00 154.10 C 468.85 153.95 464.72 153.78 460.60 153.58 L 461.24 153.54 C 463.92 153.35 469.29 152.98 471.98 152.80 C 472.00 129.85 472.01 106.91 472.00 83.97 Z" />
<path fill="#c1c1c1" opacity="1.00" d=" M 610.00 84.00 C 625.62 83.98 641.25 83.90 656.88 84.34 L 657.53 84.36 C 642.03 85.22 626.51 85.03 611.00 85.02 C 611.00 87.50 611.00 92.46 611.00 94.94 C 618.66 94.97 626.33 95.00 634.00 95.03 C 633.97 99.34 634.00 103.65 634.00 107.96 C 626.32 107.98 618.65 108.01 610.99 108.03 C 610.99 119.01 610.99 130.00 611.00 140.99 C 626.47 140.97 641.95 140.75 657.41 141.60 L 656.78 141.63 C 641.19 142.16 625.60 142.00 610.01 142.01 C 609.98 130.36 609.98 118.71 610.00 107.06 C 617.66 107.02 625.32 106.96 633.00 106.92 C 633.00 104.20 633.00 98.77 633.00 96.06 C 625.33 96.03 617.66 95.96 610.00 95.93 C 609.99 91.95 609.99 87.98 610.00 84.00 Z" />
<path fill="#c1c1c1" opacity="1.00" d=" M 910.63 83.69 L 910.65 84.31 C 910.75 88.22 910.86 92.13 910.98 96.04 C 911.13 115.39 910.95 134.75 910.99 154.10 C 906.84 153.95 902.71 153.77 898.60 153.58 L 899.24 153.54 C 901.92 153.35 907.29 152.99 909.98 152.80 C 910.03 133.99 910.03 115.18 909.93 96.37 C 907.32 96.13 902.09 95.64 899.48 95.39 C 902.86 95.20 906.39 95.04 909.82 94.88 C 910.03 92.08 910.43 86.49 910.63 83.69 Z" />
<path fill="#c1c1c1" opacity="1.00" d=" M 921.98 84.05 C 925.92 84.10 929.89 84.16 933.87 84.23 L 934.49 84.24 C 931.67 84.48 926.02 84.95 923.20 85.18 C 922.98 87.97 922.54 93.55 922.33 96.35 L 922.31 95.74 C 922.16 91.84 922.05 87.95 921.98 84.05 Z" />
<path fill="#c1c1c1" opacity="1.00" d=" M 357.81 95.12 C 360.62 95.10 366.24 95.04 369.05 95.01 C 369.04 99.02 369.02 103.04 368.98 107.05 C 368.91 110.94 368.84 114.83 368.75 118.73 L 368.74 119.38 C 368.51 116.57 368.05 110.96 367.82 108.16 C 365.04 107.99 359.47 107.64 356.68 107.47 L 357.31 107.43 C 359.99 107.27 365.33 106.95 368.00 106.78 C 367.97 104.20 367.90 99.04 367.86 96.46 C 365.35 96.13 360.33 95.46 357.81 95.12 Z" />
<path fill="#c1c1c1" opacity="1.00" d=" M 1061.81 95.12 C 1064.62 95.10 1070.24 95.04 1073.05 95.01 C 1073.02 99.02 1073.00 103.04 1072.98 107.05 C 1072.90 110.94 1072.82 114.83 1072.75 118.73 L 1072.74 119.38 C 1072.51 116.57 1072.05 110.96 1071.82 108.16 C 1069.04 107.99 1063.47 107.64 1060.68 107.47 L 1061.31 107.43 C 1063.99 107.27 1069.33 106.95 1072.00 106.78 C 1071.97 104.20 1071.90 99.04 1071.86 96.46 C 1069.35 96.13 1064.33 95.46 1061.81 95.12 Z" />
<path fill="#c1c1c1" opacity="1.00" d=" M 345.17 96.29 L 346.06 96.18 C 345.98 115.49 346.03 134.79 345.99 154.10 C 341.85 153.95 337.72 153.77 333.60 153.58 L 334.24 153.54 C 336.92 153.35 342.29 152.99 344.98 152.80 C 345.07 133.96 344.70 115.12 345.17 96.29 Z" />
<path fill="#c1c1c1" opacity="1.00" d=" M 1049.17 96.29 L 1050.06 96.18 C 1049.98 115.49 1050.02 134.79 1049.99 154.10 C 1045.84 153.95 1041.71 153.77 1037.60 153.58 L 1038.24 153.54 C 1040.92 153.35 1046.29 152.99 1048.98 152.80 C 1049.07 133.96 1048.69 115.12 1049.17 96.29 Z" />
<path fill="#c1c1c1" opacity="1.00" d=" M 149.88 141.18 C 153.92 141.10 157.96 141.03 162.00 140.98 C 161.99 145.33 162.00 149.70 162.00 154.07 C 150.16 154.07 138.31 154.04 126.49 153.30 L 127.17 153.28 C 138.45 152.96 149.73 152.98 161.01 152.92 C 160.99 150.27 160.95 144.97 160.93 142.33 C 157.24 141.95 153.56 141.56 149.88 141.18 Z" />
<path fill="#c1c1c1" opacity="1.00" d=" M 380.23 153.53 C 384.09 153.45 387.97 153.38 391.85 153.34 L 392.48 153.34 C 388.19 153.45 383.90 153.52 379.62 153.54 L 380.23 153.53 Z" />
<path fill="#c1c1c1" opacity="1.00" d=" M 599.24 153.44 C 618.44 152.72 637.67 152.83 656.89 153.34 L 657.53 153.37 C 637.88 154.30 618.17 154.43 598.53 153.48 L 599.24 153.44 Z" />
<path fill="#c1c1c1" opacity="1.00" d=" M 738.24 153.44 C 757.44 152.72 776.67 152.83 795.88 153.34 L 796.53 153.37 C 776.88 154.30 757.17 154.43 737.53 153.48 L 738.24 153.44 Z" />
<path fill="#c1c1c1" opacity="1.00" d=" M 1084.23 153.53 C 1088.08 153.45 1091.95 153.38 1095.85 153.34 L 1096.48 153.34 C 1092.18 153.45 1087.89 153.52 1083.62 153.54 L 1084.23 153.53 Z" />
<path fill="#c1c1c1" opacity="1.00" d=" M 440.02 441.02 C 673.36 440.98 906.69 441.00 1140.02 441.01 C 1140.00 447.67 1139.95 454.31 1139.97 460.98 C 906.64 461.02 673.32 460.99 440.00 461.00 C 440.01 454.34 440.00 447.67 440.02 441.02 Z" />
</g>
<g id="#f8413aff">
<path fill="#f8413a" opacity="1.00" d=" M 117.98 199.94 C 117.41 194.26 124.99 196.60 128.63 195.75 C 127.53 252.48 127.72 309.27 128.50 366.00 C 125.88 366.00 120.65 366.00 118.03 365.99 C 118.00 310.64 117.96 255.29 117.98 199.94 Z" />
<path fill="#f8413a" opacity="1.00" d=" M 266.98 199.94 C 266.41 194.26 273.99 196.60 277.63 195.75 C 276.52 252.48 276.72 309.27 277.50 366.00 C 274.88 366.00 269.65 366.00 267.03 365.99 C 267.00 310.64 266.96 255.29 266.98 199.94 Z" />
<path fill="#f8413a" opacity="1.00" d=" M 415.93 196.73 C 419.47 196.40 423.03 196.12 426.58 195.86 C 426.32 204.58 426.08 213.31 426.42 222.03 C 423.82 222.02 418.62 222.00 416.02 221.99 C 416.00 213.57 415.97 205.15 415.93 196.73 Z" />
<path fill="#f8413a" opacity="1.00" d=" M 516.98 199.94 C 516.41 194.26 523.98 196.60 527.63 195.75 C 526.52 252.49 526.72 309.29 527.50 366.04 C 524.88 366.02 519.65 366.00 517.03 365.99 C 517.00 310.64 516.96 255.29 516.98 199.94 Z" />
<path fill="#f8413a" opacity="1.00" d=" M 689.97 196.76 C 693.52 196.42 697.12 196.11 700.70 195.86 C 700.29 203.90 700.05 211.95 699.86 220.01 C 696.52 219.99 693.31 220.01 690.00 219.99 C 689.98 212.24 689.97 204.50 689.97 196.76 Z" />
<path fill="#f8413a" opacity="1.00" d=" M 814.93 196.73 C 818.45 196.40 822.03 196.12 825.58 195.88 C 825.32 204.59 825.08 213.32 825.42 222.03 C 822.82 222.02 817.62 222.00 815.02 221.99 C 814.99 213.56 814.97 205.15 814.93 196.73 Z" />
<path fill="#f8413a" opacity="1.00" d=" M 910.97 196.76 C 914.45 196.43 918.01 196.12 921.53 195.88 C 921.11 203.91 921.01 211.95 920.85 220.00 C 917.58 219.99 914.22 219.97 911.01 219.98 C 910.97 212.23 910.97 204.49 910.97 196.76 Z" />
<path fill="#f8413a" opacity="1.00" d=" M 987.97 196.76 C 991.51 196.42 995.12 196.11 998.70 195.86 C 998.29 203.90 998.05 211.95 997.86 220.01 C 994.50 219.99 991.32 220.01 988.00 219.99 C 987.98 212.24 987.97 204.50 987.97 196.76 Z" />
<path fill="#f8413a" opacity="1.00" d=" M 665.96 220.73 C 669.44 220.41 672.97 220.12 676.48 219.87 C 675.71 268.56 675.53 317.31 676.64 366.00 C 673.99 366.00 668.68 366.00 666.02 365.99 C 665.95 317.57 666.05 269.15 665.96 220.73 Z" />
<path fill="#f8413a" opacity="1.00" d=" M 886.97 220.76 C 890.45 220.43 894.01 220.13 897.53 219.87 C 897.11 227.90 897.01 235.94 896.85 243.99 C 893.58 244.02 890.22 244.03 887.00 244.08 C 886.97 236.30 886.97 228.53 886.97 220.76 Z" />
<path fill="#f8413a" opacity="1.00" d=" M 963.94 220.74 C 967.39 220.42 970.92 220.12 974.41 219.87 C 974.07 228.58 974.32 237.31 974.59 246.03 C 971.95 246.02 966.66 246.00 964.01 245.99 C 963.99 237.57 963.97 229.15 963.94 220.74 Z" />
<path fill="#f8413a" opacity="1.00" d=" M 363.00 222.01 C 366.31 221.99 369.68 222.01 373.01 222.00 C 373.00 229.33 372.99 236.67 373.00 244.00 C 369.64 243.98 366.34 244.00 363.00 243.99 C 363.00 236.66 363.00 229.33 363.00 222.01 Z" />
<path fill="#f8413a" opacity="1.00" d=" M 440.01 222.01 C 443.35 222.01 446.62 221.99 449.98 222.00 C 450.03 261.34 450.01 300.67 449.99 340.00 C 446.67 340.00 443.31 339.96 440.01 339.98 C 439.99 300.65 439.99 261.33 440.01 222.01 Z" />
<path fill="#f8413a" opacity="1.00" d=" M 613.00 222.01 C 616.29 221.99 619.67 222.01 622.99 222.00 C 623.01 261.33 623.01 300.67 622.99 340.00 C 619.61 339.98 616.35 340.01 613.00 339.99 C 613.00 300.66 613.00 261.34 613.00 222.01 Z" />
<path fill="#f8413a" opacity="1.00" d=" M 762.00 222.01 C 765.28 221.99 768.69 222.01 772.01 222.00 C 771.99 229.33 771.99 236.67 772.00 244.00 C 768.61 243.98 765.36 244.00 762.00 243.99 C 761.99 236.66 761.99 229.33 762.00 222.01 Z" />
<path fill="#f8413a" opacity="1.00" d=" M 839.00 222.01 C 842.31 222.01 845.51 221.99 848.85 222.01 C 849.05 230.02 849.29 238.02 849.71 246.03 C 847.03 246.02 841.68 246.00 839.01 245.99 C 838.98 237.99 838.98 230.00 839.00 222.01 Z" />
<path fill="#f8413a" opacity="1.00" d=" M 863.01 246.01 C 866.36 246.01 869.59 245.99 872.98 246.01 C 873.37 286.00 872.24 326.02 873.64 366.01 C 870.99 366.00 865.68 366.00 863.02 365.99 C 862.97 326.00 862.99 286.00 863.01 246.01 Z" />
<path fill="#f8413a" opacity="1.00" d=" M 988.00 246.01 C 991.31 246.01 994.50 245.99 997.85 246.01 C 998.05 254.02 998.30 262.03 998.71 270.04 C 996.03 270.02 990.68 270.00 988.01 269.99 C 987.98 261.99 987.98 254.00 988.00 246.01 Z" />
<path fill="#f8413a" opacity="1.00" d=" M 363.01 270.00 C 366.34 270.01 369.63 269.99 372.98 270.01 C 373.27 302.02 372.36 334.04 373.64 366.03 C 370.98 366.02 365.68 366.00 363.02 365.99 C 362.97 333.99 362.99 302.00 363.01 270.00 Z" />
<path fill="#f8413a" opacity="1.00" d=" M 762.01 270.00 C 765.35 270.01 768.59 269.99 771.98 270.01 C 772.27 302.01 771.36 334.02 772.64 366.00 C 769.98 366.00 764.68 366.00 762.02 365.99 C 761.97 334.00 761.99 302.00 762.01 270.00 Z" />
<path fill="#f8413a" opacity="1.00" d=" M 1060.01 270.00 C 1063.36 270.01 1066.56 269.99 1069.97 270.02 C 1070.03 293.34 1070.04 316.66 1069.99 339.98 C 1066.68 339.99 1063.26 339.97 1060.01 340.00 C 1059.98 316.66 1059.97 293.33 1060.01 270.00 Z" />
<path fill="#f8413a" opacity="1.00" d=" M 963.94 316.73 C 967.39 316.41 970.92 316.12 974.41 315.88 C 974.07 324.59 974.32 333.31 974.59 342.03 C 971.95 342.02 966.66 342.00 964.02 341.99 C 963.99 333.57 963.97 325.15 963.94 316.73 Z" />
<path fill="#f8413a" opacity="1.00" d=" M 415.94 340.73 C 419.41 340.41 422.92 340.12 426.41 339.87 C 426.08 348.59 426.33 357.32 426.60 366.05 C 423.95 366.03 418.66 366.00 416.01 365.98 C 416.00 357.56 415.98 349.15 415.94 340.73 Z" />
<path fill="#f8413a" opacity="1.00" d=" M 988.00 342.01 C 991.31 342.02 994.50 341.98 997.85 342.01 C 998.05 350.02 998.30 358.03 998.71 366.05 C 996.03 366.03 990.69 366.00 988.01 365.99 C 987.98 357.99 987.98 350.00 988.00 342.01 Z" />
</g>
<g id="#2cf5f6ff">
<path fill="#2cf5f6" opacity="1.00" d=" M 249.48 195.66 C 251.62 196.13 253.74 196.69 255.84 197.36 C 256.12 205.08 256.87 212.94 255.72 220.62 C 253.72 221.35 251.69 221.96 249.63 222.45 C 249.93 213.52 249.69 204.58 249.48 195.66 Z" />
<path fill="#2cf5f6" opacity="1.00" d=" M 374.32 195.68 C 376.50 196.11 378.66 196.67 380.80 197.34 C 381.23 204.89 381.09 212.46 381.03 220.03 C 379.59 219.97 376.71 219.85 375.27 219.79 C 374.76 211.76 374.69 203.71 374.32 195.68 Z" />
<path fill="#2cf5f6" opacity="1.00" d=" M 499.48 195.58 C 501.61 196.06 503.73 196.65 505.83 197.38 C 506.12 205.08 506.87 212.94 505.72 220.62 C 503.71 221.35 501.68 221.96 499.63 222.45 C 499.94 213.49 499.69 204.53 499.48 195.58 Z" />
<path fill="#2cf5f6" opacity="1.00" d=" M 624.32 195.68 C 626.49 196.11 628.65 196.67 630.80 197.34 C 631.23 204.89 631.09 212.46 631.03 220.03 C 629.59 219.97 626.71 219.85 625.27 219.79 C 624.76 211.76 624.68 203.71 624.32 195.68 Z" />
<path fill="#2cf5f6" opacity="1.00" d=" M 773.32 195.59 C 775.49 196.07 777.65 196.65 779.80 197.35 C 780.22 204.90 780.09 212.46 780.03 220.03 C 778.59 219.97 775.71 219.85 774.27 219.79 C 773.76 211.73 773.68 203.65 773.32 195.59 Z" />
<path fill="#2cf5f6" opacity="1.00" d=" M 850.32 195.68 C 852.48 196.12 854.64 196.67 856.80 197.34 C 857.22 204.89 857.09 212.46 857.03 220.03 C 855.59 219.97 852.71 219.85 851.27 219.79 C 850.75 211.76 850.68 203.71 850.32 195.68 Z" />
<path fill="#2cf5f6" opacity="1.00" d=" M 946.48 195.66 C 948.60 196.13 950.72 196.69 952.84 197.36 C 953.11 205.08 953.86 212.94 952.72 220.62 C 950.70 221.33 948.67 221.93 946.63 222.40 C 946.93 213.49 946.68 204.57 946.48 195.66 Z" />
<path fill="#2cf5f6" opacity="1.00" d=" M 1095.48 195.66 C 1097.60 196.12 1099.71 196.69 1101.84 197.36 C 1102.11 205.08 1102.86 212.94 1101.72 220.62 C 1099.69 221.35 1097.67 221.96 1095.63 222.45 C 1095.93 213.52 1095.68 204.58 1095.48 195.66 Z" />
<path fill="#2cf5f6" opacity="1.00" d=" M 398.48 219.62 C 400.62 220.08 402.73 220.67 404.83 221.37 C 405.12 229.08 405.87 236.94 404.72 244.62 C 402.72 245.35 400.69 245.96 398.63 246.45 C 398.94 237.51 398.70 228.56 398.48 219.62 Z" />
<path fill="#2cf5f6" opacity="1.00" d=" M 648.44 219.63 C 651.37 221.01 657.89 219.83 654.99 225.98 C 655.05 262.66 655.05 299.34 654.99 336.02 C 657.90 342.17 651.37 340.98 648.44 342.37 C 649.36 301.47 649.36 260.52 648.44 219.63 Z" />
<path fill="#2cf5f6" opacity="1.00" d=" M 797.43 219.63 C 800.36 221.01 806.89 219.83 803.99 225.98 C 804.04 271.33 804.02 316.70 804.02 362.05 C 804.75 365.88 800.16 365.56 797.57 366.45 C 798.27 317.52 798.40 268.55 797.43 219.63 Z" />
<path fill="#2cf5f6" opacity="1.00" d=" M 874.32 219.63 C 876.49 220.08 878.65 220.65 880.81 221.35 C 881.22 228.89 881.09 236.45 881.03 244.01 C 879.59 243.92 876.71 243.76 875.28 243.68 C 874.76 235.67 874.68 227.64 874.32 219.63 Z" />
<path fill="#2cf5f6" opacity="1.00" d=" M 154.09 222.39 C 155.57 222.29 158.52 222.10 160.00 222.00 C 160.00 229.34 160.00 236.69 159.99 244.04 C 158.51 243.97 155.55 243.83 154.07 243.76 C 153.84 236.63 153.91 229.51 154.09 222.39 Z" />
<path fill="#2cf5f6" opacity="1.00" d=" M 303.00 222.00 C 304.50 222.00 307.50 222.01 309.00 222.01 C 309.00 229.33 309.00 236.66 309.00 243.99 C 307.50 243.99 304.50 244.00 302.99 244.00 C 302.99 236.66 303.00 229.33 303.00 222.00 Z" />
<path fill="#2cf5f6" opacity="1.00" d=" M 476.02 221.94 C 477.51 221.95 480.50 221.99 481.99 222.01 C 482.00 261.35 482.02 300.69 481.99 340.03 C 480.53 339.97 477.62 339.86 476.16 339.81 C 475.67 300.52 476.15 261.23 476.02 221.94 Z" />
<path fill="#2cf5f6" opacity="1.00" d=" M 553.01 222.00 C 554.51 222.00 557.50 222.01 559.00 222.01 C 559.00 261.34 559.00 300.66 559.00 339.99 C 557.51 339.99 554.51 340.00 553.02 340.00 C 552.98 300.67 552.99 261.33 553.01 222.00 Z" />
<path fill="#2cf5f6" opacity="1.00" d=" M 702.00 222.00 C 703.50 222.00 706.50 222.01 708.00 222.01 C 707.99 229.33 707.99 236.66 708.00 243.99 C 706.50 243.99 703.50 244.00 701.99 244.00 C 701.99 236.66 701.99 229.33 702.00 222.00 Z" />
<path fill="#2cf5f6" opacity="1.00" d=" M 923.42 222.26 C 924.82 222.20 927.61 222.07 929.00 222.00 C 929.00 229.71 929.00 237.43 929.02 245.14 C 926.79 245.45 924.60 245.77 922.43 246.10 C 922.84 238.16 922.95 230.20 923.42 222.26 Z" />
<path fill="#2cf5f6" opacity="1.00" d=" M 1000.09 222.39 C 1001.57 222.29 1004.52 222.10 1006.00 222.00 C 1005.99 229.34 1005.99 236.69 1005.99 244.04 C 1004.51 243.97 1001.55 243.83 1000.07 243.77 C 999.83 236.64 999.90 229.51 1000.09 222.39 Z" />
<path fill="#2cf5f6" opacity="1.00" d=" M 201.48 243.66 C 203.62 244.11 205.74 244.68 207.84 245.36 C 208.13 253.08 208.87 260.94 207.72 268.62 C 205.72 269.35 203.70 269.96 201.63 270.46 C 201.93 261.53 201.70 252.58 201.48 243.66 Z" />
<path fill="#2cf5f6" opacity="1.00" d=" M 1071.32 243.68 C 1073.48 244.11 1075.64 244.67 1077.80 245.34 C 1078.22 252.89 1078.08 260.46 1078.03 268.03 C 1076.59 267.97 1073.71 267.85 1072.27 267.79 C 1071.75 259.76 1071.67 251.71 1071.32 243.68 Z" />
<path fill="#2cf5f6" opacity="1.00" d=" M 374.84 245.93 C 376.38 245.95 379.46 245.99 381.00 246.01 C 381.00 253.35 381.00 260.69 380.99 268.03 C 379.53 267.98 376.62 267.87 375.16 267.81 C 374.88 260.52 374.91 253.22 374.84 245.93 Z" />
<path fill="#2cf5f6" opacity="1.00" d=" M 899.02 246.01 C 900.51 246.01 903.50 246.02 904.99 246.02 C 904.88 285.02 905.22 324.02 904.94 363.01 C 905.21 366.19 900.51 365.29 898.57 366.44 C 899.59 326.31 898.68 286.15 899.02 246.01 Z" />
<path fill="#2cf5f6" opacity="1.00" d=" M 398.43 267.62 C 401.37 269.00 407.90 267.83 404.99 273.98 C 405.19 304.36 404.88 334.75 405.02 365.13 C 402.81 365.45 400.62 365.78 398.44 366.12 C 399.38 333.30 399.33 300.44 398.43 267.62 Z" />
<path fill="#2cf5f6" opacity="1.00" d=" M 1095.43 267.63 C 1097.54 268.10 1099.65 268.67 1101.78 269.35 C 1102.53 293.27 1101.74 317.22 1102.01 341.15 C 1099.80 341.44 1097.63 341.73 1095.49 342.05 C 1096.35 317.25 1096.29 292.42 1095.43 267.63 Z" />
<path fill="#2cf5f6" opacity="1.00" d=" M 154.23 270.44 C 155.67 270.33 158.55 270.12 159.99 270.02 C 159.89 300.70 160.18 331.38 160.02 362.06 C 160.75 365.94 156.09 365.52 153.44 366.44 C 154.75 334.45 153.38 302.43 154.23 270.44 Z" />
<path fill="#2cf5f6" opacity="1.00" d=" M 303.23 270.40 C 304.67 270.30 307.55 270.10 308.99 270.01 C 308.89 300.69 309.18 331.38 309.02 362.06 C 309.75 365.94 305.08 365.52 302.44 366.44 C 303.74 334.44 302.39 302.40 303.23 270.40 Z" />
<path fill="#2cf5f6" opacity="1.00" d=" M 702.23 270.40 C 703.67 270.30 706.55 270.10 707.99 270.01 C 707.89 300.69 708.18 331.38 708.02 362.06 C 708.76 365.95 704.05 365.52 701.44 366.44 C 702.74 334.44 701.39 302.40 702.23 270.40 Z" />
<path fill="#2cf5f6" opacity="1.00" d=" M 999.32 315.68 C 1001.48 316.11 1003.64 316.67 1005.80 317.34 C 1006.22 324.89 1006.09 332.46 1006.03 340.02 C 1004.59 339.95 1001.71 339.81 1000.27 339.74 C 999.75 331.72 999.67 323.69 999.32 315.68 Z" />
<path fill="#2cf5f6" opacity="1.00" d=" M 499.48 339.62 C 501.61 340.08 503.73 340.66 505.83 341.37 C 506.12 349.08 506.87 356.94 505.72 364.62 C 503.71 365.34 501.68 365.95 499.63 366.45 C 499.94 357.50 499.69 348.55 499.48 339.62 Z" />
<path fill="#2cf5f6" opacity="1.00" d=" M 625.42 342.27 C 626.82 342.21 629.61 342.07 631.00 342.00 C 631.00 349.71 631.01 357.42 631.02 365.14 C 628.80 365.45 626.60 365.77 624.42 366.11 C 624.84 358.16 624.96 350.21 625.42 342.27 Z" />
<path fill="#2cf5f6" opacity="1.00" d=" M 1072.42 342.33 C 1073.82 342.25 1076.61 342.10 1078.00 342.02 C 1078.00 349.72 1078.00 357.43 1078.02 365.14 C 1075.79 365.45 1073.59 365.77 1071.42 366.11 C 1071.84 358.18 1071.95 350.24 1072.42 342.33 Z" />
</g>
</svg>
