<svg xmlns="http://www.w3.org/2000/svg" xmlns:xlink="http://www.w3.org/1999/xlink" width="738" height="500" viewBox="0 0 738 500">
  <defs>
    <linearGradient id="berlin-js-girls-a" x1="0%" y1="50%" y2="50%">
      <stop offset="0%" stop-color="#FA709A"/>
      <stop offset="100%" stop-color="#FEE140"/>
    </linearGradient>
    <ellipse id="berlin-js-girls-b" cx="29.759" cy="29.745" rx="29.759" ry="29.745"/>
  </defs>
  <g fill="none" fill-rule="evenodd" transform="translate(0 1)">
    <g transform="translate(120)">
      <path fill="#20A1CF" d="M497.52,248.904 C497.52,261.97 490.536,274.332 488.569,286.845 C486.55,299.691 489.352,313.599 485.423,325.701 C481.424,338.018 470.951,347.617 465.144,358.994 C459.275,370.49 457.623,384.592 450.084,394.951 C442.509,405.36 429.588,411.263 420.506,420.346 C411.424,429.429 405.52,442.349 395.111,449.924 C384.751,457.463 370.649,459.114 359.153,464.984 C347.776,470.792 338.177,481.263 325.861,485.263 C313.757,489.193 299.85,486.39 287.005,488.409 C274.491,490.376 262.129,497.36 249.064,497.36 C235.998,497.36 223.636,490.376 211.123,488.409 C198.277,486.39 184.37,489.192 172.268,485.263 C159.951,481.264 150.351,470.791 138.975,464.984 C127.479,459.115 113.378,457.463 103.018,449.924 C92.609,442.349 86.705,429.428 77.623,420.346 C68.541,411.264 55.621,405.36 48.045,394.951 C40.506,384.592 38.855,370.489 32.986,358.994 C27.178,347.617 16.706,338.018 12.707,325.701 C8.777,313.598 11.58,299.691 9.561,286.845 C7.595,274.332 0.61,261.97 0.61,248.905 C0.61,235.839 7.595,223.478 9.561,210.964 C11.58,198.118 8.777,184.211 12.707,172.108 C16.706,159.791 27.178,150.192 32.986,138.816 C38.855,127.32 40.506,113.219 48.045,102.859 C55.62,92.45 68.541,86.547 77.623,77.464 C86.705,68.381 92.609,55.462 103.018,47.886 C113.377,40.347 127.479,38.696 138.975,32.827 C150.351,27.019 159.951,16.547 172.267,12.548 C184.371,8.618 198.277,11.421 211.123,9.402 C223.636,7.436 235.998,0.451 249.063,0.451 C262.129,0.451 274.491,7.436 287.004,9.402 C299.85,11.421 313.758,8.618 325.86,12.548 C338.177,16.548 347.776,27.019 359.153,32.827 C370.649,38.696 384.751,40.347 395.11,47.886 C405.519,55.461 411.423,68.382 420.506,77.464 C429.589,86.546 442.508,92.45 450.084,102.859 C457.623,113.218 459.273,127.319 465.143,138.815 C470.952,150.192 481.423,159.791 485.422,172.108 C489.352,184.211 486.55,198.118 488.568,210.964 C490.535,223.477 497.52,235.838 497.52,248.904 Z"/>
      <path stroke="#223035" stroke-width="2" d="M497.52,248.904 C497.52,261.97 490.536,274.332 488.569,286.845 C486.55,299.691 489.352,313.599 485.423,325.701 C481.424,338.018 470.951,347.617 465.144,358.994 C459.275,370.49 457.623,384.592 450.084,394.951 C442.509,405.36 429.588,411.263 420.506,420.346 C411.424,429.429 405.52,442.349 395.111,449.924 C384.751,457.463 370.649,459.114 359.153,464.984 C347.776,470.792 338.177,481.263 325.861,485.263 C313.757,489.193 299.85,486.39 287.005,488.409 C274.491,490.376 262.129,497.36 249.064,497.36 C235.998,497.36 223.636,490.376 211.123,488.409 C198.277,486.39 184.37,489.192 172.268,485.263 C159.951,481.264 150.351,470.791 138.975,464.984 C127.479,459.115 113.378,457.463 103.018,449.924 C92.609,442.349 86.705,429.428 77.623,420.346 C68.541,411.264 55.621,405.36 48.045,394.951 C40.506,384.592 38.855,370.489 32.986,358.994 C27.178,347.617 16.706,338.018 12.707,325.701 C8.777,313.598 11.58,299.691 9.561,286.845 C7.595,274.332 0.61,261.97 0.61,248.905 C0.61,235.839 7.595,223.478 9.561,210.964 C11.58,198.118 8.777,184.211 12.707,172.108 C16.706,159.791 27.178,150.192 32.986,138.816 C38.855,127.32 40.506,113.219 48.045,102.859 C55.62,92.45 68.541,86.547 77.623,77.464 C86.705,68.381 92.609,55.462 103.018,47.886 C113.377,40.347 127.479,38.696 138.975,32.827 C150.351,27.019 159.951,16.547 172.267,12.548 C184.371,8.618 198.277,11.421 211.123,9.402 C223.636,7.436 235.998,0.451 249.063,0.451 C262.129,0.451 274.491,7.436 287.004,9.402 C299.85,11.421 313.758,8.618 325.86,12.548 C338.177,16.548 347.776,27.019 359.153,32.827 C370.649,38.696 384.751,40.347 395.11,47.886 C405.519,55.461 411.423,68.382 420.506,77.464 C429.589,86.546 442.508,92.45 450.084,102.859 C457.623,113.218 459.273,127.319 465.143,138.815 C470.952,150.192 481.423,159.791 485.422,172.108 C489.352,184.211 486.55,198.118 488.568,210.964 C490.535,223.477 497.52,235.838 497.52,248.904 Z"/>
      <path fill="#223035" d="M467.528,248.361 C467.528,369.015 369.719,466.824 249.062,466.824 C128.409,466.824 30.6,369.015 30.6,248.361 C30.6,127.707 128.409,29.899 249.062,29.899 C369.72,29.899 467.528,127.708 467.528,248.361 Z"/>
      <path fill="#B6E1F3" fill-rule="nonzero" d="M69.185,290.011 L66.807,282.337 C65.584,278.392 66.495,275.555 70.02,274.463 C72.083,273.824 73.843,274.436 75.041,275.869 C74.786,273.122 75.853,271.089 78.518,270.264 C81.899,269.215 84.608,270.862 85.917,275.086 L88.671,283.972 L69.185,290.011 Z M75.804,283.601 L74.841,280.495 C74.244,278.569 73.096,277.903 71.577,278.374 C70.001,278.862 69.554,279.954 70.141,281.849 L71.132,285.05 L75.804,283.601 Z M84.258,280.98 L82.9,276.6 C82.265,274.55 81.088,273.996 79.569,274.466 C77.879,274.989 77.279,276.298 77.954,278.474 L79.215,282.543 L84.258,280.98 Z"/>
      <polygon fill="#B6E1F3" points="83.127 264.805 63.008 268.178 60.531 253.392 63.875 252.831 65.695 263.704 70.488 262.9 69.001 254.015 72.285 253.465 73.772 262.35 79.157 261.447 77.337 250.574 80.65 250.019"/>
      <path fill="#B6E1F3" fill-rule="nonzero" d="M59.876,246.515 L59.62,237.281 C59.512,233.346 62.074,230.543 66.092,230.432 C69.42,230.341 71.823,232.585 72.447,235.627 C74.346,233.785 76.843,231.829 76.787,229.813 C76.77,229.228 76.539,228.42 76.223,227.844 L79.269,227.304 C79.71,228.073 80.111,229.526 80.144,230.729 C80.266,235.151 74.172,238.312 72.708,240.696 L72.743,241.997 L80.149,241.793 L80.264,245.955 L59.876,246.515 Z M69.715,242.08 L69.606,238.113 C69.549,236.064 68.28,234.635 66.241,234.691 C64.022,234.752 62.953,236.246 63.01,238.294 L63.12,242.261 L69.715,242.08 Z"/>
      <polygon fill="#B6E1F3" points="80.169 224.743 59.873 222.658 60.299 218.517 77.252 220.259 78.24 210.652 81.583 210.995"/>
      <polygon fill="#B6E1F3" points="62.289 204.093 63.092 200.009 83.107 203.942 82.304 208.026"/>
      <polygon fill="#B6E1F3" points="72.005 190.504 85.302 194.719 84.054 198.657 64.609 192.494 65.69 189.083 82.111 183.54 68.786 179.316 70.054 175.316 89.498 181.48 88.388 184.983"/>
      <path fill="#B6E1F3" d="M77.395 169.765C76.745 170.651 75.766 170.79 74.723 170.332 73.267 169.693 72.795 168.527 73.422 167.098 74.049 165.669 75.334 165.202 76.708 165.805 78.686 166.673 81.226 169.244 82.248 170.723L80.537 172.458 77.395 169.765zM90.721 166.987C92.181 166.19 93.83 164.792 94.842 162.935 95.791 161.193 95.869 159.419 94.237 158.529 93.104 157.912 92.147 158.353 90.77 159.751L88.355 162.176C86.237 164.245 84.02 164.74 81.624 163.434 78.727 161.854 77.569 158.148 79.966 153.749 81.181 151.521 83.031 149.566 84.432 148.625L86.848 151.276C85.425 152.131 83.94 153.729 83.084 155.3 81.885 157.5 82.137 159.045 83.374 159.719 84.454 160.307 85.381 159.924 86.377 158.91L88.901 156.471C91.442 154.003 93.684 153.336 96.081 154.642 99.268 156.379 100.29 160.271 98.018 164.442 96.71 166.841 94.644 168.753 93.406 169.522L90.721 166.987z"/>
      <polygon fill="#B6E1F3" points="104.002 140.907 109.843 145.419 107.417 148.557 91.271 136.085 100.099 124.663 102.782 126.735 96.38 135.019 101.318 138.834 106.806 131.733 109.489 133.805"/>
      <polygon fill="#B6E1F3" points="103.875 120.608 106.699 117.549 121.692 131.381 118.868 134.44"/>
      <polygon fill="#B6E1F3" points="119.138 114.19 128.383 124.634 125.29 127.372 111.77 112.099 114.449 109.727 131.386 113.402 122.12 102.935 125.262 100.154 138.783 115.427 136.031 117.864"/>
      <polygon fill="#B6E1F3" points="143.033 112.301 131.547 95.44 143.942 86.999 145.851 89.801 136.737 96.009 139.473 100.026 146.92 94.954 148.795 97.706 141.348 102.778 144.422 107.291 153.536 101.084 155.428 103.861"/>
      <path fill="#B6E1F3" d="M156.796,97.454 C158.454,97.589 160.601,97.326 162.465,96.329 C164.215,95.393 165.253,93.954 164.376,92.314 C163.768,91.176 162.725,91.019 160.806,91.432 L157.456,92.135 C154.55,92.701 152.425,91.899 151.137,89.491 C149.581,86.581 150.647,82.847 155.065,80.486 C157.302,79.29 159.922,78.672 161.61,78.654 L162.175,82.196 C160.517,82.13 158.398,82.651 156.821,83.494 C154.612,84.675 153.974,86.104 154.639,87.348 C155.219,88.432 156.204,88.62 157.593,88.32 L161.043,87.667 C164.521,86.998 166.762,87.671 168.049,90.079 C169.761,93.28 168.481,97.095 164.292,99.333 C161.882,100.622 159.105,101.085 157.647,101.048 L156.796,97.454 Z"/>
      <polygon fill="#B6E1F3" points="175.752 74.917 182.232 90.646 178.382 92.232 171.902 76.503 166.308 78.808 165.016 75.673 179.843 69.565 181.134 72.7"/>
      <path fill="#B6E1F3" d="M197.101,77.947 C197.933,80.646 199.256,81.606 201.46,81.036 C203.602,80.483 204.483,78.953 203.732,76.048 L200.474,63.439 L204.536,62.39 L207.779,74.941 C208.927,79.386 207.299,83.092 202.228,84.401 C197.598,85.597 194.545,83.534 193.284,79.304 L197.101,77.947 Z"/>
      <path fill="#B6E1F3" fill-rule="nonzero" d="M216.242,60.231 L221.002,59.515 L231.184,78.612 L227.099,79.226 L225.085,75.252 L216.818,76.495 L216.033,80.89 L211.948,81.504 L216.242,60.231 Z M217.423,73.522 L223.663,72.584 L219.19,63.64 L217.423,73.522 Z"/>
      <polygon fill="#B6E1F3" points="229.865 58.261 234.315 58.06 240.38 74.093 245.133 57.572 249.615 57.37 243.132 78.082 238 78.314"/>
      <path fill="#B6E1F3" fill-rule="nonzero" d="M258.573,57.805 L263.379,58.08 L269.415,78.861 L265.291,78.625 L264.138,74.322 L255.793,73.843 L254.121,77.985 L249.998,77.748 L258.573,57.805 Z M256.996,71.057 L263.295,71.418 L260.757,61.746 L256.996,71.057 Z"/>
      <path fill="#B6E1F3" d="M273.182 74.548C274.419 75.659 276.286 76.75 278.372 77.086 280.33 77.401 282.027 76.885 282.323 75.048 282.529 73.775 281.795 73.018 280.018 72.185L276.928 70.715C274.274 69.406 273.069 67.48 273.503 64.785 274.028 61.527 277.138 59.202 282.081 59.998 284.586 60.401 287.044 61.497 288.396 62.504L286.701 65.665C285.423 64.608 283.422 63.739 281.656 63.455 279.183 63.057 277.81 63.808 277.587 65.2 277.391 66.414 278.061 67.16 279.348 67.762L282.488 69.332C285.659 70.906 287.034 72.799 286.599 75.494 286.021 79.078 282.692 81.337 278.005 80.582 275.308 80.147 272.818 78.835 271.681 77.922L273.182 74.548zM306 84.001C303.952 85.094 300.79 85.699 297.776 84.883 292.409 83.429 289.442 78.585 291.16 72.242 292.893 65.842 297.899 63.156 303.266 64.61 307.943 65.876 309.968 68.849 308.815 73.48L305.025 73.168C305.723 70.342 304.718 68.702 302.176 68.014 299.1 67.181 296.432 69.07 295.272 73.356 294.087 77.729 295.571 80.586 299.055 81.53 301.126 82.091 303.582 81.357 305.222 80.527L306 84.001z"/>
      <path fill="#B6E1F3" fill-rule="nonzero" d="M316.571,68.956 L325.143,72.393 C328.794,73.857 330.348,77.324 328.854,81.056 C327.616,84.147 324.603,85.46 321.565,84.824 C322.5,87.3 323.302,90.368 325.173,91.119 C325.717,91.337 326.549,91.444 327.204,91.384 L326.488,94.394 C325.608,94.494 324.116,94.283 322.999,93.835 C318.895,92.189 318.416,85.339 316.811,83.048 L315.604,82.564 L312.848,89.442 L308.985,87.893 L316.571,68.956 Z M316.731,79.75 L320.414,81.227 C322.315,81.989 324.131,81.392 324.89,79.498 C325.715,77.437 324.77,75.863 322.869,75.101 L319.186,73.624 L316.731,79.75 Z"/>
      <polygon fill="#B6E1F3" points="337.889 78.127 341.6 80.012 332.366 98.201 328.655 96.316"/>
      <path fill="#B6E1F3" fill-rule="nonzero" d="M347.976,83.351 L355.713,88.149 C358.835,90.086 360.338,93.771 357.682,98.054 C355.28,101.929 351.106,102.554 347.983,100.617 L343.783,98.013 L340.763,102.883 L337.226,100.69 L347.976,83.351 Z M349.742,88.4 L345.553,95.157 L348.98,97.282 C350.637,98.31 352.81,97.892 354.09,95.827 C355.481,93.583 354.826,91.554 353.168,90.525 L349.742,88.4 Z"/>
      <polygon fill="#B6E1F3" points="370.611 102.959 360.126 116.352 356.849 113.786 367.334 100.393 362.572 96.664 364.662 93.995 377.284 103.88 375.195 106.549"/>
      <path fill="#B6E1F3" d="M381.048 123.899C378.579 126.177 378.116 128.418 380.212 130.688 382.375 133.03 384.734 132.623 387.116 130.426L395.869 122.351 398.693 125.41 389.741 133.668C386.235 136.902 381.671 137.529 377.589 133.109 373.595 128.784 374.255 124.502 378.048 121.004L386.999 112.746 389.823 115.805 381.048 123.899zM390.747 140.416C390.828 142.077 391.367 144.17 392.597 145.889 393.751 147.502 395.313 148.344 396.826 147.262 397.875 146.511 397.895 145.457 397.237 143.609L396.107 140.38C395.169 137.573 395.689 135.362 397.909 133.774 400.594 131.854 404.432 132.425 407.347 136.498 408.823 138.56 409.776 141.078 410.011 142.748L406.573 143.769C406.424 142.117 405.633 140.084 404.592 138.629 403.135 136.593 401.636 136.147 400.488 136.967 399.488 137.683 399.429 138.684 399.907 140.022L401.003 143.356C402.116 146.717 401.739 149.026 399.519 150.614 396.567 152.726 392.62 151.952 389.857 148.092 388.268 145.871 387.449 143.179 387.296 141.729L390.747 140.416z"/>
      <polygon fill="#B6E1F3" points="396.697 157.589 414.586 147.773 421.796 160.92 418.823 162.551 413.521 152.884 409.259 155.222 413.591 163.121 410.671 164.724 406.339 156.824 401.551 159.451 406.854 169.118 403.908 170.735"/>
      <path fill="#B6E1F3" fill-rule="nonzero" d="M424.667,167.131 L427.978,175.755 C429.389,179.429 427.905,182.926 424.152,184.368 C421.045,185.562 418.033,184.245 416.433,181.585 C415.254,183.954 413.55,186.63 414.273,188.512 C414.483,189.059 414.97,189.742 415.461,190.181 L412.768,191.703 C412.096,191.125 411.236,189.888 410.804,188.764 C409.219,184.635 413.914,179.625 414.503,176.89 L414.036,175.675 L407.12,178.332 L405.628,174.445 L424.667,167.131 Z M416.863,174.589 L418.285,178.294 C419.02,180.207 420.692,181.132 422.597,180.401 C424.669,179.605 425.18,177.84 424.446,175.927 L423.024,172.222 L416.863,174.589 Z"/>
      <path fill="#B6E1F3" d="M430.792,204.811 C431.676,203.01 431.982,201.24 431.565,199.4 C430.724,195.689 427.734,193.897 423.403,194.878 C418.896,195.898 417.225,198.844 418.002,202.27 C418.332,203.729 418.985,204.982 419.874,205.782 L423.971,204.855 L422.879,200.033 L426.127,199.298 L428.082,207.927 L418.6,210.073 C416.888,208.626 415.094,205.597 414.454,202.774 C413.225,197.35 416.045,192.143 422.454,190.692 C428.923,189.228 433.712,192.713 434.94,198.138 C435.616,201.12 435.336,203.551 434.158,205.819 L430.792,204.811 Z"/>
      <path fill="#B6E1F3" fill-rule="nonzero" d="M437.438 213.26L438.144 222.469C438.445 226.392 436.022 229.319 432.014 229.627 428.695 229.883 426.185 227.76 425.413 224.754 423.605 226.687 421.208 228.764 421.362 230.774 421.407 231.357 421.678 232.152 422.022 232.713L419.006 233.402C418.527 232.656 418.057 231.224 417.964 230.025 417.626 225.615 423.559 222.158 424.904 219.706L424.804 218.409 417.417 218.978 417.099 214.828 437.438 213.26zM427.826 218.175L428.13 222.131C428.286 224.174 429.625 225.539 431.658 225.382 433.871 225.212 434.866 223.667 434.709 221.624L434.406 217.668 427.826 218.175zM438.433 245.603C438.019 251.507 433.445 255 427.25 254.563 421.116 254.131 417.073 250.033 417.487 244.128 417.896 238.289 422.468 234.829 428.602 235.261 434.797 235.697 438.842 239.764 438.433 245.603zM421.107 244.384C420.873 247.725 422.928 250.153 427.537 250.477 432.205 250.805 434.578 248.69 434.812 245.349 435.039 242.105 432.984 239.678 428.316 239.35 423.708 239.025 421.335 241.14 421.107 244.384z"/>
      <path fill="#B6E1F3" d="M423.826,263.435 C420.548,262.696 418.44,263.586 417.761,266.6 C417.06,269.708 418.734,271.42 421.895,272.133 L433.514,274.756 L432.598,278.817 L420.715,276.135 C416.062,275.084 412.954,271.682 414.277,265.813 C415.573,260.072 419.474,258.186 424.507,259.322 L436.39,262.005 L435.474,266.066 L423.826,263.435 Z"/>
      <path fill="#B6E1F3" fill-rule="nonzero" d="M430.202,286.357 L426.959,294.863 C425.65,298.297 422.317,300.47 417.608,298.674 C413.347,297.047 411.943,293.067 413.252,289.633 L415.013,285.016 L409.659,282.973 L411.141,279.084 L430.202,286.357 Z M425.58,289.049 L418.152,286.214 L416.715,289.981 C416.021,291.804 416.843,293.858 419.113,294.724 C421.58,295.665 423.448,294.639 424.143,292.816 L425.58,289.049 Z"/>
      <path fill="#B6E1F3" fill-rule="nonzero" d="M249.064,26.725 C126.657,26.725 27.426,125.955 27.426,248.363 C27.426,370.771 126.657,470 249.064,470 C371.471,470 470.702,370.77 470.702,248.362 C470.702,125.954 371.472,26.725 249.064,26.725 Z M249.064,462 C131.075,462 35.426,366.352 35.426,248.362 C35.426,130.373 131.074,34.724 249.064,34.724 C367.054,34.724 462.702,130.373 462.702,248.362 C462.702,366.352 367.054,462 249.064,462 Z"/>
      <path fill="#67C7EE" d="M305.826,277.172 C304.246,269.664 303.351,261.889 302.436,253.844 C302.057,250.5 301.586,246.84 301.877,243.694 C302.096,241.321 303.456,241.596 304.173,240.06 C304.423,239.524 304.612,237.33 304.487,236.123 C304.085,232.221 301.514,228.774 299.497,225.367 C297.494,221.99 296.292,217.812 295.105,213.857 C293.965,210.065 292.606,205.861 291.47,201.587 C290.374,197.46 288.824,192.594 288.898,188.258 C288.964,184.344 290.592,180.481 291.774,176.745 C292.952,173.018 294.377,169.092 294.653,165.233 C295.087,159.201 292.102,155.08 292.532,149.481 C293.149,141.477 297.657,134.157 296.926,126.307 C296.707,123.942 295.78,122.141 295.109,119.339 C296.153,117.166 297.568,115.945 297.38,113.129 C297.149,109.627 293.551,107.484 290.11,107.372 C287.959,107.304 286.645,108.351 285.113,108.433 C284.12,108.484 282.898,106.972 281.779,106.745 C278.127,106.014 274.379,105.999 271.023,103.999 C270.014,103.999 269.005,103.999 267.995,103.999 C265.214,105.999 262.222,106.142 259.815,107.351 C257.689,108.42 255.805,110.63 253.604,111.15 C250.417,111.9 247.125,110.656 243.458,111.23 C242.591,118.844 247.229,120.813 253.303,123.01 C259.799,125.36 267.397,126.407 264.361,135.488 C260.808,134.977 256.685,134.857 252.394,135.063 C249.951,135.179 248.559,134.905 248.607,136.895 C248.665,139.194 252.552,139.104 254.818,139.478 C256.826,139.807 261.172,139.794 260.725,142.207 C260.536,143.23 258.28,143.808 256.938,144.482 C252.925,146.5 249.628,149.098 246.336,151.602 C238.155,150.046 230.614,148.413 223.008,146.299 C219.769,145.401 216.082,144.825 213.92,142.665 C209.91,138.656 209.841,131.611 206.044,127.216 C205.61,124.57 206.559,120.542 203.773,120.248 C203.975,121.689 204.142,124.57 202.56,125.095 C200.811,124.016 201.13,120.869 198.622,120.551 C198.032,121.584 200.569,123.912 199.076,125.396 C196.365,125.312 195.562,121.302 192.562,122.975 C193.684,124.386 196.343,125.042 196.045,127.368 C194.098,128.017 192.185,124.808 189.533,126.156 C191.015,127.074 193.383,128.454 192.258,131.003 C190.863,130.897 188.201,129.785 186.654,131.003 C187.681,132.148 189.453,132.548 190.593,133.578 C192.541,144.128 198.425,152.132 205.437,158.571 C212.279,164.851 221.551,172.656 232.851,174.476 C233.303,175.439 233.714,176.442 233.61,177.959 C228.548,180.645 223.55,184.927 217.554,187.503 C215.234,188.499 212.011,190.02 209.376,189.017 C204.038,186.981 203.205,178.164 196.197,177.353 C194.532,175.181 194.427,171.447 190.744,171.295 C190.986,172.396 192.993,174.218 191.804,176.293 C189.544,175.96 188.804,173.358 186.049,174.02 C186.698,175.644 188.906,175.707 188.927,177.958 C187.562,179.666 183.196,176.066 181.959,179.02 C183.32,179.509 187.466,179.479 186.959,181.291 C186.521,182.843 180.929,180.806 180.746,183.412 C183.144,183.012 185.375,184.147 185.29,186.139 C183.699,187.12 181.002,186.999 180.443,189.016 C181.788,189.288 183.184,188.785 184.837,189.321 C185.665,189.586 186.494,190.56 187.716,191.287 C188.859,191.974 190.136,192.5 190.895,193.102 C194.697,196.134 198.074,201.918 202.409,204.766 C206.53,207.478 214.797,208.533 221.492,208.25 C228.445,207.959 234.567,206.46 240.881,205.071 C242.561,212.884 246.988,217.948 251.484,222.942 C248.062,225.588 244.162,227.396 240.428,229.759 C236.883,232.004 233.348,234.246 230.43,237.638 C227.718,240.787 225.69,244.712 223.916,248.996 C222.217,253.113 220.497,257.897 220.129,262.932 C219.876,266.442 221,270.139 220.886,273.991 C220.729,279.33 216.233,276.452 213.465,274.901 C211.747,273.935 209.998,272.649 208.164,272.171 C207.313,271.951 206.399,272.171 205.437,272.021 C201.811,271.456 199.66,269.474 196.348,271.57 C198.403,271.416 200.537,272.267 200.892,274.293 C198.675,274.245 196.025,273.506 194.378,274.598 C195.826,275.373 198.446,275.782 198.469,277.475 C196.954,278.487 193.246,277.303 193.015,279.596 C194.915,279.817 197.006,279.846 198.015,280.959 C196.704,282.524 193.104,281.805 192.409,283.987 C194.424,284.197 196.628,284.215 197.561,285.501 C196.817,287.082 194.603,287.191 193.925,288.834 C201.487,289.301 206.779,291.37 213.918,293.531 C216.351,294.265 218.706,295.111 221.038,295.802 C224.711,296.897 232.409,300.039 235.125,296.108 C236.198,294.549 236.467,291.738 237.095,289.592 C237.791,287.199 238.474,284.899 239.062,283.08 C240.359,279.078 241.922,274.531 244.365,271.416 C249.401,264.996 256.484,261.493 262.996,256.117 C267.45,263.948 275.175,272.382 280.869,280.202 C281.648,281.271 283.004,282.984 283.142,283.836 C283.307,284.88 282.657,287.596 282.08,288.229 C280.444,290.026 274.328,289.159 272.689,291.411 C269.363,291.72 266.171,292.161 264.811,294.439 C266.032,293.307 268.979,293.561 269.963,294.745 C268.385,295.994 265.196,295.634 264.359,297.622 C265.554,297.589 268.512,297.074 269.207,298.379 C268.191,299.988 265.084,299.507 264.966,302.013 C266.227,301.992 268.274,300.701 270.266,301.408 C269.288,303.26 266.793,303.591 266.176,305.803 C267.489,305.936 269.274,304.465 271.175,305.198 C271.713,307.079 269.801,307.6 269.661,309.288 C275.45,307.216 283.485,306.877 288.596,303.835 C294.005,300.611 297.709,293.923 302.19,289.443 C304.231,287.403 306.999,285.639 306.999,282.626 C306.999,282.429 306.999,282.223 306.999,282.021 C307,280.299 306.189,278.898 305.826,277.172 Z M265.726,114.493 C264.92,114.8 265.132,116.121 264.513,116.614 C263.782,116.893 262.466,116.843 262.089,116.311 C262.517,114.913 262.971,113.617 263.906,112.978 C266.458,111.234 269.499,114.268 269.51,117.221 C267.212,117.918 265.801,116.51 265.726,114.493 Z M287.385,113.734 C286.867,111.079 290.608,108.711 292.989,110.403 C292.743,111.535 291.372,111.63 290.563,112.068 C289.55,112.619 288.679,113.662 287.385,113.734 Z"/>
      <path fill="#67C7EE" d="M264.513 132.516C264.559 133.269 264.489 133.907 264.362 134.486 259.561 132.81 250.665 133.204 245.731 130.85 244.257 130.148 242.236 128.913 241.792 127.519 241.226 125.733 242.222 122.352 244.064 122.519 245.946 122.692 244.676 124.596 245.277 126.609 245.94 128.836 251.509 129.674 254.365 130.093 258.469 130.699 261.808 130.842 264.513 132.516zM172.302 281.108L172.302 297.619 163.552 297.619C144.659 297.619 136.307 288.814 136.307 274.687 136.307 261.111 144.858 247.719 144.858 233.41 144.858 224.971 139.688 221.485 127.159 221.485L127.159 207.359C139.688 207.359 144.858 203.139 144.858 194.334 144.858 180.391 136.307 167.182 136.307 153.606 136.307 140.397 144.66 131.591 163.552 131.591L172.302 131.591 172.302 148.102 167.728 148.102C158.779 148.102 155.995 153.239 155.995 158.926 155.995 169.199 164.546 183.876 164.546 197.452 164.546 206.992 159.972 212.495 150.228 214.514 159.973 216.532 164.546 222.035 164.546 231.942 164.546 245.151 155.995 259.828 155.995 270.101 155.995 275.971 158.779 281.108 167.728 281.108L172.302 281.108zM319.27 297.619L319.27 281.108 324.241 281.108C332.793 281.108 335.776 275.971 335.776 270.101 335.776 259.828 327.224 245.151 327.224 231.942 327.224 222.035 331.6 216.531 341.543 214.514 331.6 212.496 327.224 206.992 327.224 197.452 327.224 183.876 335.776 169.2 335.776 158.926 335.776 153.238 332.793 148.102 324.241 148.102L319.27 148.102 319.27 131.591 328.219 131.591C346.912 131.591 355.264 140.397 355.264 153.606 355.264 167.182 346.912 180.391 346.912 194.334 346.912 203.14 351.883 207.359 364.611 207.359L364.611 221.485C351.882 221.485 346.912 224.971 346.912 233.41 346.912 247.72 355.264 261.111 355.264 274.687 355.264 288.814 346.912 297.619 328.219 297.619L319.27 297.619z"/>
      <circle cx="385.5" cy="215.5" r="10.5" fill="#67C7EE"/>
      <circle cx="106.5" cy="215.5" r="10.5" fill="#67C7EE"/>
    </g>
    <circle cx="370.5" cy="237.5" r="194.5" fill="#223035"/>
    <text fill="#B6E1F3" font-family="DankMonoNeue-Regular, Dank Mono Neue" font-size="63">
      <tspan x="305" y="203">ReactJSGirls</tspan>
    </text>
    <g transform="translate(211 107)">
      <path fill="url(#berlin-js-girls-a)" fill-rule="nonzero" d="M318,141.532387 C318,120.480659 291.618834,100.530098 251.172034,88.1581598 C260.505911,46.9615473 256.357521,14.185626 238.078679,3.69214923 C233.865471,1.23071641 228.939258,0.064774548 223.559315,0.064774548 L223.559315,14.5094987 C226.54097,14.5094987 228.939258,15.0924697 230.948634,16.193637 C239.763962,21.2460517 243.588259,40.4840925 240.606604,65.2279698 C239.8936,71.3167773 238.726865,77.7294575 237.300856,84.2716869 C224.596413,81.1625086 210.725234,78.7658503 196.141052,77.2112612 C187.390542,65.2279698 178.31594,54.3458457 169.176519,44.8239872 C190.307379,25.1972992 210.141867,14.4447242 223.624134,14.4447242 L223.624134,0 C205.799022,0 182.464329,12.6958114 158.870363,34.7191577 C135.276396,12.8253605 111.941704,0.259098192 94.1165919,0.259098192 L94.1165919,14.7038224 C107.53404,14.7038224 127.433347,25.3916228 148.564207,44.8887617 C139.489605,54.4106203 130.415002,65.2279698 121.79413,77.2112612 C107.145128,78.7658503 93.2739503,81.1625086 80.5695067,84.3364614 C79.0786792,77.8590066 77.9767631,71.5758755 77.1989401,65.5518425 C74.1524664,40.8079652 77.9119446,21.5699245 86.6624541,16.4527352 C88.6070118,15.2867933 91.1349368,14.7685969 94.1165919,14.7685969 L94.1165919,0.32387274 C88.6718304,0.32387274 83.7456176,1.4898146 79.4675907,3.95124743 C61.2535671,14.4447242 57.1699959,47.1558709 66.5686914,88.2229343 C26.2515287,100.659648 0,120.545434 0,141.532387 C0,162.584115 26.3811659,182.534676 66.8279658,194.906615 C57.4940889,236.103227 61.6424786,268.879149 79.9213208,279.372625 C84.1345291,281.834058 89.0607419,283 94.5055035,283 C112.330616,283 135.665308,270.304189 159.259274,248.280842 C182.853241,270.17464 206.187933,282.740902 224.013045,282.740902 C229.457807,282.740902 234.38402,281.57496 238.662046,279.113527 C256.87607,268.62005 260.959641,235.908904 251.560946,194.84184 C291.748471,182.469902 318,162.519341 318,141.532387 Z M233.606196,98.3277638 C231.207909,106.68368 228.226254,115.298695 224.855687,123.91371 C222.198125,118.731746 219.410925,113.549783 216.364452,108.367819 C213.382797,103.185855 210.206686,98.1334401 207.030575,93.2105745 C216.234815,94.57084 225.114961,96.2549783 233.606196,98.3277638 Z M203.919283,167.312657 C198.863433,176.057221 193.677945,184.348363 188.298002,192.056535 C178.640033,192.898604 168.852426,193.352026 159,193.352026 C149.212393,193.352026 139.424786,192.898604 129.831635,192.121309 C124.451692,184.413138 119.201386,176.18677 114.145536,167.506981 C109.219323,159.021515 104.746841,150.4065 100.663269,141.726711 C104.682022,133.046921 109.219323,124.367132 114.080717,115.881666 C119.136567,107.137102 124.322055,98.8459602 129.701998,91.137789 C139.359967,90.2957198 149.147574,89.842298 159,89.842298 C168.787607,89.842298 178.575214,90.2957198 188.168365,91.0730144 C193.548308,98.7811856 198.798614,107.007553 203.854464,115.687343 C208.780677,124.172808 213.253159,132.787823 217.336731,141.467613 C213.253159,150.147402 208.780677,158.827192 203.919283,167.312657 Z M224.855687,158.891966 C228.355891,167.571756 231.337546,176.251545 233.800652,184.672236 C225.309417,186.745022 216.364452,188.493935 207.095393,189.8542 C210.271504,184.86656 213.447615,179.749371 216.42927,174.502632 C219.410925,169.320668 222.198125,164.07393 224.855687,158.891966 Z M159.129637,228.006409 C153.101508,221.788052 147.07338,214.857176 141.110069,207.278553 C146.943742,207.537652 152.907053,207.731975 158.935181,207.731975 C165.028129,207.731975 171.056258,207.602426 176.954749,207.278553 C171.121076,214.857176 165.092947,221.788052 159.129637,228.006409 Z M110.904607,189.8542 C101.700367,188.493935 92.8202201,186.809796 84.3289849,184.737011 C86.7272727,176.381094 89.7089278,167.766079 93.0794945,159.151064 C95.7370567,164.333028 98.524256,169.514992 101.57073,174.696956 C104.617203,179.87892 107.728496,184.931334 110.904607,189.8542 Z M158.805544,55.0583658 C164.833673,61.2767224 170.861802,68.207599 176.825112,75.7862211 C170.991439,75.5271229 165.028129,75.3327993 159,75.3327993 C152.907053,75.3327993 146.878924,75.4623484 140.980432,75.7862211 C146.814105,68.207599 152.842234,61.2767224 158.805544,55.0583658 Z M110.839788,93.2105745 C107.663677,98.1982147 104.487566,103.315404 101.505911,108.562142 C98.524256,113.744106 95.7370567,118.92607 93.0794945,124.108034 C89.5792907,115.428244 86.5976355,106.748455 84.1345291,98.3277638 C92.6257644,96.3197528 101.57073,94.57084 110.839788,93.2105745 Z M52.1789645,174.308309 C29.2331839,164.527352 14.3897269,151.701991 14.3897269,141.532387 C14.3897269,131.362783 29.2331839,118.472648 52.1789645,108.756466 C57.7533632,106.359808 63.8463106,104.222248 70.1337138,102.214237 C73.8283734,114.910048 78.6897676,128.124056 84.7178965,141.661936 C78.7545862,155.135042 73.9580106,168.284276 70.3281696,180.915312 C63.9111292,178.907301 57.8181818,176.704967 52.1789645,174.308309 Z M87.0513657,266.871138 C78.2360375,261.818723 74.4117407,242.580682 77.3933958,217.836805 C78.1064003,211.747997 79.2731349,205.335317 80.6991439,198.793088 C93.4035874,201.902266 107.274766,204.298924 121.858948,205.853513 C130.609458,217.836805 139.68406,228.718929 148.823481,238.240787 C127.692621,257.867475 107.858133,268.62005 94.3758663,268.62005 C91.4590298,268.555276 88.9959234,267.972305 87.0513657,266.871138 Z M240.80106,217.512932 C243.847534,242.256809 240.088055,261.49485 231.337546,266.612039 C229.392988,267.777981 226.865063,268.296178 223.883408,268.296178 C210.46596,268.296178 190.566653,257.608377 169.435793,238.111238 C178.510395,228.58938 187.584998,217.77203 196.20587,205.788739 C210.854872,204.23415 224.72605,201.837491 237.430493,198.663539 C238.921321,205.205768 240.088055,211.488899 240.80106,217.512932 Z M265.756217,174.308309 C260.181818,176.704967 254.088871,178.842527 247.801468,180.850538 C244.106808,168.154726 239.245414,154.940719 233.217285,141.402838 C239.180595,127.929732 243.977171,114.780499 247.607012,102.149462 C254.024052,104.157473 260.117,106.359808 265.821035,108.756466 C288.766816,118.537423 303.610273,131.362783 303.610273,141.532387 C303.545455,151.701991 288.701998,164.592126 265.756217,174.308309 Z"/>
      <g transform="translate(129.24 112.18)">
        <mask id="berlin-js-girls-c" fill="#fff">
          <use xlink:href="#berlin-js-girls-b"/>
        </mask>
        <use fill="#FC997A" fill-rule="nonzero" xlink:href="#berlin-js-girls-b"/>
        <g mask="url(#berlin-js-girls-c)">
          <path fill="#FFF" fill-rule="nonzero" stroke="#FFF" stroke-width=".5" d="M24.1330981,9.70364892 L24.8536681,9.70364892 L24.8536681,8.93795884 C24.8536681,8.74004313 24.6919162,8.57852853 24.4933424,8.57852853 C24.2947685,8.57852853 24.1330166,8.74004313 24.1330166,8.93795884 L24.1330981,8.93795884 L24.1330981,9.70364892 Z M21.6918766,9.70364892 L22.4124466,9.70364892 L22.4124466,8.93795884 C22.4124466,8.74004313 22.2506947,8.57852853 22.0521208,8.57852853 C21.8535728,8.57852853 21.6918766,8.74001731 21.6918766,8.93795884 L21.6918766,9.70364892 Z M19.2507365,9.70364892 L19.9713065,9.70364892 L19.9713065,8.93795884 C19.9713065,8.74004313 19.8095546,8.57852853 19.6109808,8.57852853 C19.4124069,8.57852853 19.250655,8.74004313 19.250655,8.93795884 L19.2507365,8.93795884 L19.2507365,9.70364892 Z M16.8095149,9.70364892 L17.530085,9.70364892 L17.530085,8.93795884 C17.530085,8.74004313 17.3683331,8.57852853 17.1697592,8.57852853 C16.9711854,8.57852853 16.8094335,8.74004313 16.8094335,8.93795884 L16.8095149,8.93795884 L16.8095149,9.70364892 Z M37.3968813,40.1738633 L41.9131016,40.1738633 L41.9131016,41.8926426 L-0.25,41.8926426 L-0.25,40.1737007 L4.26614989,40.1737007 L4.26614989,18.3613097 L3.40782997,16.9588468 L3.37106519,16.828345 L3.37106519,16.5412199 L1.45879806,16.5412199 L1.45879806,14.8224406 L5.40543005,14.8224406 L5.40543005,13.4535644 L3.98139094,13.4535644 L3.98139094,11.7347851 L13.4615182,11.7347851 L13.4615182,11.4222656 L12.037479,11.4222656 L12.037479,9.70348626 L15.0889449,9.70348626 L15.0889449,8.93779618 C15.0889449,7.79157165 16.0222707,6.85958657 17.1698407,6.85958657 C17.6150608,6.85958657 18.0393067,7.00077126 18.3904283,7.25573609 C18.7415847,7.00079082 19.1658225,6.85958657 19.6109808,6.85958657 C19.732668,6.85958657 19.853099,6.87017609 19.9713065,6.89097394 L19.9713065,5.87319081 C19.2389717,5.5403845 18.7507365,4.80632429 18.7507365,3.9813457 C18.7507365,3.17104503 19.221753,2.44845631 19.9324508,2.10764366 L17.6509067,1.39565578 L18.1644687,-0.244734949 L19.971388,0.319137707 L19.971388,-0.25 L21.691958,-0.25 L21.691958,0.293864593 L23.417429,-0.244476531 L23.9309885,1.39590621 L21.698331,2.09257239 C22.427124,2.42673313 22.912528,3.15892516 22.912528,3.98150837 C22.912528,4.80648696 22.4242928,5.54054717 21.691958,5.87335347 L21.691958,6.89109321 C21.8102157,6.87027443 21.9306564,6.8596679 22.0522838,6.8596679 C22.4975039,6.8596679 22.9217498,7.00085259 23.2728714,7.25581742 C23.6240277,7.00087215 24.0482656,6.8596679 24.4934238,6.8596679 C25.6409938,6.8596679 26.5743196,7.79165298 26.5743196,8.93787751 L26.5743196,9.70356759 L29.6257855,9.70356759 L29.6257855,11.4225096 L28.2017464,11.4225096 L28.2017464,11.7350291 L37.6816292,11.7350291 L37.6816292,13.4538084 L36.2575901,13.4538084 L36.2575901,14.8226846 L40.2042221,14.8226846 L40.2042221,16.5414639 L38.291955,16.5414639 L38.291955,16.8284263 L38.2552536,16.9588244 L37.3978446,18.3613305 L37.3968813,40.1738633 Z M37.791955,16.7580623 L37.8286563,16.6980281 L37.791955,16.8284263 L37.791955,16.7580623 Z M20.8315508,3.62207805 C20.632977,3.62207805 20.4712251,3.78359265 20.4712251,3.98150837 C20.4712251,4.17942409 20.632977,4.34093868 20.8315508,4.34093868 C21.0301246,4.34093868 21.1918766,4.17942409 21.1918766,3.98150837 C21.1918766,3.78359265 21.0301246,3.62207805 20.8315508,3.62207805 Z M15.1820067,11.4224282 L15.1820067,11.7349478 L26.4811763,11.7349478 L26.4811763,11.4224282 L15.1820067,11.4224282 Z M7.12600009,13.453727 L7.12600009,14.8226033 L34.5370201,14.8226033 L34.5370201,13.453727 L7.12600009,13.453727 Z M7.43979491,40.1738633 L7.43979491,23.8543024 L5.98680139,23.8543024 L5.98680139,40.1738633 L7.43979491,40.1738633 Z M11.3253373,40.1738633 L11.3253373,23.8543024 L9.16036495,23.8543024 L9.16036495,40.1738633 L11.3253373,40.1738633 Z M14.4989009,40.1738633 L14.4989009,23.8543024 L13.0459074,23.8543024 L13.0459074,40.1738633 L14.4989009,40.1738633 Z M18.3844433,40.1738633 L18.3844433,23.8543024 L16.2194709,23.8543024 L16.2194709,40.1738633 L18.3844433,40.1738633 Z M21.5580068,40.1738633 L21.5580068,23.8543024 L20.1050133,23.8543024 L20.1050133,40.1738633 L21.5580068,40.1738633 Z M25.4436307,40.1738633 L25.4436307,23.8543024 L23.2786583,23.8543024 L23.2786583,40.1738633 L25.4436307,40.1738633 Z M28.6171943,40.1738633 L28.6171943,23.8543024 L27.1642007,23.8543024 L27.1642007,40.1738633 L28.6171943,40.1738633 Z M32.5027367,40.1738633 L32.5027367,23.8543024 L30.3377643,23.8543024 L30.3377643,40.1738633 L32.5027367,40.1738633 Z M35.6763111,40.1738633 L35.6770224,23.8543024 L34.2233067,23.8543024 L34.2233067,40.1738633 L35.6763111,40.1738633 Z M35.6772777,22.1354418 L35.6772777,18.9790225 L5.98680139,18.9790225 L5.98680139,22.1354418 L35.6772777,22.1354418 Z M36.494372,16.5413826 L5.1689442,16.5413826 L5.60884894,17.2602432 L36.0549118,17.2602432 L36.494372,16.5413826 Z M5.09171669,16.415183 L5.09171669,16.4856065 L4.84171669,16.4856065 L5.05495778,16.3551142 L5.09171669,16.415183 Z M36.5714664,16.4152731 L36.6080851,16.3553728 L36.8213849,16.4857692 L36.5714664,16.4857692 L36.5714664,16.4152731 Z" transform="translate(9.353 19.547)"/>
        </g>
      </g>
    </g>
    <g transform="translate(0 303)">
      <path fill="#B6E1F3" d="M0.096,134 C42.397,158 84.699,110 127,134 C127,100.667 127,67.333 127,34 C84.699,10 42.397,58 0.096,34 C14.683,58.652 29.269,74.742 43.856,88.176 C29.269,108.076 14.683,125.318 0.096,134 Z"/>
      <path fill="#223035" d="M0.096,134 C42.397,159.026 84.699,108.974 127,134 C127,132.667 127,131.333 127,130 C85.846,105.652 44.691,152.367 3.537,131.873 C2.39,132.635 1.243,133.345 0.096,134 Z"/>
      <polygon fill="#20A1CF" stroke="#223035" stroke-width="2" points="127 132.5 98 100.5 98 3.5 127 32.5"/>
      <path fill="#223035" d="M4.096,39.424 C44.064,55.828 84.032,12.328 124,36 C124,34.667 124,33.333 124,32 C82.846,7.626 41.691,54.47 0.537,33.801 C1.723,35.73 2.909,37.604 4.096,39.424 Z"/>
      <path fill="#B6E1F3" d="M737.952,134 C695.65,110 653,158 611,134 C611,100.667 611,67.333 611,34 C653,58 695.65,10 737.952,34 C723.365,42.101 708.779,58.762 694.192,78.08 C708.779,92.095 723.365,108.767 737.952,134 Z"/>
      <path fill="#223035" d="M737.952,133.973 C695.65,109.033 653,159.056 611,134 C611,132.667 611,131.333 611,130 C652,154.352 693.332,107.697 734.486,128.093 C735.635,129.995 736.805,131.963 737.952,133.973 Z"/>
      <polygon fill="#20A1CF" stroke="#223035" stroke-width="2" points="612 131.5 640 100.5 640 3.5 611 32.5"/>
      <path fill="#223035" d="M734.952,32.981 C694.65,15.504 654,59.891 614,36 C614,34.667 614,33.333 614,32 C655,56.378 696.332,9.596 737.486,30.165 C736.635,31.073 735.805,32.018 734.952,32.981 Z"/>
      <path fill="#B6E1F3" d="M641,101 C641,101 477,121 369,121 C261,121 97,101 97,101 L97,1 C97,1 261.926,21 369.568,21 C477.21,21 641,1 641,1 L641,101 Z"/>
      <path fill="#223035" d="M97 99L97 102C97 102 261 122 369 122 477 122 641 102 641 102L641 99C641 99 477 119 369 119 261 119 97 99 97 99zM97 0L97 3C97 3 261 23 369 23 477 23 641 3 641 3L641 0C641 0 477 20 369 20 261 20 97 0 97 0z"/>
      <path fill="#223035" fill-rule="nonzero" d="M143.291,24.408 L170.87,27.569 C183.854,29.058 190.37,35.031 189.098,46.135 C188.446,51.818 185.606,55.656 181.165,57.538 C187.863,60.255 191.302,65.433 190.39,73.389 C189.217,83.618 181.018,88.968 167.75,87.447 L136.475,83.862 L143.291,24.408 Z M156.932,72.921 L165.462,73.899 C168.779,74.279 170.546,72.267 170.877,69.381 C171.228,66.321 170.057,63.973 166.361,63.549 L158.116,62.604 L156.932,72.921 Z M159.648,49.227 L164.576,49.791 C168.083,50.193 169.535,48.411 169.866,45.525 C170.187,42.727 169.08,40.652 165.763,40.271 L160.74,39.696 L159.648,49.227 Z"/>
      <polygon fill="#223035" points="200.513 90.605 204.331 30.891 250.408 33.838 249.436 49.029 221.542 47.246 221.082 54.446 243.073 55.852 242.163 70.079 220.172 68.673 219.667 76.576 247.561 78.359 246.59 93.551"/>
      <path fill="#223035" fill-rule="nonzero" d="M259.703,34.242 L288.785,35.144 C303.183,35.591 309.871,44.603 309.521,55.861 C309.256,64.392 304.008,70.479 296.304,72.706 C300.938,77.163 304.82,81.245 309.015,81.376 C310.159,81.411 312.172,81.122 313.524,80.636 L314.91,94.412 C312.583,95.572 308.736,96.51 304.827,96.388 C292.908,96.018 284.638,82.644 277.503,75.732 L276.916,94.642 L257.846,94.049 L259.703,34.242 Z M277.948,61.396 L284.432,61.597 C288.246,61.715 290.044,59.13 290.137,56.14 C290.233,53.062 288.598,50.369 284.784,50.251 L278.3,50.05 L277.948,61.396 Z"/>
      <polygon fill="#223035" points="322.249 95.786 322.685 35.948 341.765 36.085 341.44 80.7 366.339 80.879 366.228 96.103"/>
      <polygon fill="#223035" points="373.917 36.152 392.996 36.003 393.463 95.841 374.384 95.99"/>
      <polygon fill="#223035" points="425.446 64.986 426.339 95.247 407.363 95.806 405.599 35.989 421.999 35.507 443.487 65.161 442.595 34.9 461.76 34.336 463.525 94.153 446.933 94.641"/>
      <path fill="#223035" d="M483.383 75.166C489.955 74.795 493.963 78.095 494.306 84.157 494.648 90.219 491.032 93.861 484.459 94.231 477.982 94.596 473.98 91.384 473.638 85.322 473.295 79.261 476.906 75.531 483.383 75.166zM516.666 68.684C517.329 74.015 518.671 76.193 521.712 75.924 524.563 75.672 526.087 73.416 525.545 67.28L522.266 30.199 541.273 28.517 544.528 65.335C545.715 78.747 539.589 89.625 522.674 91.122 508.039 92.417 499.772 84.49 498.561 71.875L516.666 68.684zM562.009 67.558C567.104 69.758 572.391 70.769 576.533 70.093 580.111 69.51 582.223 67.65 581.757 64.783 581.474 63.046 580.226 61.912 576.948 61.377L568.803 60.029C559.457 58.432 554.645 54.402 553.285 46.064 551.514 35.208 558.831 25.544 573.518 23.15 581.238 21.891 589.335 22.354 594.114 23.804L591.381 39.05C586.451 37.268 580.91 36.478 576.579 37.184 573.002 37.767 571.359 39.551 571.742 41.896 572.054 43.807 573.287 44.854 575.566 45.196L583.941 46.772C594.798 48.747 599.748 53.022 601.008 60.752 602.862 72.129 595.748 81.849 581.25 84.213 572.965 85.564 564.472 84.452 560.206 83.186L562.009 67.558z"/>
    </g>
  </g>
</svg>
