<svg xmlns="http://www.w3.org/2000/svg" xmlns:xlink="http://www.w3.org/1999/xlink" width="774" height="396" viewBox="0 0 774 396">
  <defs>
    <path id="full-steak-developer-a" d="M3.54431732,7.69229699 C3.54431732,7.69229699 3.54431732,7.69229699 3.54431732,7.69229699 L0,7.6923077 C0,5.66666667 0.842015327,3.68461539 2.31027955,2.25384615 C3.78117506,0.820512821 5.81516834,0 7.89389369,0 L63.1511495,0 C65.2298749,0 67.2612366,0.820512821 68.7321324,2.25384615 C70.2030279,3.68461539 71.0450432,5.66666667 71.0450432,7.6923077 C71.0266241,14.3179487 68.7189758,20.6512821 65.0009518,26.1102563 C61.2645088,31.5589743 56.0440138,36.2076924 49.6499599,39.1666667 C45.3925201,41.1282051 40.5904012,42.3102565 35.5225215,42.3076923 C27.9022829,42.3076923 20.9582877,39.6589744 15.4036179,35.6769231 C9.83052894,31.6769232 5.5099378,26.348718 2.82864525,20.3820513 C1.04988786,16.4 0.0026312979,12.1076923 0,7.6923077 L3.5443178,7.6923077 L3.54431732,7.69229699 Z"/>
  </defs>
  <g fill="none" fill-rule="evenodd" transform="translate(0 -65)">
    <path fill="#FFF" d="M197.474343,136.865648 L421.912509,74.6552252 C458.689088,64.4613863 498.061171,76.0883089 523.400159,104.625422 L544.701463,128.61524 C569.46503,156.504306 607.691087,168.294812 643.861886,159.20044 L717.637814,140.651064 C741.249746,134.71435 765.311413,148.589944 772,172 L772,172 C778.523628,194.832698 765.302514,218.630703 742.469816,225.154331 C742.252302,225.216478 742.034301,225.276907 741.815834,225.335613 L288.951892,347.027964 C287.561904,347.401477 286.258729,348.044146 285.116244,348.919536 L223.452482,396.167308 C218.63017,399.862242 211.725578,398.948321 208.030644,394.126009 C207.835541,393.871376 207.651669,393.608332 207.479557,393.337628 L139.797722,286.885744 C110.165692,240.279658 123.925883,178.476454 170.531969,148.844424 C178.871527,143.542154 187.950991,139.505359 197.474343,136.865648 Z"/>
    <g transform="translate(0 65)">
      <path fill="#FFED93" fill-rule="nonzero" d="M300.049,236.503 C287.776,207.468 284.593,176.468 281.514,146.486 C278.239,114.595 275.145,84.473 261.451,58.731 C245.284,28.339 217.124,9.893 175.362,2.34 C132.193,-5.469 87.882,8.633 53.795,41.029 C14.291,78.574 -5.056,133.882 2.041,188.978 C8.321,237.737 28.954,287.249 58.65,324.817 C95.182,371.034 141.62,395.463 192.944,395.463 C233.301,395.463 270.092,376.311 291.36,344.232 C312.403,312.49 315.57,273.224 300.049,236.503 Z M254.428,319.746 C241.196,339.705 218.786,351.152 192.944,351.152 C106.493,351.152 54.965,253.007 45.988,183.318 C40.689,142.181 55.019,100.996 84.32,73.147 C103.719,54.71 127.762,44.557 152.021,44.557 C157.196,44.557 162.395,45.023 167.475,45.942 C203.743,52.502 215.842,67.343 222.33,79.54 C231.951,97.627 234.492,122.367 237.434,151.015 C240.688,182.695 244.375,218.602 259.233,253.754 C268.87,276.552 267.119,300.605 254.428,319.746 Z"/>
      <path fill="#FF6339" d="M171.419,24.14 C88.235,9.095 11.925,92.286 24.014,186.147 C34.782,269.748 95.647,373.307 192.944,373.307 C261.145,373.307 306.746,309.253 279.641,245.128 C239.727,150.697 287.58,45.15 171.419,24.14 Z"/>
      <path fill="#EE5B33" d="M192.947,373.303 C181.137,373.303 169.867,371.783 159.167,368.943 L159.167,22.623 C163.227,22.893 167.317,23.393 171.417,24.143 C287.577,45.153 239.727,150.693 279.637,245.123 C306.746,309.253 261.147,373.303 192.947,373.303 Z"/>
      <circle cx="212.21" cy="250.03" r="36.04" fill="#FFED93"/>
    </g>
    <g transform="rotate(-36 379.908 38.375)">
      <g transform="translate(44.549 42.176)">
        <path fill="#000" d="M3.54431732,7.69229699 C3.54431732,7.69229699 3.54431732,7.69229699 3.54431732,7.69229699 L0,7.6923077 C0,5.66666667 0.842015327,3.68461539 2.31027955,2.25384615 C3.78117506,0.820512821 5.81516834,0 7.89389369,0 L63.1511495,0 C65.2298749,0 67.2612366,0.820512821 68.7321324,2.25384615 C70.2030279,3.68461539 71.0450432,5.66666667 71.0450432,7.6923077 C71.0266241,14.3179487 68.7189758,20.6512821 65.0009518,26.1102563 C61.2645088,31.5589743 56.0440138,36.2076924 49.6499599,39.1666667 C45.3925201,41.1282051 40.5904012,42.3102565 35.5225215,42.3076923 C27.9022829,42.3076923 20.9582877,39.6589744 15.4036179,35.6769231 C9.83052894,31.6769232 5.5099378,26.348718 2.82864525,20.3820513 C1.04988786,16.4 0.0026312979,12.1076923 0,7.6923077 L3.5443178,7.6923077 L3.54431732,7.69229699 Z"/>
        <mask id="full-steak-developer-b" fill="#fff">
          <use xlink:href="#full-steak-developer-a"/>
        </mask>
        <path fill="#E74144" d="M23.3567389,24.3336598 C23.3567389,24.3336598 23.3567389,24.3336598 23.3567389,24.3336598 L21.9,24.3336598 C21.9,23.6314377 22.2460741,22.9443266 22.8495407,22.4483267 C23.4540889,21.9514379 25.1444444,19.5555568 36.5,19.5555568 C47.8555556,19.5555568 49.5448297,21.9514379 50.1493777,22.4483267 C50.753926,22.9443266 51.1,23.6314377 51.1,24.3336598 C51.0924297,26.6305485 50.1439703,28.8261038 48.615837,30.7185482 C47.0801333,32.6074369 44.934474,34.2189922 42.306474,35.2447698 C40.556637,35.9247697 38.5829333,36.3345476 36.5,36.3336586 C33.3680297,36.3336586 30.514,35.4154365 28.2309926,34.0349922 C25.9404147,32.6483256 24.1646222,30.8012147 23.0625926,28.7327705 C22.3315111,27.3523262 21.9010815,25.8643264 21.9,24.3336598 L23.3567389,24.3336598 Z" mask="url(#full-steak-developer-b)" transform="matrix(1 0 0 -1 0 55.89)"/>
      </g>
      <g fill="#000" opacity=".2" transform="translate(.856 37.377)">
        <ellipse cx="7.273" cy="7.5" rx="7.273" ry="7.5"/>
        <ellipse cx="152.727" cy="7.5" rx="7.273" ry="7.5"/>
      </g>
      <path fill="#000" d="M27.488853 23.3490265C23.8576484 23.3490265 20.9145537 20.5382025 20.9145537 17.0701941 20.9145537 15.050503 19.1942787 13.4075419 17.0795457 13.4075419 14.9670042 13.4075419 13.2445378 15.050503 13.2445378 17.0701941 13.2445378 20.5382025 10.3036346 23.3490265 6.67023847 23.3490265 3.03903384 23.3490265.0959391626 20.5382025.0959391626 17.0701941.0959391626 8.12704382 7.71555206.849877044 17.0795457.849877044 26.4457308.849877044 34.0631523 8.12704382 34.0631523 17.0701941 34.0631523 20.5382025 31.1222491 23.3490265 27.488853 23.3490265M139.09541 23.3490265C135.464206 23.3490265 132.521111 20.5382025 132.521111 17.0701941 132.521111 15.050503 130.800836 13.4075419 128.686103 13.4075419 126.573562 13.4075419 124.851095 15.050503 124.851095 17.0701941 124.851095 20.5382025 121.910192 23.3490265 118.276796 23.3490265 114.645591 23.3490265 111.702497 20.5382025 111.702497 17.0701941 111.702497 8.12704382 119.322109.849877044 128.686103.849877044 138.052288.849877044 145.66971 8.12704382 145.66971 17.0701941 145.66971 20.5382025 142.728807 23.3490265 139.09541 23.3490265" transform="translate(7.87 .858)"/>
    </g>
    <text fill="#232323" font-family="SpaceMono-Bold, Space Mono" font-size="80" font-weight="bold" letter-spacing="1" transform="rotate(-15 520.094 161.444)">
      <tspan x="295.094" y="144.944">FULL</tspan> <tspan x="295.094" y="215.944">STEAK</tspan> <tspan x="295.094" y="286.944">DEVELOPER</tspan>
    </text>
  </g>
</svg>
