<?xml version="1.0" encoding="UTF-8"?>
<svg id="Layer_1" data-name="Layer 1" xmlns="http://www.w3.org/2000/svg" viewBox="0 0 864 316.8">
  <defs>
    <style>
      .cls-1 {
        fill: #62bb46;
      }

      .cls-2 {
        fill: #133a5a;
      }

      .cls-3 {
        fill: #da1a32;
      }

      .cls-4 {
        fill: #ffce34;
      }

      .cls-5 {
        fill: #7337aa;
      }

      .cls-6 {
        fill: #008364;
      }
    </style>
  </defs>
  <g>
    <path class="cls-2" d="M432.7,146.01c-12.58,0-20.17-11.87-20.17-29.51s7.44-29.35,20.17-29.35,20.17,11.71,20.17,29.35-7.67,29.51-20.17,29.51ZM432.7,96.09c-6.96,0-10.36,8.94-10.36,20.41s3.4,20.49,10.36,20.49,10.36-9.02,10.36-20.49-3.56-20.41-10.36-20.41Z"/>
    <path class="cls-2" d="M477.71,122.12h-6.65v22.47h-9.34v-56.01h15.51c7.28,0,15.82,3.88,15.82,16.54,0,11.47-7.44,17.01-15.35,17.01ZM476.45,96.56h-5.38v17.8h5.38c4.43,0,7.6-3.16,7.6-9.18s-3.16-8.62-7.6-8.62Z"/>
    <path class="cls-2" d="M500.89,144.59v-56.01h25.08v8.39h-15.98v14.87h14.79v7.75h-14.79v16.54h16.77v8.47h-25.87Z"/>
    <path class="cls-2" d="M559.91,144.59l-15.9-39.56h-.24l.16,39.56h-8.54v-56.01h10.84l15.74,39.8h.24l-.08-39.8h8.23v56.01h-10.44Z"/>
    <path class="cls-2" d="M619.17,99.41c-2.06-2.45-4.75-3.72-7.75-3.72-3.56,0-7.12,2.29-7.12,7.83,0,4.75,3.17,6.88,7.75,9.18,5.54,2.77,12.03,6.8,12.03,16.3,0,10.92-7.36,17.01-16.06,17.01-6.17,0-11.79-2.69-14.95-6.41l5.14-6.96c2.45,2.93,6.09,4.75,9.65,4.75,3.96,0,6.96-2.93,6.96-7.83s-3.48-7.28-8.39-9.73c-6.01-3.01-11.23-6.8-11.23-15.98,0-11.55,8.15-16.69,15.9-16.69,5.62,0,10.28,1.9,13.29,5.46l-5.22,6.8Z"/>
    <path class="cls-2" d="M650.42,146.01c-12.58,0-20.17-11.87-20.17-29.51s7.44-29.35,20.17-29.35,20.17,11.71,20.17,29.35-7.67,29.51-20.17,29.51ZM650.42,96.09c-6.96,0-10.36,8.94-10.36,20.41s3.4,20.49,10.36,20.49,10.36-9.02,10.36-20.49-3.56-20.41-10.36-20.41Z"/>
    <path class="cls-2" d="M696.07,146.01c-12.9,0-17.48-9.49-17.48-21.28v-36.16h9.49v35.29c0,7.04,1.66,13.21,8.15,13.21s8.15-6.17,8.15-13.21v-35.29h9.42v36.16c0,11.79-4.83,21.28-17.72,21.28Z"/>
    <path class="cls-2" d="M747.49,144.59l-8.7-23.89h-5.3v23.89h-9.18v-56.01h15.98c9.26,0,15.9,4.83,15.9,15.98,0,8.7-4.83,13.13-8.78,14.24l10.05,25.79h-9.97ZM738.86,96.48h-5.38v17.25h5.38c4.59,0,7.99-2.93,7.99-8.7,0-6.8-4.19-8.54-7.99-8.54Z"/>
    <path class="cls-2" d="M783.09,146.01c-12.66,0-20.65-12.42-20.65-29.43s8.15-29.43,20.65-29.43c6.41,0,11.39,2.53,14.4,6.88l-5.46,6.65c-2.14-3.09-4.91-4.67-8.39-4.67-7.6,0-11.39,9.18-11.39,20.57s3.8,20.49,11.55,20.49c3.64,0,6.41-2.21,8.15-4.91l5.46,6.41c-2.93,4.35-7.44,7.44-14.32,7.44Z"/>
    <path class="cls-2" d="M804.13,144.59v-56.01h25.08v8.39h-15.98v14.87h14.79v7.75h-14.79v16.54h16.77v8.47h-25.87Z"/>
    <path class="cls-2" d="M433.17,221.42c-12.66,0-20.65-12.42-20.65-29.43s8.15-29.43,20.65-29.43c6.41,0,11.39,2.53,14.4,6.88l-5.46,6.65c-2.14-3.09-4.91-4.67-8.39-4.67-7.6,0-11.39,9.18-11.39,20.57s3.8,20.49,11.55,20.49c3.64,0,6.41-2.21,8.15-4.91l5.46,6.41c-2.93,4.35-7.44,7.44-14.32,7.44Z"/>
    <path class="cls-2" d="M470.99,221.42c-12.58,0-20.17-11.87-20.17-29.51s7.44-29.35,20.17-29.35,20.17,11.71,20.17,29.35-7.67,29.51-20.17,29.51ZM470.99,171.49c-6.96,0-10.36,8.94-10.36,20.41s3.4,20.49,10.36,20.49,10.36-9.02,10.36-20.49-3.56-20.41-10.36-20.41Z"/>
    <path class="cls-2" d="M524.55,219.99l-15.9-39.56h-.24l.16,39.56h-8.54v-56.01h10.84l15.74,39.8h.24l-.08-39.8h8.23v56.01h-10.44Z"/>
    <path class="cls-2" d="M555.88,172.52v15.27h14.4v8.15h-14.32v24.05h-9.57v-56.01h25.08v8.54h-15.59Z"/>
    <path class="cls-2" d="M579.37,219.99v-56.01h25.08v8.39h-15.98v14.87h14.79v7.75h-14.79v16.54h16.77v8.47h-25.87Z"/>
    <path class="cls-2" d="M637.05,219.99l-8.7-23.89h-5.3v23.89h-9.18v-56.01h15.98c9.26,0,15.9,4.83,15.9,15.98,0,8.7-4.83,13.13-8.78,14.24l10.05,25.79h-9.97ZM628.42,171.89h-5.38v17.25h5.38c4.59,0,7.99-2.93,7.99-8.7,0-6.8-4.19-8.54-7.99-8.54Z"/>
    <path class="cls-2" d="M654.45,219.99v-56.01h25.08v8.39h-15.98v14.87h14.79v7.75h-14.79v16.54h16.77v8.47h-25.87Z"/>
    <path class="cls-2" d="M713.47,219.99l-15.9-39.56h-.24l.16,39.56h-8.54v-56.01h10.84l15.74,39.8h.24l-.08-39.8h8.23v56.01h-10.44Z"/>
    <path class="cls-2" d="M753.5,221.42c-12.66,0-20.65-12.42-20.65-29.43s8.15-29.43,20.65-29.43c6.41,0,11.39,2.53,14.4,6.88l-5.46,6.65c-2.14-3.09-4.91-4.67-8.39-4.67-7.6,0-11.39,9.18-11.39,20.57s3.8,20.49,11.55,20.49c3.64,0,6.41-2.21,8.15-4.91l5.46,6.41c-2.93,4.35-7.44,7.44-14.32,7.44Z"/>
    <path class="cls-2" d="M774.54,219.99v-56.01h25.08v8.39h-15.98v14.87h14.79v7.75h-14.79v16.54h16.77v8.47h-25.87Z"/>
  </g>
  <path class="cls-1" d="M34,158.39v114.15h114.14v-114.15H34ZM119.87,244.72l8.27,10.19h-34.72c-4.43,0-8.69-.73-12.67-2.08-15.56-5.28-26.76-20.01-26.76-37.36s11.2-32.07,26.76-37.36c3.98-1.35,8.24-2.08,12.67-2.08h34.72l-8.27,10.19c-13.84,17.04-13.84,41.46,0,58.5Z"/>
  <path class="cls-4" d="M148.14,44.25v114.14h114.14V44.25h-114.14ZM205.22,140.76c-21.79,0-39.44-17.65-39.44-39.44s17.65-39.43,39.44-39.43,39.43,17.65,39.43,39.43-17.65,39.44-39.43,39.44Z"/>
  <path class="cls-3" d="M148.14,158.39v114.15h114.14v-114.15h-114.14ZM205.22,254.91c-21.79,0-39.44-17.66-39.44-39.44s17.65-39.44,39.44-39.44,39.43,17.66,39.43,39.44-17.65,39.44-39.43,39.44Z"/>
  <path class="cls-6" d="M262.28,44.25v114.14h114.15V44.25h-114.15ZM340.35,85.62c9.41,4.85,15.86,14.65,15.86,25.96,0,16.11-13.06,29.17-29.17,29.17h-47.39l18.83-23.18c-.05-.18-.07-.37-.11-.55-9.41-4.85-15.86-14.65-15.86-25.96,0-16.12,13.06-29.17,29.17-29.17h47.39l-18.83,23.18c.05.18.08.37.11.55Z"/>
  <path class="cls-5" d="M262.28,158.39v114.15h114.15v-114.15h-114.15ZM358.8,252.55h-78.88v-34.72c0-21.79,17.66-39.44,39.44-39.44s39.44,17.65,39.44,39.44v34.72Z"/>
  <path class="cls-2" d="M34.21,44.47v113.93h113.93V44.47H34.21ZM69.37,132.69h-14.25v-4.59l6.96-5.55c.54-.43.96-.98.96-1.55,0-.64-.39-1.23-1.29-1.23-.94,0-1.64.82-1.72,2.11l-5.63-.65c.45-4.57,4.1-6.6,7.84-6.6,3.48,0,7.08,1.62,7.08,5.73,0,2.91-1.66,4.32-3.43,5.55l-2.58,1.84h6.06v4.94ZM53.09,87.19c0-11.79,9.22-18.67,19.71-18.67,3.61,0,6.87.5,9.87,1.66v5.22h-.04c-3.11-1.3-6.68-1.85-9.78-1.85-9.03,0-13.89,5.87-13.89,13.59s5.67,13.64,13.64,13.64c2.86,0,5.16-.4,7.32-1.45v-8.24h-8.67v-5.06h13.95v16.2c-3.51,2.21-7.78,3.51-12.89,3.51-10.43,0-19.21-7.43-19.21-18.56ZM81.37,133.19c-6.45,0-7.89-5.46-7.89-9.39s1.44-9.18,7.89-9.18,7.89,5.26,7.89,9.18-1.41,9.39-7.89,9.39ZM107.68,132.69h-14.25v-4.59l6.96-5.55c.54-.43.96-.98.96-1.55,0-.64-.39-1.23-1.29-1.23-.94,0-1.64.82-1.72,2.11l-5.63-.65c.45-4.57,4.1-6.6,7.84-6.6,3.48,0,7.08,1.62,7.08,5.73,0,2.91-1.67,4.32-3.43,5.55l-2.58,1.84h6.06v4.94ZM119.24,133.34c-3.6,0-7.18-1.97-7.85-5.45l5.51-1.4c.19.98,1.04,1.8,2.14,1.8.85,0,1.66-.35,1.66-1.35,0-1.2-1.71-1.5-3.15-1.5-1.08,0-3.11.22-4.63.53l.63-10.84h12.04v4.96h-7.01l-.1,1.28c.48-.08.98-.13,1.32-.13,3.66,0,6.83,1.71,6.83,5.65,0,4.91-3.97,6.46-7.38,6.46ZM118.39,104.8h-1.46l-8.87-19.47-8.57,19.47h-1.46l-10.94-35.21h5.58l6.97,23.42,8.12-18.05h1.05l8.18,17.95,7.02-23.31h5.26l-10.88,35.21Z"/>
</svg>