<svg xmlns="http://www.w3.org/2000/svg" width="1024" height="320" viewBox="0 0 1024 320">
  <g fill="none" fill-rule="evenodd">
    <g fill-rule="nonzero" transform="translate(738 67)">
      <path fill="#D3D1CD" d="M68,155.952823 L68,178.273858 L51.9397429,183 L50,136 C53.2834961,137.071753 64.6328432,155.474408 68,155.952823 Z"/>
      <polygon fill="#726D65" points="51 177 67 177 67 186 51 186"/>
      <path fill="#D3D1CD" d="M124,141.677515 L124,178.438696 L107.527122,185 L105,139.414805 C108.903608,137.299126 121.162561,144.091688 123.918433,141.582204 L124,141.677515 Z"/>
      <polygon fill="#726D65" points="106 177 122 177 122 186 106 186"/>
      <g transform="translate(0 69)">
        <path fill="#FCACDF" d="M23.3671011,76.6512284 C17.4654842,88.5139528 0.929018398,89 0.929018398,89 C0.929018398,89 11.6413957,80.0481502 3.65925326,58.9826198 C-4.326893,37.9167288 -0.125439727,0 25.0920155,0 C41.4322946,0 46.4756401,11.9276269 48,20.3205946 C47.0354456,20.275884 17.2365391,69.8288998 23.9352782,76.1247974 L23.3671011,76.6512284 Z"/>
        <path fill="#DB91C5" d="M13.8177303,50.6710877 C13.2424721,60.6876764 17.2412982,69.7825929 23.9292657,76.093698 L23.3620022,76.6214005 C17.4698752,88.5127788 0.96,89 0.96,89 C0.96,89 11.6551518,80.0265274 3.68584464,58.9101141 C3.06152774,57.258333 2.5146145,55.5049872 2.04147096,53.6706788 C5.93418497,49.7945955 8.31734577,44.5226306 9.72914506,40.2207709 C11.136947,35.9145739 11.5733874,32.5784821 11.5733874,32.5784821 C11.7816141,7.11936636 33.6,22.7202041 33.6,22.7202041 L33.4001314,23.004296 C22.635934,27.9632538 14.4991006,38.7591073 13.8177303,50.6710877 Z"/>
      </g>
      <g fill="#847E74" transform="translate(47 177)">
        <polygon points="53.323 .046 66.894 .046 66.894 9 53.323 9"/>
        <polygon points=".249 .438 11.238 .438 11.238 9 .249 9"/>
      </g>
      <g transform="translate(13 2)">
        <path fill="#EDEAE4" d="M126.112631,94.0972407 C123.650871,94.1870113 121.104099,93.9544074 118.520426,93.3587232 L118.435052,93.7381584 C119.799963,96.8601396 120.933349,100.426976 121.607665,104.242771 C123.590096,115.469546 121.603686,128.851542 109.90083,139.343798 C107.150749,141.812671 103.864544,144.118721 99.9691391,146.199799 L99.9691391,175.603846 L86.5602349,175.603846 L86.5602349,152.431768 C86.5602349,152.431768 70.9576332,156.231208 54.7863486,153.905169 C51.496164,153.431601 48.1853592,152.705441 44.9762083,151.644185 L44.9762083,176 L34.1180564,176 L34.1180564,155.369847 C34.1180564,155.369847 30.4093183,154.647684 25.5389768,152.749781 C20.0225365,151.366151 15.0628409,148.570906 11.0697614,144.759109 C4.41197605,138.413018 0.431196325,129.267322 1.00385848,119.195571 C1.9096993,103.16516 16.1108524,89.1507723 32.0788293,88.5020253 C33.0577451,88.4613197 34.0287023,88.4653175 34.9873597,88.5100211 C40.341371,88.7669758 45.3578625,90.330147 49.7246375,92.889154 C51.3861897,93.8602755 52.9540468,94.9745938 54.408312,96.215027 C57.6540005,98.9779259 64.8193316,63.0526088 64.8193316,39.4723831 C64.8193316,15.8921574 89.1554834,20.9363922 89.1554834,20.9363922 C89.1554834,17.8387618 89.5374993,15.2514062 90.1669574,13.0885529 C93.2216379,2.61265239 102.137875,2.07366542 102.137875,2.07366542 L102.137875,19.8874938 L102.158134,19.8874938 C102.6863,1.75528876 115.124247,0.951351351 115.124247,0.951351351 L115.124247,19.972903 C109.388581,22.7968604 126.965294,32.4161242 126.965294,32.4161242 L126.969273,32.420122 C128.70788,35.0158368 130.535841,37.6766079 132.436876,40.3617298 C134.024992,42.6063579 135.662306,44.8713389 137.339776,47.1239628 C137.339776,47.1239628 137.339776,47.1279607 137.343755,47.1319586 C137.445409,47.2667962 137.546701,47.4052682 137.648355,47.5401058 C139.549391,50.0827578 141.499264,52.6046935 143.485674,55.0819256 C158.678405,73.9940807 144.985159,93.4361367 126.112631,94.0972407 Z"/>
        <path fill="#D3D1CD" d="M48.8131608 64.4649793C78.3060034 64.4649793 86.2635424 49.128418 86.2635424 49.128418L86.2635424 64.0488091C86.2639054 64.0491722 64.6030063 71.4338325 48.8131608 64.4649793zM14.681627 34.6608753C14.681627 57.0883083 33.6429449 66.985242 33.6429449 66.985242 33.6429449 66.985242 29.9215376 66.2636624 25.0345588 64.3672918 19.499274 62.9847788 14.5226359 60.1917903 10.5159159 56.3830705 3.83538719 50.042104-.158991065 40.9037912.415627327 30.8401716 1.32456255 14.8227036 15.5742275.819993258 31.5967517.171406917 32.5790115.130734089 33.5532856.134728742 34.5152178.179396222 34.5152178.179396222 14.681627 11.0099892 14.681627 34.6608753z" transform="translate(0 88.476)"/>
        <path fill="#B5B4B4" d="M7.58640906 18.9143009L.233777482 18.9143009C.233777482 18.9143009 3.21279147 3.27731566 7.58640906 1.31824987L7.58640906 18.9143009zM20.7406063 17.8057073L13.3879747 17.8057073C13.3879747 17.8057073 16.3669887 2.16872208 20.7406063.209656298L20.7406063 17.8057073z" transform="translate(93.987)"/>
        <path fill="#FCACDF" d="M90.1898734,12.6390238 C89.8740093,13.7123436 89.6238742,14.8881982 89.4478667,16.1794045 C89.2674773,17.5075965 89.1688839,18.9632247 89.1688839,20.546289 C89.1688839,20.546289 68.8396526,23.1572648 68.8396526,46.916046 C68.8396526,70.6748272 83.4081073,86.9416092 66.7319446,97.2049779 C66.6129022,97.2789494 66.4942249,97.3613435 66.367149,97.435315 C66.199175,97.538216 66.0268191,97.6367227 65.8504464,97.7315674 C64.8130247,98.2907483 63.7058572,98.6525497 62.5782407,98.821366 C59.5974332,99.2776459 56.4727523,98.4141563 54.0948253,96.3953191 C52.6268789,95.1451267 51.0442721,94.0227367 49.3670886,93.0442616 C63.5911967,84.3350278 50.7857383,71.2468249 54.5049009,39.7906088 C58.3018427,7.71698656 90.1898734,12.6390238 90.1898734,12.6390238 Z"/>
        <path fill="#DB91C5" d="M89.2405063,16.172973 C89.063102,17.4878939 88.9661401,18.9289777 88.9661401,20.4962242 C88.9661401,20.4962242 68.9733191,23.0811116 68.9733191,46.6024988 C68.9733191,70.1238861 83.3006935,86.228133 66.9004896,96.3889518 C66.7834171,96.4621842 66.6667037,96.543755 66.5417306,96.6169874 C66.3765363,96.7188603 66.2070326,96.8163827 66.0335786,96.9102797 C65.0133241,97.4638734 63.9244782,97.8220597 62.8155216,97.9891892 C77.8284524,78.8073674 62.6582278,75.0213956 62.6582278,45.2266717 C62.6582278,19.6656525 81.9737522,16.4702531 89.2405063,16.172973 Z"/>
      </g>
      <path fill="#666" d="M28.6219701 33.7356774C27.3066269 33.7356774 26.2090746 32.6133118 26.2087164 31.2726882 26.2083582 29.9342581 27.3112836 28.8096989 28.6219701 28.8096989 29.9358806 28.8096989 31.0341493 29.9320645 31.0352239 31.2726882 31.0366567 32.6155054 29.9398209 33.7356774 28.6219701 33.7356774zM45.5799403 30.7842581C44.2678209 30.7842581 43.1666866 29.6593333 43.1666866 28.3212688 43.1666866 27.0036774 44.2244776 25.8952043 45.5165373 25.8597419 46.8118209 25.8242796 47.9247761 26.8812043 47.9903284 28.1987957 48.0591045 29.581828 46.937194 30.7842581 45.5799403 30.7842581zM1.35976119 11.3954839C.649791045 10.5542581.322746269 9.44651613.300179104 8.29892473.288358209 7.15243011.601074627 5.95987097 1.20752239 4.9087957 1.81038806 3.85443011 2.70125373 2.93862366 3.76979104 2.28202151 4.8361791 1.62176344 6.08023881 1.22765591 7.33110448 1.14247312 8.58161194 1.05582796 9.86686567 1.27956989 11.0099104 1.79066667 12.1543881 2.29883871 13.1573731 3.08632258 13.8906269 4.05221505 14.6278209 5.01372043 15.0913433 6.15582796 15.2260299 7.29537634 15.3496119 8.43748387 15.166209 9.58105376 14.5654925 10.5100215 13.1656119 8.84658065 11.904 8.10735484 10.7591642 7.69752688 9.61253731 7.30122581 8.67474627 7.2376129 7.72692537 7.28587097 6.7798209 7.35789247 5.85528358 7.54690323 4.76704478 8.09309677 3.68167164 8.6531828 2.52680597 9.55948387 1.35976119 11.3954839zM36.4896716 7.22883871C35.9910448 6.91698925 35.5121194 6.69909677 35.0536119 6.53494624 33.9073433 6.1368172 32.9659701 6.07503226 32.0206567 6.12036559 31.071403 6.19421505 30.1461493 6.38322581 29.0604179 6.92905376 27.9743284 7.48731183 26.8201791 8.39470968 25.6534925 10.2296129 24.9417313 9.39204301 24.6157612 8.28393548 24.5917612 7.13415054 24.5838806 5.98875269 24.8933731 4.79436559 25.5008955 3.74329032 26.1041194 2.68819355 26.993194 1.77275269 28.0631642 1.11615054 29.0446567.51255914 30.1830448.126860215 31.3293134.00767741935 32.9018507 2.26556989 34.5231045 4.54393548 36.1841194 6.80987097 36.1841194 6.80987097 36.1841194 6.81389247 36.1880597 6.81791398 36.2883582 6.95354839 36.3890149 7.0932043 36.4896716 7.22883871z" transform="translate(114 42)"/>
      <path fill="#E58376" d="M114.032853,67 L107.967147,67 C106.328558,67 105,65.6567324 105,64 C105,62.3432676 106.328558,61 107.967147,61 L114.032853,61 C115.671442,61 117,62.3432676 117,64 C117,65.6567324 115.671442,67 114.032853,67 Z"/>
      <path fill="#D3D1CD" d="M.174288462.220463918C.272576923.402680412.994942308 1.72365979 2.31178846 3.77783505 1.46263462 2.62319588.740634615 1.43608247.174288462.220463918zM37.8260769 34.9227835C19.2031538 27.5204639 7.00551923 11.0747938 2.32019231 3.79010309 11.3546923 16.0545361 34.6216538 24.493866 34.6216538 24.493866 36.00025 27.5933505 37.145 31.1344845 37.8260769 34.9227835z" transform="translate(97 70)"/>
      <g transform="translate(124)">
        <path fill="#F9D780" d="M48,0 L36.5607322,12.2503752 L33.5321112,15.498005 L24.3051158,25.3820801 L21.6583411,28.216958 L16.6746388,33.551398 L15.1622984,35.1732319 C14.6274988,35.743377 14.0361028,36.2328446 13.3967074,36.6333507 C12.4675243,37.2197033 11.4459244,37.6202095 10.3960264,37.8305473 C8.26040984,38.2551847 5.99977983,37.8870936 4.09305609,36.6657658 C3.80362668,36.4795592 3.52601802,36.2775053 3.25628986,36.0549218 C3.19181301,36.0023374 3.13163462,35.9497529 3.06715777,35.8932067 C-1.74353166,31.7761326 -0.729812294,24.0192065 4.94952359,21.2207054 L8.89944707,19.2754411 L12.4471066,17.524307 L22.2089017,12.7117497 L26.4804931,10.608732 L33.8613014,6.96887981 L37.6421522,5.10465314 L48,0 Z"/>
        <path fill="#F9E9C7" d="M48,0 L16.4404811,33.5520126 L14.9168186,35.1738937 C11.995082,38.280068 7.27829623,38.8988536 3.76470588,36.6661108 L48,0 Z"/>
        <path fill="#E0BE70" d="M24.3525509 25.1615245L21.7234663 28.0062065C20.0294519 21.9677174 21.0563214 16.2617283 22.270703 12.4470136L26.5137446 10.3367228C25.4673056 12.6497663 23.2217848 18.61525 24.3525509 25.1615245zM37.6011593 4.81324728C37.0297274 6.80174185 36.5422669 9.2774212 36.5262554 11.9840435L33.5178766 15.2429049C33.1222152 12.1343913 33.3581176 9.2000788 33.8455782 6.6839212L37.6011593 4.81324728zM13.5170502 36.4513451C12.5940775 37.0397255 11.5793056 37.4416168 10.5364247 37.6526821 8.29090387 30.4045435 8.45884648 23.6273261 9.05020373 19.0334049L12.5741521 17.2762147C11.8511449 21.2936821 11.155891 28.6310897 13.5170502 36.4513451z"/>
      </g>
    </g>
    <g fill-rule="nonzero" transform="translate(395 128)">
      <path fill="#FCACDF" d="M24.3407303,80.9574772 C18.1932128,93.4866468 0.967727498,94 0.967727498,94 C0.967727498,94 12.1264539,84.5452372 3.81172215,62.2962501 C-4.50718021,40.0468821 -0.130666383,0 26.1375162,0 C43.1586403,0 48.4121251,12.5977183 50,21.462201 C14.536992,21.462201 9.53376759,59.5281729 16.5116209,66.1777727 L24.3407303,80.9574772 Z"/>
      <path fill="#DB91C5" d="M14.3934691,53.517778 C13.7942418,64.0970964 17.9596856,73.7029633 24.9263185,80.3686248 L24.335419,80.9259735 C18.1977867,93.4854068 1,94 1,94 C1,94 12.1407831,84.5223997 3.8394215,62.2196711 C3.18909139,60.4750933 2.61939011,58.6232449 2.12653225,56.6858855 C6.18144268,52.5920447 8.66390185,47.023902 10.1345261,42.4803648 C11.6009864,37.9322466 12.0556118,34.4087339 12.0556118,34.4087339 C12.2725147,7.51933077 35,23.9966201 35,23.9966201 L34.7918035,24.2966722 C23.579098,29.5342231 15.1032298,40.9365852 14.3934691,53.517778 Z"/>
    </g>
    <g fill-rule="nonzero" transform="translate(497 119)">
      <path fill="#EDEAE4" d="M80.7749723,60.0646875 C79.205927,60.1216118 77.5826972,59.9741155 75.935949,59.5963865 L75.8815339,59.8369899 C76.7514837,61.8166677 77.473867,64.0784322 77.903654,66.4980639 C79.1671908,73.617068 77.9011177,82.102718 70.4421001,88.7559562 C68.6892886,90.3214918 66.5947688,91.78378 64.1119651,93.1034115 L64.1119651,111.748795 L55.565568,111.748795 L55.565568,97.0551616 C55.565568,97.0551616 45.6209798,99.4644225 35.3139318,97.9894589 C33.2168757,97.6891655 31.1066769,97.2287003 29.0612691,96.5557482 L29.0612691,112 L22.1406381,112 L22.1406381,98.9182251 C22.1406381,98.9182251 19.7768097,98.460295 16.6726133,97.2568168 C13.1566145,96.3794439 9.99546674,94.6069525 7.45040844,92.1898559 C3.20695374,88.1657403 0.669734897,82.3663678 1.03473103,75.9797753 C1.61208435,65.8147409 10.663435,56.9280851 20.8409014,56.5167086 C21.4648303,56.4908967 22.0836867,56.4934318 22.6947036,56.5217788 C26.1071753,56.6847161 29.304523,57.6759378 32.0877626,59.2986282 C33.1467817,59.9144255 34.1460825,60.6210253 35.0729836,61.4075957 C37.1416793,63.1595759 41.7086271,40.3789934 41.7086271,25.4265498 C41.7086271,10.4741061 57.2196945,13.672703 57.2196945,13.672703 C57.2196945,11.7084663 57.463179,10.0677997 57.864375,8.69631404 C59.8113284,2.05344667 65.4942467,1.71166994 65.4942467,1.71166994 L65.4942467,13.0075866 L65.5071588,13.0075866 C65.8437945,1.5097843 73.7713352,1 73.7713352,1 L73.7713352,13.0617454 C70.1156096,14.8524434 81.3184315,20.9521094 81.3184315,20.9521094 L81.3209678,20.9546445 C82.4290988,22.6006117 83.5941812,24.2878318 84.8058392,25.9904929 C85.8180521,27.4138328 86.8616229,28.8500786 87.9307871,30.2784887 C87.9307871,30.2784887 87.9307871,30.2810238 87.9333234,30.2835588 C87.9981143,30.3690606 88.0626746,30.4568671 88.1274654,30.5423689 C89.3391234,32.1546885 90.5819087,33.7538717 91.8479819,35.3247079 C101.531332,47.317084 92.8037045,59.6454751 80.7749723,60.0646875 Z"/>
      <path fill="#D3D1CD" d="M31.0759244 41.0386452C49.8519538 41.0386452 54.9179622 31.2753333 54.9179622 31.2753333L54.9179622 40.7737097C54.9181933 40.7739409 41.1282143 45.475043 31.0759244 41.0386452zM9.34676471 22.0652419C9.34676471 36.342629 21.4181092 42.6430538 21.4181092 42.6430538 21.4181092 42.6430538 19.0489496 42.1836935 15.9377521 40.976457 12.4138235 40.0963441 9.24554622 38.3183172 6.6947479 35.893672 2.44172269 31.8569892-.101218487 26.0395054.26460084 19.6329677.843256303 9.43618817 9.91502101.522010753 20.1154412.10911828 20.7407773.0832258065 21.3610294.0857688172 21.9734244.114204301 21.9734244.114204301 9.34676471 7.009 9.34676471 22.0652419z" transform="translate(0 56)"/>
      <path fill="#B5B4B4" d="M4.72196491 11.9289057L.145508772 11.9289057C.145508772 11.9289057 1.9997193 2.0669434 4.72196491.831396226L4.72196491 11.9289057zM12.9094561 11.2297358L8.333 11.2297358C8.333 11.2297358 10.1872105 1.36777358 12.9094561.132226415L12.9094561 11.2297358z" transform="translate(60)"/>
      <path fill="#FCACDF" d="M58,8.17245676 C57.7988264,8.85433918 57.6395155,9.60136219 57.5274165,10.4216684 C57.4125266,11.2654717 57.3497325,12.1902355 57.3497325,13.1959597 C57.3497325,13.1959597 44.4020609,14.8547183 44.4020609,29.9487243 C44.4020609,45.0427302 53.6806984,55.3770526 43.0596633,61.8973932 C42.9838453,61.9443875 42.9082598,61.9967326 42.8273253,62.0437269 C42.7203428,62.1091002 42.6105694,62.1716817 42.4982378,62.2319367 C41.8375047,62.5871856 41.1323506,62.8170388 40.4141725,62.9242882 C38.5156985,63.2141638 36.5255917,62.6655869 35.0110918,61.3830152 C34.0761579,60.5887653 33.0681969,59.8757084 32,59.254081 C41.0593234,53.7210856 32.9035369,45.4061216 35.2722686,25.4219184 C37.690538,5.04547566 58,8.17245676 58,8.17245676 Z"/>
      <path fill="#DB91C5" d="M57,10 C56.8865457,10.8357254 56.8245363,11.7516362 56.8245363,12.7477324 C56.8245363,12.7477324 44.0386512,14.3906114 44.0386512,29.3401188 C44.0386512,44.2896263 53.2013483,54.5250158 42.7130274,60.9829358 C42.6381567,61.0294802 42.5635158,61.0813242 42.4835925,61.1278686 C42.3779468,61.192616 42.2695451,61.2545984 42.1586171,61.3142766 C41.5061401,61.6661246 40.8097972,61.8937774 40.1005931,62 C49.7017198,49.8085937 40,47.4023405 40,28.4656833 C40,12.2198452 52.3527377,10.1889426 57,10 Z"/>
    </g>
    <g fill-rule="nonzero" transform="translate(282 155)">
      <path fill="#F9D780" d="M51,0 L38.8457779,12.8951318 L35.6278682,16.3136895 L25.8241855,26.717979 L23.0119874,29.702061 L17.7168037,35.317261 L16.1099421,37.0244547 C15.5417175,37.6246074 14.9133592,38.1398364 14.2340016,38.5614218 C13.2467446,39.1786351 12.1612947,39.6002206 11.045778,39.8216288 C8.77668546,40.2686155 6.37476607,39.8811512 4.3488721,38.595543 C4.04135335,38.3995361 3.74639414,38.1868477 3.45980798,37.9525493 C3.39130132,37.8971973 3.32736178,37.8418452 3.25885513,37.7823228 C-1.85250239,33.4485607 -0.775425563,25.2833752 5.25886881,22.3375847 L9.45566251,20.289938 L13.2250508,18.446639 L23.5969581,13.3807891 L28.1355239,11.1670863 L35.9776327,7.33566296 L39.9947867,5.37331909 L51,0 Z"/>
      <path fill="#F9E9C7" d="M51,0 L17.4680112,35.317908 L15.8491197,37.0251513 C12.7447746,40.2948084 7.73318975,40.9461617 4,38.5959061 L51,0 Z"/>
      <path fill="#E0BE70" d="M25.8745854 26.4858152L23.0811829 29.4802174C21.2812927 23.123913 22.3723415 17.1176087 23.662622 13.1021196L28.1708537 10.8807609C27.0590122 13.3155435 24.6731463 19.595 25.8745854 26.4858152zM39.9512317 5.06657609C39.3440854 7.15972826 38.8261585 9.76570652 38.8091463 12.6147826L35.6127439 16.045163C35.1923537 12.7730435 35.443 9.68429348 35.9609268 7.03570652L39.9512317 5.06657609zM14.3618659 38.369837C13.3812073 38.9891848 12.3030122 39.4122283 11.1949512 39.6344022 8.80908537 32.0047826 8.98752439 24.8708696 9.61584146 20.035163L13.3600366 18.1854891C12.5918415 22.4144022 11.8531341 30.1379891 14.3618659 38.369837z"/>
    </g>
    <path fill="#575757" d="M126.672,181.112 C127.392004,181.112 128.087997,180.974001 128.76,180.698 C129.432003,180.421999 130.151996,180.020003 130.92,179.492 L133.44,183.092 C132.527995,183.860004 131.472006,184.471998 130.272,184.928 C129.071994,185.384002 127.764007,185.612 126.348,185.612 C124.30799,185.612 122.550007,185.192004 121.074,184.352 C119.597993,183.511996 118.464004,182.336008 117.672,180.824 C116.879996,179.311992 116.484,177.56001 116.484,175.568 C116.484,173.57599 116.891996,171.800008 117.708,170.24 C118.524004,168.679992 119.681993,167.456004 121.182,166.568 C122.682007,165.679996 124.43999,165.236 126.456,165.236 C127.872007,165.236 129.143994,165.433998 130.272,165.83 C131.400006,166.226002 132.455995,166.831996 133.44,167.648 L130.992,171.068 C129.599993,170.107995 128.172007,169.628 126.708,169.628 C123.851986,169.628 122.424,171.60798 122.424,175.568 C122.424,177.56001 122.795996,178.981996 123.54,179.834 C124.284004,180.686004 125.327993,181.112 126.672,181.112 Z M146.4,165.236 C149.304015,165.236 151.577992,166.153991 153.222,167.99 C154.866008,169.826009 155.688,172.291985 155.688,175.388 C155.688,178.604016 154.872008,181.111991 153.24,182.912 C151.607992,184.712009 149.328015,185.612 146.4,185.612 C143.471985,185.612 141.192008,184.718009 139.56,182.93 C137.927992,181.141991 137.112,178.640016 137.112,175.424 C137.112,173.38399 137.477996,171.602008 138.21,170.078 C138.942004,168.553992 140.009993,167.366004 141.414,166.514 C142.818007,165.661996 144.47999,165.236 146.4,165.236 Z M146.4,169.448 C145.223994,169.448 144.360003,169.921995 143.808,170.87 C143.255997,171.818005 142.98,173.33599 142.98,175.424 C142.98,177.536011 143.255997,179.065995 143.808,180.014 C144.360003,180.962005 145.223994,181.436 146.4,181.436 C147.576006,181.436 148.439997,180.956005 148.992,179.996 C149.544003,179.035995 149.82,177.500011 149.82,175.388 C149.82,173.32399 149.544003,171.818005 148.992,170.87 C148.439997,169.921995 147.576006,169.448 146.4,169.448 Z M159.72,165.884 L164.688,165.884 L165.084,168.08 C165.948004,167.119995 166.853995,166.406002 167.802,165.938 C168.750005,165.469998 169.823994,165.236 171.024,165.236 C172.680008,165.236 173.969995,165.739995 174.894,166.748 C175.818005,167.756005 176.28,169.159991 176.28,170.96 L176.28,185 L170.592,185 L170.592,172.616 C170.592,171.415994 170.460001,170.588002 170.196,170.132 C169.931999,169.675998 169.452003,169.448 168.756,169.448 C168.179997,169.448 167.622003,169.633998 167.082,170.006 C166.541997,170.378002 165.984003,170.923996 165.408,171.644 L165.408,185 L159.72,185 L159.72,165.884 Z M188.988,181.544 C189.972005,181.544 190.745997,181.394002 191.31,181.094 C191.874003,180.793998 192.156,180.344003 192.156,179.744 C192.156,179.311998 192.042001,178.964001 191.814,178.7 C191.585999,178.435999 191.160003,178.178001 190.536,177.926 C189.911997,177.673999 188.940007,177.368002 187.62,177.008 C185.69999,176.503997 184.236005,175.802005 183.228,174.902 C182.219995,174.001995 181.716,172.760008 181.716,171.176 C181.716,169.423991 182.441993,167.996006 183.894,166.892 C185.346007,165.787994 187.379987,165.236 189.996,165.236 C193.020015,165.236 195.599989,166.015992 197.736,167.576 L195.468,170.924 C193.715991,169.843995 191.952009,169.304 190.176,169.304 C189.239995,169.304 188.550002,169.423999 188.106,169.664 C187.661998,169.904001 187.44,170.275997 187.44,170.78 C187.44,171.116002 187.553999,171.397999 187.782,171.626 C188.010001,171.854001 188.441997,172.087999 189.078,172.328 C189.714003,172.568001 190.667994,172.867998 191.94,173.228 C193.308007,173.612002 194.429996,174.031998 195.306,174.488 C196.182004,174.944002 196.859998,175.555996 197.34,176.324 C197.820002,177.092004 198.06,178.075994 198.06,179.276 C198.06,180.620007 197.652004,181.771995 196.836,182.732 C196.019996,183.692005 194.928007,184.411998 193.56,184.892 C192.191993,185.372002 190.680008,185.612 189.024,185.612 C187.247991,185.612 185.640007,185.360003 184.2,184.856 C182.759993,184.351997 181.536005,183.644005 180.528,182.732 L183.372,179.528 C185.100009,180.872007 186.97199,181.544 188.988,181.544 Z M220.128,183.884 C218.327991,185.036006 216.240012,185.612 213.864,185.612 C211.415988,185.612 209.574006,184.988006 208.338,183.74 C207.101994,182.491994 206.484,180.740011 206.484,178.484 L206.484,169.808 L202.488,169.808 L202.488,165.884 L206.484,165.884 L206.484,161.744 L212.172,161.06 L212.172,165.884 L218.328,165.884 L217.752,169.808 L212.172,169.808 L212.172,178.484 C212.172,179.420005 212.387998,180.091998 212.82,180.5 C213.252002,180.908002 213.947995,181.112 214.908,181.112 C216.108006,181.112 217.223995,180.824003 218.256,180.248 L220.128,183.884 Z M260.412,158.72 C259.211994,158.72 258.330003,158.881998 257.766,159.206 C257.201997,159.530002 256.968,160.123996 257.064,160.988 L257.604,166.316 C257.628,166.532001 257.64,166.831998 257.64,167.216 C257.64,168.800008 257.154005,169.993996 256.182,170.798 C255.209995,171.602004 253.824009,172.135999 252.024,172.4 C253.920009,172.688001 255.335995,173.215996 256.272,173.984 C257.208005,174.752004 257.676,175.927992 257.676,177.512 C257.676,177.680001 257.652,178.003998 257.604,178.484 L257.064,183.812 C256.968,184.652004 257.207997,185.239998 257.784,185.576 C258.360003,185.912002 259.235994,186.08 260.412,186.08 L260.412,190.04 C257.339985,190.04 255.126007,189.620004 253.77,188.78 C252.413993,187.939996 251.736,186.53601 251.736,184.568 C251.736,184.327999 251.76,183.944003 251.808,183.416 L252.348,178.232 L252.384,177.764 C252.384,176.659994 251.946004,175.874002 251.07,175.406 C250.193996,174.937998 248.964008,174.704 247.38,174.704 L247.38,170.096 C250.716017,170.096 252.384,169.07601 252.384,167.036 L252.348,166.568 L251.808,161.42 C251.76,160.843997 251.736,160.436001 251.736,160.196 C251.736,158.22799 252.419993,156.830004 253.788,156.002 C255.156007,155.173996 257.363985,154.76 260.412,154.76 L260.412,158.72 Z M362.4,177.584 C363.528006,177.584 364.463996,177.955996 365.208,178.7 C365.952004,179.444004 366.324,180.367994 366.324,181.472 C366.324,182.144003 366.216001,182.809997 366,183.47 C365.783999,184.130003 365.376003,185.119993 364.776,186.44 L362.184,192.308 L358.368,192.308 L360.204,184.676 C359.675997,184.339998 359.262002,183.890003 358.962,183.326 C358.661999,182.761997 358.512,182.132003 358.512,181.436 C358.512,180.355995 358.883996,179.444004 359.628,178.7 C360.372004,177.955996 361.295994,177.584 362.4,177.584 Z M470.4,177.584 C471.528006,177.584 472.463996,177.955996 473.208,178.7 C473.952004,179.444004 474.324,180.367994 474.324,181.472 C474.324,182.144003 474.216001,182.809997 474,183.47 C473.783999,184.130003 473.376003,185.119993 472.776,186.44 L470.184,192.308 L466.368,192.308 L468.204,184.676 C467.675997,184.339998 467.262002,183.890003 466.962,183.326 C466.661999,182.761997 466.512,182.132003 466.512,181.436 C466.512,180.355995 466.883996,179.444004 467.628,178.7 C468.372004,177.955996 469.295994,177.584 470.4,177.584 Z M615.588,154.76 C618.660015,154.76 620.873993,155.179996 622.23,156.02 C623.586007,156.860004 624.264,158.26399 624.264,160.232 C624.264,160.472001 624.24,160.855997 624.192,161.384 L623.652,166.568 L623.616,167.036 C623.616,169.07601 625.283983,170.096 628.62,170.096 L628.62,174.704 C625.283983,174.704 623.616,175.72399 623.616,177.764 L623.652,178.232 L624.192,183.38 C624.24,183.956003 624.264,184.363999 624.264,184.604 C624.264,186.57201 623.580007,187.969996 622.212,188.798 C620.843993,189.626004 618.636015,190.04 615.588,190.04 L615.588,186.08 C616.788006,186.08 617.669997,185.918002 618.234,185.594 C618.798003,185.269998 619.032,184.676004 618.936,183.812 L618.396,178.484 C618.372,178.267999 618.36,177.968002 618.36,177.584 C618.36,175.999992 618.845995,174.806004 619.818,174.002 C620.790005,173.197996 622.187991,172.664001 624.012,172.4 C622.115991,172.111999 620.700005,171.584004 619.764,170.816 C618.827995,170.047996 618.36,168.872008 618.36,167.288 C618.36,166.855998 618.372,166.532001 618.396,166.316 L618.936,160.988 C619.032,160.147996 618.792003,159.560002 618.216,159.224 C617.639997,158.887998 616.764006,158.72 615.588,158.72 L615.588,154.76 Z M694.572,167.792 L694.572,172.256 L678.228,172.256 L678.228,167.792 L694.572,167.792 Z M694.572,175.352 L694.572,179.78 L678.228,179.78 L678.228,175.352 L694.572,175.352 Z"/>
  </g>
</svg>
